<svg width="494" height="600" viewBox="0 0 494 600" fill="none" xmlns="http://www.w3.org/2000/svg">
<path fill-rule="evenodd" clip-rule="evenodd" d="M346.544 0C355.634 0 360.703 11.9297 356.048 19.7373C348.108 33.0543 343.547 48.6195 343.547 65.25C343.547 114.403 383.394 154.25 432.547 154.25C447.996 154.25 462.525 150.314 475.187 143.389C482.907 139.168 494 144.205 494 153.003V570C494 586.569 480.569 600 464 600H30C13.4314 600 0 586.569 0 570V30C0 13.4315 13.4315 0 30 0H346.544ZM493.738 0C493.502 0 493.386 0.290779 493.558 0.453077V0.453077C493.725 0.610159 494 0.490822 494 0.261728V0.261728C494 0.117539 493.883 0 493.738 0V0Z" fill="black"/>
</svg>
