<svg width="24" height="25" viewBox="0 0 24 25" fill="none" xmlns="http://www.w3.org/2000/svg">
<path d="M22.8821 15.3068L15.7412 12.5125L22.9442 9.71827C23.3168 9.59408 23.5652 9.15942 23.5031 8.78685C23.3789 7.97961 23.0063 7.23447 22.5717 6.55143C22.1991 5.80629 21.7023 5.18534 21.0814 4.62648C20.7709 4.3781 20.3363 4.3781 20.0258 4.62648L14.0026 9.46989L15.2445 1.83221C15.3687 1.39755 15.1203 1.02498 14.7477 0.900788C14.0026 0.590313 13.1332 0.466124 12.326 0.528219C11.5188 0.466124 10.6494 0.590313 9.90431 0.900788C9.53174 1.02498 9.28336 1.45964 9.40755 1.83221L10.6494 9.46989L4.62624 4.62648C4.31576 4.31601 3.8811 4.31601 3.57062 4.62648C2.94967 5.12324 2.45291 5.80629 2.08034 6.55143C1.58358 7.23447 1.27311 7.97961 1.08682 8.78685C1.02473 9.22151 1.27311 9.59408 1.64568 9.71827L8.7245 12.5125L1.52149 15.3068C1.14892 15.431 0.90054 15.8657 0.962634 16.2382C1.08682 17.0455 1.3973 17.7906 1.89406 18.4737C2.26663 19.2188 2.76339 19.8397 3.38434 20.3986C3.69481 20.647 4.12948 20.647 4.43995 20.3986L10.4632 15.5552L9.22126 23.1929C9.09707 23.6275 9.34545 24.0001 9.71802 24.1864C10.5253 24.4348 11.3325 24.559 12.1397 24.4969C12.947 24.559 13.8163 24.4348 14.5614 24.1864C14.934 24.0622 15.1824 23.6275 15.0582 23.1929L13.8163 15.5552L19.8395 20.3986C20.15 20.647 20.5846 20.647 20.9572 20.3986C21.5782 19.9018 22.0749 19.2809 22.4475 18.5358C22.9442 17.8527 23.2547 17.1076 23.441 16.3003C23.5031 15.8036 23.3168 15.431 22.8821 15.3068Z" fill="black"/>
</svg>
