<svg width="177" height="188" viewBox="0 0 177 188" fill="none" xmlns="http://www.w3.org/2000/svg">
<path d="M5.98446 128.964L38.1531 120.967L27.0708 134.652L28.5587 153.233L5.98446 128.964Z" fill="#BFF747"/>
<path d="M17.288 129.186C17.1596 129.393 17.2796 129.771 17.6404 130.261C17.8289 130.523 18.0673 130.803 18.3557 131.099C18.4955 131.26 18.6602 131.43 18.8499 131.608L19.122 131.871C19.2294 131.965 19.3118 132.05 19.4191 132.143C19.8485 132.517 20.3277 132.909 20.8569 133.317C20.9892 133.42 21.1215 133.522 21.2787 133.633C21.411 133.735 21.5682 133.846 21.7255 133.957C22.015 134.17 22.3382 134.367 22.6777 134.598C23.3404 135.025 24.0355 135.52 24.8317 135.966C25.2297 136.19 25.6191 136.438 26.0421 136.669C26.2493 136.798 26.4652 136.901 26.6723 137.03C26.8795 137.158 27.0953 137.262 27.3362 137.374C30.8627 139.222 35.3173 141.059 40.4392 142.428C40.7723 142.517 41.0718 142.621 41.4137 142.685L42.3968 142.916C43.0718 143.068 43.7132 143.236 44.4218 143.372C45.1055 143.499 45.8142 143.634 46.4979 143.761C46.8398 143.825 47.2066 143.897 47.5485 143.96C47.899 143.999 48.2658 144.071 48.6164 144.109C48.967 144.148 49.3338 144.22 49.6844 144.258C50.0599 144.306 50.4018 144.369 50.786 144.391C51.5121 144.477 52.247 144.538 52.998 144.632C53.1902 144.643 53.3736 144.68 53.5657 144.691L54.0747 144.756C54.459 144.779 54.8183 144.792 55.2025 144.815C55.5868 144.837 55.971 144.859 56.3303 144.873C56.7146 144.895 57.1076 144.892 57.4669 144.906C57.8511 144.928 58.3027 144.918 58.7706 144.941C59.0213 144.945 59.2721 144.948 59.5478 144.961C59.8235 144.973 60.1079 144.96 60.3924 144.948C60.9862 144.931 61.6299 144.932 62.3073 144.917C62.4745 144.919 62.6417 144.922 62.8425 144.908C63.0184 144.885 63.2105 144.896 63.3864 144.874C63.7544 144.862 64.1312 144.826 64.5241 144.823C67.6616 144.66 71.5463 144.281 75.9895 143.425C77.1047 143.199 78.2449 142.981 79.4361 142.697C80.0311 142.597 80.6186 142.439 81.2311 142.289C81.8186 142.13 82.4398 141.955 83.061 141.78C83.3716 141.692 83.6822 141.605 83.9928 141.517C84.1437 141.486 84.3033 141.43 84.463 141.374C84.6227 141.317 84.7736 141.286 84.9333 141.23C85.5632 141.03 86.1931 140.83 86.8479 140.639C87.1585 140.551 87.4865 140.414 87.8058 140.302C88.1252 140.189 88.4445 140.077 88.7638 139.964C89.4111 139.714 90.0747 139.498 90.7308 139.223C91.3868 138.949 92.0591 138.707 92.7401 138.441C92.8998 138.385 93.0682 138.304 93.2365 138.223C93.4049 138.142 93.5646 138.085 93.733 138.004C94.0697 137.842 94.3977 137.704 94.7595 137.551C95.0962 137.388 95.4492 137.26 95.7859 137.097C96.1227 136.935 96.4594 136.773 96.7962 136.61C97.133 136.448 97.4697 136.286 97.8152 136.098C97.9835 136.017 98.1519 135.936 98.329 135.83L98.5984 135.7L98.8429 135.561C99.5251 135.212 100.216 134.837 100.907 134.463C101.084 134.356 101.252 134.275 101.43 134.169C101.607 134.063 101.775 133.982 101.952 133.876C102.298 133.688 102.627 133.467 102.981 133.255C103.335 133.043 103.681 132.856 104.01 132.635C104.339 132.414 104.693 132.201 105.023 131.98C105.352 131.759 105.706 131.547 106.044 131.301C106.221 131.195 106.398 131.089 106.55 130.974C106.727 130.868 106.888 130.728 107.065 130.622C107.741 130.13 108.433 129.672 109.109 129.18C109.447 128.934 109.785 128.688 110.132 128.417C110.47 128.171 110.792 127.892 111.13 127.646C112.474 126.603 113.794 125.469 115.107 124.275C116.42 123.082 117.692 121.846 118.924 120.485C120.147 119.148 121.338 117.744 122.455 116.23C122.753 115.858 123.001 115.469 123.274 115.088C123.547 114.707 123.795 114.318 124.077 113.912C124.325 113.523 124.582 113.109 124.83 112.719C124.958 112.512 125.078 112.33 125.206 112.123C125.335 111.916 125.463 111.708 125.566 111.493C126.51 109.834 127.387 108.125 128.149 106.346C128.331 105.906 128.546 105.449 128.728 105.009C128.885 104.56 129.076 104.094 129.233 103.645C129.605 102.739 129.878 101.798 130.176 100.866C130.341 100.392 130.448 99.9254 130.589 99.4425C130.721 98.9846 130.837 98.493 130.977 98.0101C131.085 97.5435 131.2 97.0519 131.291 96.5516L131.46 95.8267L131.496 95.6433L131.533 95.4599L131.605 95.0931C131.696 94.5928 131.778 94.1174 131.868 93.6171L131.941 93.2503C131.959 93.1168 131.969 93.0083 131.988 92.8748L132.082 92.1237C132.139 91.6396 132.205 91.1306 132.262 90.6465C132.295 90.1537 132.335 89.636 132.368 89.1432L132.428 88.4084C132.432 88.1576 132.436 87.9068 132.439 87.6561C132.446 87.1546 132.454 86.653 132.461 86.1515C132.465 85.9008 132.468 85.65 132.447 85.3905L132.433 84.6296L132.419 83.8686L132.407 83.5005C132.392 83.3833 132.386 83.241 132.371 83.1238C132.328 82.6048 132.302 82.1196 132.259 81.6006C132.238 81.3411 132.241 81.0904 132.186 80.8472L132.089 80.0849C132.012 79.5822 131.961 79.0882 131.893 78.5606C131.817 78.0578 131.74 77.5551 131.639 77.0437C131.25 75.0316 130.719 73.0259 130.012 71.0426C129.296 69.0844 128.404 67.1487 127.252 65.3179C126.099 63.4871 124.736 61.7787 123.102 60.2837C122.995 60.1902 122.888 60.0967 122.805 60.0119L122.483 59.7313C122.268 59.5443 122.07 59.391 121.855 59.204C121.417 58.8549 120.921 58.5133 120.39 58.188C119.86 57.8626 119.237 57.5611 118.555 57.3506C117.881 57.1152 117.122 56.9621 116.311 56.9588C115.559 56.9479 114.763 57.0619 113.974 57.318C113.209 57.5829 112.509 57.9825 111.917 58.4755C111.325 58.9686 110.857 59.5053 110.465 60.0682C110.072 60.631 109.763 61.195 109.504 61.7765C108.994 62.9146 108.71 64.0475 108.51 65.1816C108.343 66.2995 108.26 67.4185 108.311 68.5563C108.323 68.8407 108.336 69.1252 108.349 69.4096L108.362 69.6104L108.385 69.7863L108.421 70.163L108.519 70.9253L108.625 71.6625C108.656 71.897 108.702 72.1652 108.732 72.3997L108.863 73.1457C108.94 73.6484 109.05 74.1349 109.16 74.6213C109.591 76.5922 110.14 78.5481 110.848 80.4477C111.556 82.3474 112.399 84.1821 113.42 85.9106C117.407 92.9322 124.286 98.2481 131.99 99.6801C135.825 100.404 139.735 100.034 143.237 98.9058C145.001 98.346 146.643 97.5754 148.177 96.7113C149.711 95.8472 151.155 94.8397 152.449 93.7799C155.097 91.6527 157.322 89.2101 159.197 86.729C161.081 84.223 162.656 81.6373 163.923 79.0555C164.086 78.7485 164.233 78.4079 164.396 78.1009C164.482 77.9349 164.535 77.7852 164.621 77.6192C164.682 77.4445 164.759 77.3035 164.82 77.1288C164.958 76.8131 165.096 76.4974 165.235 76.1817C165.373 75.866 165.511 75.5504 165.625 75.2259C165.876 74.5858 166.119 73.9706 166.362 73.3555C166.58 72.7316 166.798 72.1077 167.016 71.4838C167.846 69.0295 168.482 66.6476 168.983 64.4142C169.091 63.864 169.208 63.2889 169.316 62.7387C169.424 62.1884 169.499 61.6544 169.598 61.1292C169.636 60.8622 169.698 60.6039 169.735 60.3369C169.772 60.0699 169.801 59.8279 169.838 59.5609C169.904 59.0519 169.97 58.5428 170.027 58.0588C170.24 56.0888 170.391 54.2935 170.406 52.6467C170.412 52.2288 170.434 51.8446 170.432 51.4516C170.429 51.0586 170.418 50.6906 170.431 50.3313C170.42 49.9633 170.425 49.629 170.404 49.2859C170.409 48.9516 170.389 48.6085 170.36 48.2904C170.356 47.981 170.327 47.6629 170.315 47.3784C170.302 47.094 170.29 46.8096 170.243 46.5414C170.201 46.0224 170.149 45.5285 170.105 45.0931C170.061 44.6577 170 44.2722 169.946 43.9454C169.892 43.6186 169.846 43.3504 169.791 43.1071C169.689 42.6793 169.625 42.461 169.55 42.4348C169.491 42.4424 169.438 42.6757 169.398 43.1099C169.378 43.3269 169.366 43.6026 169.361 43.937C169.356 44.2713 169.368 44.6393 169.328 45.0735C169.322 45.4914 169.29 45.9842 169.274 46.5107C169.262 46.7864 169.249 47.0621 169.237 47.3378C169.225 47.6136 169.204 47.9142 169.199 48.2485C169.178 48.5492 169.173 48.8835 169.143 49.2092C169.113 49.5348 169.1 49.8941 169.061 50.2447C169.023 50.5953 169.009 50.9546 168.987 51.3388C168.94 51.7144 168.918 52.0986 168.862 52.4991C168.697 54.0935 168.445 55.8539 168.117 57.7554C168.035 58.2307 167.928 58.6974 167.837 59.1977C167.784 59.431 167.746 59.698 167.693 59.9313C167.631 60.1896 167.577 60.4229 167.515 60.6811C167.39 61.1977 167.299 61.698 167.166 62.2395C167.042 62.7561 166.884 63.2888 166.75 63.8303C166.168 65.9789 165.433 68.2423 164.538 70.562C164.304 71.1522 164.079 71.7174 163.836 72.3325C163.576 72.914 163.308 73.5205 163.049 74.102C162.497 75.2812 161.928 76.5103 161.267 77.6796C159.987 80.0606 158.423 82.4542 156.576 84.6932C154.746 86.9659 152.625 89.109 150.191 90.9466C147.757 92.7843 145.009 94.3164 142.012 95.2012C140.517 95.6312 138.967 95.9014 137.402 95.9708C137.001 95.9985 136.617 95.9763 136.224 95.9789C136.023 95.9928 135.831 95.9816 135.638 95.9705C135.446 95.9594 135.254 95.9482 135.037 95.9284C134.628 95.8974 134.252 95.8502 133.852 95.7943C133.46 95.7134 133.06 95.6574 132.668 95.5766C129.542 94.9045 126.504 93.4228 123.9 91.337C122.586 90.2897 121.374 89.1102 120.29 87.8071C119.205 86.504 118.247 85.0773 117.408 83.552C115.755 80.5101 114.592 77.1074 113.923 73.5697C113.855 73.1256 113.752 72.6978 113.692 72.2287C113.623 71.7846 113.554 71.3405 113.51 70.9052L113.436 70.2353L113.363 69.5654L113.342 69.2224L113.32 69.0465L113.314 68.9043C113.3 68.7034 113.286 68.5026 113.297 68.3104C113.292 67.5245 113.354 66.7061 113.507 65.9475C113.635 65.1802 113.863 64.4477 114.164 63.8251C114.466 63.2024 114.824 62.7394 115.137 62.4847C115.289 62.3699 115.432 62.28 115.583 62.2487C115.814 62.4694 115.99 62.4469 116.182 62.458C116.349 62.4604 116.558 62.5052 116.782 62.5837C117.007 62.6621 117.289 62.8167 117.571 62.9712C117.844 63.1507 118.159 63.3727 118.464 63.6195L118.935 64.0359L119.175 64.2317C119.266 64.2915 119.323 64.3676 119.405 64.4524C121.797 66.7441 123.559 69.7959 124.673 73.0976C125.243 74.7528 125.653 76.4642 125.962 78.2243C126.031 78.6684 126.1 79.1125 126.177 79.5316C126.221 79.967 126.256 80.4273 126.325 80.8714L126.399 81.5413C126.429 81.7758 126.434 82.0016 126.448 82.2024C126.458 82.654 126.502 83.0894 126.513 83.541C126.528 83.6583 126.518 83.7668 126.533 83.8841L126.478 84.201L126.468 84.8697L126.459 85.5383C126.464 85.7641 126.469 85.9899 126.449 86.207C126.434 86.6499 126.42 87.0928 126.405 87.5357C126.385 87.7528 126.39 87.9786 126.37 88.1956L126.311 88.8469C126.271 89.2811 126.231 89.7152 126.183 90.1743C126.143 90.6085 126.07 91.0589 126.005 91.4843L125.954 92.1106C125.944 92.2192 125.934 92.3277 125.9 92.4275L125.845 92.7445C125.772 93.1949 125.707 93.6203 125.617 94.037L125.563 94.3539L125.535 94.5124L125.508 94.6708L125.365 95.3209C125.275 95.7376 125.152 96.1705 125.062 96.5873C124.948 96.9953 124.824 97.4282 124.71 97.8362C124.595 98.2442 124.472 98.6772 124.332 99.0765C124.045 99.9 123.791 100.707 123.462 101.488C123.297 101.879 123.158 102.278 122.993 102.669C122.829 103.059 122.639 103.441 122.475 103.832C121.792 105.385 120.968 106.862 120.137 108.279C120.042 108.47 119.931 108.627 119.811 108.81C119.692 108.992 119.581 109.149 119.486 109.34C119.255 109.679 119.05 110.028 118.819 110.367C118.589 110.706 118.333 111.037 118.102 111.377C117.872 111.716 117.641 112.056 117.369 112.353C116.356 113.651 115.31 114.881 114.206 116.036C113.094 117.215 111.933 118.294 110.747 119.363C109.57 120.408 108.352 121.411 107.101 122.346C106.797 122.575 106.492 122.805 106.154 123.051C105.85 123.281 105.521 123.502 105.217 123.731C104.592 124.157 103.967 124.583 103.342 125.009C103.19 125.124 103.038 125.238 102.87 125.32C102.717 125.434 102.549 125.516 102.397 125.63C102.076 125.826 101.756 126.023 101.46 126.227C101.14 126.423 100.819 126.619 100.524 126.824C100.212 126.995 99.8915 127.191 99.5797 127.362C99.2679 127.533 98.9474 127.729 98.6356 127.9C98.4921 127.99 98.3238 128.071 98.1716 128.186C98.0282 128.276 97.8598 128.357 97.6914 128.439C97.0429 128.772 96.428 129.089 95.8044 129.431L95.5687 129.545L95.333 129.659C95.1646 129.74 95.0299 129.805 94.8615 129.886C94.5585 130.032 94.2217 130.194 93.9186 130.341C93.6156 130.487 93.2875 130.624 92.9844 130.77C92.6564 130.908 92.3621 131.029 92.034 131.166C91.731 131.312 91.4116 131.425 91.1086 131.571C90.9489 131.627 90.8055 131.717 90.6458 131.773C90.4862 131.829 90.3428 131.919 90.1831 131.975C89.5694 132.209 88.9558 132.443 88.3421 132.676C87.7284 132.91 87.1235 133.119 86.5185 133.327C86.2329 133.423 85.9136 133.536 85.6279 133.632C85.3423 133.728 85.023 133.841 84.7461 133.912C84.1499 134.096 83.5623 134.254 82.9911 134.447C82.8401 134.478 82.7054 134.543 82.5545 134.574C82.4036 134.606 82.2689 134.671 82.1179 134.702C81.841 134.773 81.5304 134.861 81.2535 134.932C80.6997 135.074 80.1122 135.233 79.5583 135.376C79.0132 135.493 78.4594 135.636 77.9143 135.753C76.8403 136.022 75.7762 136.182 74.7533 136.385C70.663 137.112 67.1139 137.412 64.2359 137.554C63.8679 137.566 63.5249 137.586 63.1818 137.606C63.0146 137.603 62.8388 137.626 62.6716 137.624C62.5044 137.621 62.3372 137.619 62.195 137.625C61.5513 137.624 60.9824 137.649 60.4223 137.65C60.1466 137.637 59.8871 137.659 59.6363 137.655C59.3856 137.652 59.1598 137.657 58.9427 137.637C58.4998 137.622 58.0819 137.616 57.7475 137.611C57.3882 137.598 57.0539 137.593 56.6946 137.579C56.3353 137.566 56.0097 137.536 55.6504 137.522C55.2911 137.509 54.9655 137.479 54.6062 137.466L54.0884 137.425C53.9212 137.422 53.7378 137.386 53.5707 137.384C52.8857 137.34 52.2095 137.272 51.5333 137.204C51.2077 137.174 50.8571 137.136 50.5315 137.106C50.2059 137.076 49.8553 137.038 49.5384 136.983C49.2128 136.953 48.8872 136.923 48.5703 136.869C48.2447 136.839 47.9277 136.784 47.6108 136.729C46.9683 136.645 46.3345 136.535 45.692 136.451C45.0582 136.341 44.4493 136.241 43.8155 136.131L42.8898 135.976C42.5729 135.921 42.2896 135.85 41.9977 135.804C37.1954 134.882 32.932 133.701 29.3871 132.546C29.1625 132.467 28.9292 132.414 28.7296 132.344C28.505 132.266 28.3053 132.196 28.0807 132.117C27.6815 131.978 27.2572 131.83 26.8492 131.715C26.0419 131.461 25.302 131.174 24.5783 130.922C24.2289 130.799 23.8796 130.677 23.5551 130.564C23.3804 130.503 23.2307 130.451 23.081 130.398C22.9312 130.346 22.7815 130.294 22.6068 130.233C22.0079 130.023 21.4339 129.823 20.9261 129.673C20.8013 129.63 20.6766 129.586 20.5431 129.568C20.4183 129.524 20.3185 129.489 20.1937 129.446C19.9691 129.367 19.7358 129.313 19.5361 129.244C19.1281 129.129 18.7613 129.057 18.4693 129.011C17.8268 128.927 17.4164 128.979 17.288 129.186Z" fill="#BFF747"/>
<path d="M35.664 140.959C37.2112 141.5 38.8009 142 40.4416 142.433C40.5414 142.468 40.6749 142.486 40.7748 142.521C40.9744 142.591 41.2077 142.644 41.4161 142.689L42.3993 142.921C42.5827 142.957 42.791 143.002 42.9657 143.063C43.4323 143.17 43.9239 143.286 44.3906 143.393C45.0743 143.519 45.758 143.646 46.4417 143.773C46.5752 143.792 46.7 143.836 46.8335 143.854C47.0668 143.908 47.3088 143.936 47.5172 143.981C47.8678 144.02 48.2346 144.092 48.5852 144.13C48.8771 144.176 49.1691 144.222 49.461 144.268L49.6444 144.304C49.728 144.306 49.7779 144.323 49.8615 144.324C50.1535 144.37 50.4454 144.416 50.7461 144.437L51.6393 144.525C52.0735 144.565 52.5326 144.614 52.9668 144.653C53.0254 144.646 53.1003 144.672 53.1589 144.664C53.2675 144.674 53.401 144.693 53.5345 144.712L54.0772 144.761C54.4365 144.775 54.787 144.813 55.1713 144.835L55.2212 144.853C55.6055 144.875 55.9897 144.897 56.349 144.911C56.5998 144.915 56.8505 144.918 57.1013 144.922C57.2348 144.94 57.352 144.925 57.4942 144.919L58.7979 144.955C58.9651 144.957 59.1323 144.959 59.3244 144.971L59.5752 144.974C59.7423 144.977 59.9432 144.963 60.1104 144.965C60.2189 144.975 60.3112 144.951 60.4197 144.961C60.7628 144.941 61.1221 144.955 61.5151 144.952L62.3596 144.939C62.4183 144.931 62.4769 144.924 62.5518 144.95C62.6603 144.96 62.7776 144.945 62.8948 144.93C63.0707 144.907 63.2629 144.919 63.4388 144.896C63.8068 144.885 64.1835 144.848 64.5765 144.846C66.3754 144.746 68.0745 144.612 69.8247 144.411C71.9017 144.157 73.9961 143.853 76.0332 143.472C76.2427 143.434 76.4523 143.395 76.6706 143.331C77.5762 143.143 78.5068 142.965 79.4548 142.736L80.0585 142.611C80.4527 142.524 80.8556 142.413 81.2498 142.327C81.745 142.192 82.2402 142.057 82.7354 141.922L83.0796 141.818C83.2306 141.787 83.3902 141.731 83.5412 141.699C83.6921 141.668 83.8518 141.612 84.0027 141.581C84.1536 141.549 84.3133 141.493 84.4729 141.437C84.6326 141.381 84.7835 141.349 84.9432 141.293L85.5232 141.076C85.9598 140.948 86.405 140.796 86.8416 140.669C87.0936 140.589 87.3455 140.509 87.6062 140.404C87.6736 140.371 87.7322 140.364 87.7995 140.331C87.9255 140.291 88.0852 140.235 88.2112 140.195C88.4045 140.123 88.5978 140.05 88.7912 139.978C88.9508 139.921 89.1105 139.865 89.2788 139.784C89.7578 139.615 90.2705 139.43 90.7581 139.237C91.1448 139.092 91.5402 138.922 91.9268 138.777L92.7675 138.455C92.9272 138.399 93.0868 138.342 93.2639 138.236C93.4323 138.155 93.592 138.099 93.7603 138.018C93.895 137.953 94.0547 137.896 94.1894 137.832C94.3914 137.734 94.5848 137.662 94.7868 137.564L95.8133 137.111C96.049 136.997 96.2935 136.859 96.5542 136.754L96.8236 136.624L97.8425 136.112C98.0109 136.031 98.1793 135.949 98.3564 135.843L98.6258 135.713L98.8702 135.575L99.2157 135.388C99.772 135.078 100.353 134.777 100.943 134.451C101.01 134.418 101.078 134.386 101.12 134.345C101.221 134.296 101.356 134.231 101.466 134.158L101.6 134.093C101.735 134.028 101.845 133.954 101.988 133.864L102.249 133.759C102.502 133.596 102.771 133.466 103.025 133.302C103.379 133.09 103.724 132.903 104.054 132.682L104.197 132.592C104.484 132.412 104.779 132.207 105.091 132.036L105.521 131.766C105.732 131.644 105.927 131.488 106.137 131.366L106.644 131.039C106.754 130.965 106.863 130.891 106.973 130.818C107.04 130.785 107.083 130.744 107.159 130.686C107.522 130.449 107.868 130.178 108.231 129.941C108.561 129.72 108.899 129.474 109.203 129.244L110.225 128.482C110.42 128.326 110.606 128.195 110.8 128.039C110.952 127.924 111.071 127.825 111.223 127.71C112.61 126.627 113.955 125.501 115.192 124.365C116.498 123.113 117.787 121.827 118.959 120.557C120.225 119.179 121.399 117.741 122.49 116.302C122.737 115.996 122.967 115.657 123.198 115.317C123.249 115.251 123.267 115.201 123.318 115.135C123.591 114.754 123.83 114.39 124.103 114.009L124.12 113.959C124.283 113.736 124.462 113.463 124.608 113.206C124.685 113.065 124.787 112.932 124.865 112.791L125.044 112.518C125.113 112.402 125.181 112.286 125.241 112.195C125.283 112.154 125.31 112.079 125.352 112.038C125.429 111.897 125.54 111.739 125.618 111.598C126.742 109.583 127.542 108.014 128.2 106.452C128.252 106.302 128.329 106.161 128.382 106.012C128.511 105.721 128.65 105.405 128.754 105.106L129.292 103.726C129.553 103.061 129.772 102.353 129.999 101.704C130.086 101.455 130.148 101.196 130.227 100.972C130.34 100.647 130.437 100.289 130.526 99.9562C130.56 99.8564 130.579 99.7229 130.623 99.5981C131.064 99.6965 131.531 99.8035 131.973 99.9018C133.84 100.246 135.787 100.366 137.72 100.202C139.586 100.07 141.423 99.7036 143.22 99.1275C144.068 98.8639 144.918 98.5166 145.776 98.1444C146.567 97.8047 147.358 97.3814 148.159 96.9331C149.626 96.1015 151.061 95.1189 152.432 94.0016C153.684 92.983 154.921 91.8471 156.084 90.6015C157.145 89.4881 158.2 88.2325 159.188 86.9258C161.004 84.5359 162.579 81.9502 163.914 79.2523C164.035 78.9865 164.172 78.7544 164.293 78.4886C164.319 78.4137 164.37 78.3476 164.396 78.2727L164.44 78.148C164.508 78.0319 164.552 77.9071 164.621 77.7911C164.682 77.6164 164.759 77.4754 164.82 77.3007C164.941 77.0349 165.07 76.7441 165.166 76.4696L165.21 76.3449C165.236 76.27 165.262 76.1951 165.313 76.129C165.425 75.8882 165.513 75.6386 165.625 75.3978C165.695 75.1981 165.798 74.9822 165.868 74.7826C166.041 74.3671 166.189 73.9428 166.362 73.5273L167.016 71.6557C167.785 69.376 168.446 67.0029 168.983 64.5861C169.091 64.0359 169.208 63.4607 169.316 62.9105C169.388 62.5437 169.452 62.2018 169.49 61.8513C169.526 61.6678 169.562 61.4844 169.598 61.301L169.735 60.5088L169.753 60.4589C169.781 60.2168 169.81 59.9748 169.863 59.7415L169.928 59.316C169.975 58.9405 170.014 58.5899 170.077 58.2481C170.318 56.0361 170.443 54.3156 170.456 52.8361C170.451 52.6103 170.471 52.3932 170.466 52.1674L170.482 51.6409C170.485 51.3902 170.473 51.1057 170.468 50.8799C170.477 50.7714 170.462 50.6541 170.456 50.5119L170.429 49.4664C170.424 49.2406 170.419 49.0148 170.414 48.789C170.399 48.6718 170.4 48.5882 170.385 48.4709C170.38 48.2451 170.366 48.0443 170.352 47.8435L170.34 47.559C170.327 47.2746 170.315 46.9902 170.268 46.722C170.226 46.203 170.174 45.709 170.13 45.2736C170.103 44.8719 170.033 44.5115 169.97 44.2096L169.971 44.126C169.917 43.7992 169.871 43.531 169.816 43.2877C169.739 42.8686 169.65 42.6416 169.6 42.6242C169.541 42.6317 169.488 42.865 169.448 43.2991C169.428 43.5162 169.416 43.7919 169.411 44.1263C169.401 44.2348 169.416 44.3521 169.398 44.4856C169.403 44.7114 169.39 44.9871 169.378 45.2628C169.372 45.6807 169.34 46.1735 169.324 46.7C169.32 46.9508 169.308 47.2265 169.287 47.5272C169.275 47.8029 169.253 48.1035 169.249 48.4379C169.239 48.5464 169.229 48.655 169.235 48.7972C169.224 48.9893 169.204 49.2064 169.218 49.4072L169.196 49.7915C169.176 50.0085 169.156 50.2256 169.136 50.4427C169.118 50.5762 169.124 50.7184 169.105 50.8519C169.085 51.069 169.09 51.2948 169.062 51.5369L168.936 52.6971C168.807 54.1081 168.575 55.7351 168.192 57.9534C168.11 58.4287 168.003 58.8954 167.912 59.3957C167.858 59.629 167.814 59.8373 167.785 60.0794L167.759 60.1543L167.581 60.9041C167.595 61.1049 167.534 61.2796 167.498 61.463C167.418 61.7712 167.355 62.1131 167.266 62.4462C167.142 62.9628 166.983 63.4956 166.85 64.0371C166.206 66.3603 165.472 68.6237 164.638 70.7687L163.935 72.5393C163.78 72.9049 163.624 73.2705 163.443 73.6274C163.34 73.8433 163.228 74.0841 163.149 74.3087C162.606 75.463 162.036 76.6921 161.367 77.8863C160.018 80.3833 158.438 82.7433 156.667 84.9249C155.722 86.1068 154.72 87.2126 153.702 88.2012C152.591 89.2971 151.457 90.3007 150.282 91.1783C147.62 93.1882 144.882 94.6118 142.103 95.4329C140.575 95.8791 139.033 96.1244 137.494 96.2025C137.234 96.2238 136.958 96.2116 136.674 96.2242C136.565 96.2143 136.423 96.2205 136.306 96.2356C136.139 96.2332 135.972 96.2307 135.813 96.2034C135.788 96.1947 135.755 96.2109 135.705 96.1935L135.454 96.1899C135.345 96.18 135.237 96.17 135.12 96.1851C134.877 96.1565 134.635 96.1279 134.418 96.1081C134.26 96.0807 134.093 96.0783 133.934 96.0509L133.801 96.0323C133.459 95.9688 133.117 95.9054 132.75 95.8332C132.359 95.7523 131.95 95.6378 131.542 95.5232L131.597 95.2063L131.652 94.8894C131.724 94.5226 131.78 94.1221 131.852 93.7553L131.924 93.3885C131.926 93.3049 131.952 93.23 131.953 93.1464C131.97 93.0965 131.954 93.0628 131.972 93.0129L132.066 92.2618C132.093 92.1034 132.105 91.9113 132.132 91.7528C132.162 91.4272 132.216 91.1103 132.246 90.7847L132.351 89.2814L132.421 88.5216C132.423 88.3544 132.426 88.1872 132.428 88.02C132.429 87.9364 132.431 87.8529 132.432 87.7693L132.449 87.1593C132.47 86.8586 132.457 86.5741 132.478 86.2735C132.489 86.0813 132.476 85.8805 132.478 85.7133C132.471 85.6547 132.463 85.5961 132.464 85.5125L132.45 84.7515L132.425 83.6225C132.426 83.5389 132.427 83.4553 132.403 83.363C132.387 83.3293 132.404 83.2794 132.397 83.2208C132.354 82.7018 132.328 82.2166 132.285 81.6976C132.286 81.614 132.263 81.5217 132.264 81.4381C132.266 81.2709 132.235 81.12 132.212 80.9441L132.115 80.1819C132.061 79.8551 132.041 79.5121 131.996 79.1603L131.919 78.6575C131.888 78.5066 131.857 78.3557 131.85 78.2135C131.805 77.8617 131.735 77.5012 131.665 77.1407C131.463 76.1178 131.235 75.0862 130.981 74.1295C130.72 73.1141 130.4 72.1062 130.038 71.1396C129.668 70.1143 129.256 69.1302 128.817 68.221C128.347 67.2444 127.842 66.2841 127.278 65.4148C126.068 63.508 124.671 61.8158 123.128 60.3807C123.021 60.2872 122.914 60.1937 122.831 60.1089L122.509 59.8283C122.443 59.7772 122.377 59.7261 122.336 59.6837C122.187 59.5478 122.03 59.4369 121.882 59.301C121.327 58.8833 120.881 58.5592 120.416 58.285C119.836 57.9422 119.255 57.683 118.706 57.4912C118.681 57.4825 118.631 57.465 118.606 57.4563C117.882 57.2034 117.115 57.0753 116.363 57.0645C115.552 57.0612 114.756 57.1751 114.025 57.4237C113.294 57.6724 112.569 58.0632 111.968 58.5812C111.427 59.0082 110.926 59.5611 110.491 60.1652C110.14 60.6868 109.806 61.2421 109.53 61.8735C109.08 62.9204 108.746 64.0359 108.536 65.2785C108.361 66.4214 108.286 67.5155 108.337 68.6533C108.357 68.9963 108.378 69.2558 108.375 69.5066L108.389 69.7074L108.447 70.26L108.52 71.0135L108.627 71.7508C108.65 71.8431 108.649 71.9266 108.673 72.0189C108.704 72.1699 108.727 72.3458 108.749 72.5217L108.881 73.2676C108.926 73.6194 109.005 73.9549 109.083 74.2905C109.115 74.4414 109.146 74.5923 109.177 74.7433C109.6 76.7391 110.173 78.7037 110.866 80.5697C111.59 82.503 112.458 84.3464 113.437 86.0325C114.073 87.1787 114.809 88.2762 115.622 89.3162C114.834 88.2849 114.106 87.1625 113.437 86.0325C112.458 84.3464 111.59 82.503 110.866 80.5697C110.173 78.7037 109.6 76.7391 109.177 74.7433C109.146 74.5923 109.115 74.4414 109.083 74.2905C109.005 73.9549 108.935 73.5944 108.881 73.2676L108.749 72.5217C108.718 72.3707 108.696 72.1948 108.673 72.0189C108.649 71.9266 108.65 71.8431 108.627 71.7508L108.52 71.0135L108.389 69.7074L108.375 69.5066C108.345 69.2721 108.332 68.9876 108.337 68.6533C108.311 67.5243 108.361 66.4214 108.536 65.2785C108.746 64.0359 109.03 62.903 109.505 61.8648C109.781 61.2334 110.091 60.6694 110.466 60.1564C110.901 59.5524 111.393 59.0244 111.918 58.5638C112.544 58.0545 113.244 57.6549 113.975 57.4063C114.706 57.1577 115.477 57.035 116.313 57.047C117.065 57.0579 117.832 57.186 118.556 57.4389C119.155 57.6481 119.786 57.9248 120.416 58.285C120.881 58.5592 121.352 58.892 121.882 59.301C122.03 59.4369 122.187 59.5478 122.336 59.6837C122.377 59.7261 122.443 59.7772 122.509 59.8283L122.831 60.1089C122.939 60.2024 123.021 60.2872 123.103 60.372C124.68 61.7909 126.093 63.5167 127.278 65.4148C127.842 66.2841 128.347 67.2444 128.817 68.221C129.256 69.1302 129.668 70.1143 130.038 71.1396C130.375 72.0975 130.695 73.1054 130.981 74.1295C131.235 75.0862 131.463 76.1178 131.665 77.1407C131.735 77.5012 131.78 77.853 131.85 78.2135C131.857 78.3557 131.888 78.5066 131.919 78.6575L131.996 79.1603C132.049 79.4871 132.045 79.8214 132.098 80.1483L132.196 80.9104C132.219 81.0863 132.225 81.2286 132.248 81.4044C132.246 81.488 132.27 81.5804 132.269 81.6639C132.32 82.1579 132.338 82.6682 132.381 83.1871C132.397 83.2208 132.38 83.2707 132.387 83.3293C132.386 83.4129 132.41 83.5052 132.408 83.5888L132.42 83.9568L132.434 84.7178L132.464 85.5125C132.463 85.5961 132.471 85.6547 132.478 85.7133C132.467 85.9055 132.489 86.0813 132.478 86.2735C132.457 86.5741 132.47 86.8586 132.449 87.1593L132.432 87.7693C132.431 87.8529 132.429 87.9364 132.428 88.02C132.426 88.1872 132.423 88.3544 132.421 88.5216L132.36 89.2564L132.255 90.7597C132.225 91.0853 132.187 91.4359 132.132 91.7528C132.105 91.9113 132.093 92.1034 132.066 92.2618L131.972 93.0129C131.954 93.0628 131.97 93.0965 131.953 93.1464C131.952 93.23 131.934 93.2799 131.933 93.3635L131.861 93.7303C131.789 94.0971 131.724 94.5226 131.652 94.8894L131.597 95.2063L131.542 95.5232C129.577 94.9766 127.634 94.0456 125.829 92.8826L125.847 92.7491L125.902 92.4322C125.928 92.3573 125.921 92.2987 125.922 92.2151C125.931 92.1902 125.923 92.1316 125.932 92.1066L126.016 91.4641C126.044 91.3056 126.071 91.1472 126.073 90.98C126.111 90.713 126.157 90.4211 126.194 90.1541L126.187 90.0954C126.226 89.6613 126.257 89.2521 126.288 88.8429L126.348 88.1916C126.366 88.0581 126.36 87.9159 126.354 87.7737C126.355 87.6901 126.356 87.6065 126.357 87.5229L126.371 87.1636C126.376 86.8293 126.405 86.5036 126.402 86.1943C126.404 86.0271 126.406 85.8599 126.409 85.6928C126.401 85.6341 126.419 85.5842 126.411 85.5256L126.421 84.8569L126.41 83.8452C126.412 83.7616 126.404 83.7029 126.405 83.6194C126.389 83.5857 126.406 83.5358 126.39 83.5021L126.326 82.1635C126.327 82.0799 126.328 81.9964 126.321 81.9377C126.314 81.7955 126.308 81.6533 126.302 81.5111L126.228 80.8412C126.184 80.4058 126.149 79.9455 126.08 79.5014C126.049 79.3505 126.042 79.2083 126.02 79.0324C125.974 78.7642 125.936 78.471 125.898 78.1779C125.573 76.3841 125.172 74.6477 124.61 73.0512C124.032 71.3373 123.319 69.772 122.47 68.3553C121.564 66.8624 120.521 65.5182 119.367 64.4147C119.309 64.3386 119.218 64.2787 119.136 64.194L118.896 63.9982L118.426 63.5818C118.079 63.2925 117.789 63.0794 117.532 62.9335C117.234 62.7453 116.968 62.6244 116.743 62.546C116.718 62.5372 116.693 62.5285 116.693 62.5285C116.519 62.4675 116.335 62.4314 116.143 62.4203C115.951 62.4092 115.775 62.4317 115.616 62.4879C115.456 62.5441 115.321 62.6091 115.169 62.7239C114.831 62.9698 114.465 63.4579 114.197 64.0643C113.904 64.662 113.676 65.3944 113.539 66.1867C113.402 66.979 113.315 67.7886 113.329 68.5496C113.327 68.7168 113.332 68.9426 113.346 69.1435L113.352 69.2856L113.404 69.7797L113.519 70.4919L113.593 71.1618C113.645 71.5723 113.689 72.0076 113.776 72.4018L113.799 72.4941C113.837 72.7873 113.899 73.0891 113.962 73.391C113.993 73.5419 114.025 73.6928 114.04 73.8101C114.374 75.5789 114.825 77.3328 115.403 78.963C115.989 80.6519 116.71 82.2758 117.533 83.7674C118.379 85.3513 119.362 86.7868 120.414 88.0225C121.499 89.3257 122.711 90.5052 124.025 91.5524C124.621 92.0125 125.25 92.4563 125.862 92.8664L125.62 94.0417L125.538 94.517L125.342 95.3168L125.04 96.5832C124.977 96.8415 124.899 97.0661 124.837 97.3243C124.776 97.499 124.748 97.6575 124.687 97.8322C124.644 97.957 124.625 98.0905 124.581 98.2153C124.51 98.4985 124.406 98.7979 124.31 99.0724C124.223 99.322 124.144 99.5466 124.066 99.7712C123.865 100.345 123.69 100.928 123.439 101.484L122.971 102.665C122.858 102.906 122.746 103.146 122.634 103.387C122.557 103.528 122.505 103.678 122.427 103.819C121.676 105.489 120.783 107.081 120.089 108.266C120.012 108.407 119.943 108.524 119.85 108.631C119.807 108.672 119.79 108.722 119.739 108.788C119.628 108.945 119.542 109.111 119.431 109.269L119.414 109.318C119.336 109.459 119.243 109.567 119.166 109.708C119.028 109.94 118.875 110.138 118.738 110.371C118.507 110.71 118.252 111.041 118.021 111.38C117.97 111.446 117.928 111.487 117.901 111.562C117.722 111.836 117.518 112.1 117.313 112.365C116.342 113.622 115.262 114.868 114.15 116.048C113.08 117.186 111.911 118.29 110.691 119.376C109.556 120.379 108.338 121.382 107.045 122.358L106.098 123.063C105.794 123.293 105.498 123.498 105.194 123.727L105.16 123.744C104.713 124.063 104.274 124.358 103.835 124.653L103.286 125.021C103.219 125.053 103.176 125.094 103.134 125.136C103.024 125.209 102.948 125.267 102.838 125.34L102.661 125.447C102.56 125.495 102.45 125.569 102.374 125.626L101.438 126.223C101.252 126.354 101.041 126.477 100.855 126.608L100.501 126.82C100.257 126.959 100.012 127.097 99.7679 127.236L99.5235 127.374C99.2117 127.545 98.8911 127.741 98.5793 127.913C98.4446 127.978 98.3349 128.051 98.2002 128.116L98.0992 128.165C97.9981 128.214 97.8971 128.262 97.7874 128.336C97.72 128.368 97.6776 128.41 97.619 128.417C96.9705 128.751 96.3469 129.093 95.732 129.41L95.4963 129.524L95.2605 129.637C95.0922 129.718 94.9575 129.783 94.7891 129.864C94.5534 129.978 94.3176 130.092 94.057 130.197L93.5181 130.456C93.3161 130.554 93.114 130.651 92.887 130.74L92.4917 130.91C92.2983 130.982 92.13 131.063 91.9366 131.136C91.6335 131.282 91.3142 131.394 91.0112 131.541L90.5484 131.743C90.38 131.824 90.2204 131.88 90.0944 131.92C89.7414 132.049 89.3797 132.203 89.0267 132.331L88.2534 132.621C87.7994 132.799 87.3541 132.951 86.9088 133.103C86.7492 133.16 86.5895 133.216 86.4299 133.272C86.2116 133.336 86.0182 133.408 85.7912 133.497L85.5393 133.577C85.4719 133.609 85.4133 133.617 85.3459 133.649C85.1189 133.738 84.8757 133.793 84.6487 133.882L84.489 133.938C83.9514 134.114 83.4225 134.265 82.8937 134.417C82.8014 134.44 82.734 134.473 82.6417 134.497L82.4571 134.544C82.2974 134.6 82.1715 134.64 82.0205 134.672C81.7436 134.743 81.433 134.83 81.1561 134.902L81.0638 134.925C80.51 135.068 79.9811 135.219 79.4609 135.345L78.8572 135.47C78.4967 135.54 78.1611 135.619 77.8006 135.689C76.9449 135.894 76.1067 136.049 75.3021 136.188C75.0925 136.227 74.858 136.257 74.6397 136.321C71.1781 136.931 67.7363 137.325 64.1223 137.49L63.0682 137.542C62.901 137.54 62.7251 137.562 62.5829 137.568C62.4656 137.583 62.382 137.582 62.2735 137.572C62.2149 137.58 62.165 137.562 62.1063 137.57C61.4626 137.569 60.8937 137.594 60.3336 137.595C60.2251 137.585 60.1327 137.608 60.0492 137.607C59.882 137.605 59.7148 137.602 59.5726 137.609C59.4054 137.606 59.2632 137.613 59.1297 137.594L58.879 137.59L58.486 137.593C58.1853 137.572 57.9258 137.593 57.6838 137.565C57.5416 137.571 57.4331 137.561 57.2908 137.567C57.065 137.573 56.848 137.553 56.6222 137.558C56.455 137.555 56.2878 137.553 56.1044 137.517C55.9372 137.514 55.7451 137.503 55.5779 137.501C55.2436 137.496 54.893 137.458 54.5587 137.453L54.0409 137.412C53.9324 137.402 53.8238 137.392 53.7153 137.382C53.6567 137.39 53.5818 137.364 53.5232 137.371L53.2475 137.359C52.6711 137.325 52.0785 137.258 51.5021 137.225C51.2513 137.221 50.9843 137.184 50.7423 137.155C50.6587 137.154 50.5839 137.128 50.5003 137.127C50.1746 137.097 49.8241 137.059 49.4984 137.029C49.3063 137.018 49.1229 136.982 48.9308 136.97L48.4966 136.931C48.2795 136.911 48.0961 136.875 47.879 136.855C47.7705 136.845 47.637 136.826 47.5285 136.816L46.6439 136.703C46.2933 136.665 45.9515 136.601 45.6009 136.563C45.2341 136.491 44.8585 136.444 44.5167 136.38C44.2497 136.343 43.9914 136.281 43.7244 136.243L42.7987 136.088C42.6153 136.052 42.4069 136.007 42.2235 135.971C42.1237 135.936 42.0151 135.926 41.8817 135.907C39.6558 135.466 37.3725 134.948 35.1154 134.355C33.1665 133.842 31.2101 133.271 29.2711 132.649C29.1962 132.623 29.0964 132.588 29.0215 132.562C28.8968 132.518 28.772 132.475 28.6472 132.431C28.4476 132.361 28.198 132.274 27.9984 132.204C27.624 132.074 27.2747 131.952 26.8916 131.846L26.7669 131.802C26.259 131.653 25.7936 131.462 25.3444 131.305C25.0449 131.2 24.7954 131.113 24.5209 131.017C24.1715 130.895 23.8221 130.773 23.4977 130.66C23.348 130.607 23.1983 130.555 23.0485 130.503L22.9986 130.485C22.8489 130.433 22.6992 130.381 22.5245 130.32C21.9255 130.11 21.3516 129.91 20.8437 129.76L20.4607 129.655L20.1113 129.533C19.8867 129.454 19.6534 129.401 19.4538 129.331C19.0458 129.216 18.6789 129.144 18.387 129.098C17.7781 128.997 17.3927 129.059 17.2556 129.291C17.1272 129.498 17.2471 129.876 17.6079 130.366C17.7964 130.628 18.0349 130.907 18.3232 131.204C18.463 131.365 18.6278 131.534 18.8175 131.713L19.0896 131.976C19.172 132.061 19.288 132.129 19.3704 132.214L19.3954 132.223C19.8247 132.597 20.3127 132.963 20.8331 133.397L20.9405 133.491C21.0565 133.559 21.1389 133.644 21.2462 133.737C21.3785 133.84 21.5358 133.951 21.693 134.062C22.0075 134.283 22.3307 134.48 22.6452 134.702C22.7613 134.771 22.8936 134.873 23.0096 134.942C23.5812 135.309 24.1441 135.702 24.7742 136.062C25.1723 136.285 25.5617 136.533 25.9847 136.765L26.2006 136.869C26.3416 136.946 26.4826 137.023 26.6236 137.101C26.7646 137.178 26.9057 137.255 27.0467 137.332C27.1215 137.358 27.1877 137.41 27.2625 137.436C29.1044 138.415 31.1147 139.314 33.201 140.155C34.042 140.393 34.8405 140.672 35.664 140.959ZM130.623 99.5981C130.579 99.7229 130.56 99.8564 130.526 99.9562C130.437 100.289 130.349 100.623 130.227 100.972C130.139 101.221 130.052 101.471 129.999 101.704C129.788 102.387 129.578 103.069 129.292 103.726L128.788 105.089C128.658 105.38 128.52 105.696 128.415 105.995C128.363 106.145 128.286 106.286 128.233 106.436C127.576 107.998 126.775 109.567 125.651 111.582C125.565 111.748 125.488 111.889 125.386 112.021C125.343 112.063 125.317 112.137 125.275 112.179C125.206 112.295 125.146 112.386 125.078 112.502L124.898 112.775C124.821 112.916 124.719 113.048 124.642 113.189C124.496 113.446 124.291 113.711 124.12 113.959L124.103 114.009C123.83 114.39 123.616 114.763 123.343 115.144C123.291 115.21 123.249 115.251 123.198 115.317C122.976 115.632 122.77 115.98 122.524 116.286C121.424 117.75 120.25 119.187 118.993 120.54C117.812 121.836 116.531 123.097 115.176 124.331C113.939 125.467 112.618 126.602 111.223 127.71C111.071 127.825 110.952 127.924 110.8 128.039C110.606 128.195 110.411 128.351 110.225 128.482L109.178 129.236C108.849 129.457 108.536 129.711 108.231 129.941C107.868 130.178 107.522 130.449 107.159 130.686C107.083 130.744 107.04 130.785 106.973 130.818C106.863 130.891 106.729 130.956 106.619 131.03L106.137 131.366C105.927 131.488 105.741 131.619 105.521 131.766L105.066 132.027C104.771 132.232 104.509 132.421 104.197 132.592L104.054 132.682C103.699 132.894 103.354 133.081 103.025 133.302C102.771 133.466 102.502 133.596 102.249 133.759L101.971 133.914C101.836 133.979 101.726 134.053 101.583 134.143L101.448 134.207C101.338 134.281 101.237 134.33 101.103 134.395C101.035 134.427 100.968 134.46 100.926 134.501C100.344 134.802 99.7969 135.087 99.2157 135.388L98.8702 135.575L98.6171 135.738L98.3564 135.843C98.188 135.924 98.0109 136.031 97.8425 136.112L96.8236 136.624L96.5542 136.754C96.3184 136.867 96.049 136.997 95.8133 137.111L94.7868 137.564C94.5848 137.662 94.3914 137.734 94.1894 137.832C94.0547 137.896 93.895 137.953 93.7603 138.018C93.592 138.099 93.4323 138.155 93.2639 138.236C93.0706 138.309 92.9022 138.39 92.7675 138.455L91.9268 138.777C91.5402 138.922 91.1448 139.092 90.7581 139.237C90.2705 139.43 89.7578 139.615 89.2788 139.784C89.1192 139.84 88.9595 139.896 88.7999 139.953C88.6066 140.025 88.4219 140.073 88.2286 140.145C88.1026 140.185 87.943 140.241 87.817 140.281C87.7496 140.314 87.691 140.321 87.6237 140.354C87.3717 140.434 87.111 140.539 86.8591 140.619C86.4225 140.746 85.9772 140.898 85.5406 141.026L84.9444 141.21C84.7847 141.266 84.6338 141.297 84.4741 141.353C84.3145 141.41 84.1548 141.466 84.0039 141.497C83.853 141.528 83.6933 141.585 83.5336 141.641C83.3827 141.672 83.2231 141.728 83.0721 141.76L82.7279 141.863C82.2326 141.998 81.7375 142.133 81.2423 142.268C80.8481 142.355 80.4452 142.466 80.051 142.552L79.4385 142.702C78.4905 142.931 77.56 143.11 76.6543 143.297C76.4448 143.336 76.2352 143.375 76.0256 143.414C73.9799 143.819 71.8854 144.123 69.8171 144.353C68.0919 144.562 66.3679 144.687 64.569 144.787C64.1673 144.815 63.7992 144.826 63.4312 144.837C63.2553 144.86 63.0632 144.849 62.8873 144.871C62.7701 144.886 62.6615 144.876 62.5443 144.892C62.4856 144.899 62.427 144.907 62.3521 144.88L61.5076 144.893C61.1146 144.896 60.7715 144.916 60.4122 144.903C60.3037 144.893 60.2114 144.916 60.1029 144.906C59.902 144.92 59.7348 144.918 59.5677 144.915L59.3169 144.912C59.1248 144.901 58.9576 144.898 58.7904 144.896L57.4867 144.86C57.3532 144.842 57.211 144.848 57.0938 144.863C56.843 144.86 56.5922 144.856 56.3502 144.827C55.966 144.805 55.5817 144.783 55.2224 144.769L55.1725 144.752C54.8132 144.738 54.4626 144.7 54.0784 144.678L53.502 144.644C53.3934 144.634 53.26 144.616 53.1265 144.597C53.0765 144.579 52.993 144.578 52.9343 144.586C52.5002 144.546 52.0411 144.498 51.6069 144.458L50.7136 144.37C50.4129 144.349 50.121 144.303 49.829 144.257C49.7542 144.231 49.6955 144.238 49.612 144.237L49.4285 144.201C49.1366 144.155 48.8446 144.109 48.544 144.088C48.1934 144.049 47.8266 143.977 47.476 143.939C47.234 143.91 47.0007 143.857 46.7923 143.812C46.6838 143.802 46.559 143.758 46.4255 143.74C45.7418 143.613 45.0331 143.477 44.3494 143.35C43.8578 143.234 43.3912 143.127 42.9245 143.02C42.7411 142.984 42.5328 142.939 42.3581 142.878L41.3749 142.647C41.174 142.661 40.9494 142.582 40.7411 142.537C40.6413 142.503 40.5165 142.459 40.4079 142.449C37.9512 141.787 35.563 141.008 33.2521 140.089C31.1571 139.273 29.1555 138.349 27.3049 137.395C27.2301 137.368 27.1639 137.317 27.0891 137.291C26.948 137.214 26.807 137.137 26.666 137.059C26.525 136.982 26.384 136.905 26.243 136.827L26.0271 136.724C25.629 136.501 25.2397 136.253 24.8166 136.021C24.1864 135.661 23.5899 135.284 23.052 134.9C22.911 134.823 22.8037 134.73 22.6876 134.661C22.3731 134.439 22.0499 134.242 21.7354 134.02C21.5782 133.909 21.4209 133.798 21.2886 133.696C21.1813 133.603 21.0902 133.543 20.9829 133.449L20.8755 133.356C20.3464 132.947 19.8422 132.547 19.4378 132.181L19.4215 132.148C19.3142 132.054 19.2231 131.994 19.1407 131.91L18.8686 131.647C18.6789 131.468 18.5141 131.299 18.3743 131.138C18.0697 130.807 17.8313 130.528 17.659 130.3C17.2982 129.81 17.1783 129.432 17.3067 129.225C17.4351 129.017 17.8205 128.956 18.4381 129.032C18.73 129.078 19.0969 129.15 19.5049 129.265C19.7132 129.309 19.9129 129.379 20.1624 129.466L20.5118 129.588L20.8699 129.686C21.2692 129.825 21.7271 129.957 22.2012 130.123C22.326 130.166 22.4508 130.21 22.5756 130.254C22.7253 130.306 22.875 130.358 23.0497 130.419L23.0996 130.437C23.2494 130.489 23.3991 130.541 23.5488 130.594C23.8732 130.707 24.2226 130.829 24.572 130.951C24.8465 131.047 25.121 131.143 25.3955 131.239C25.8447 131.396 26.3189 131.562 26.818 131.736L26.9427 131.78C27.3171 131.91 27.6664 132.032 28.0495 132.138C28.2491 132.208 28.4737 132.287 28.6734 132.356C28.7982 132.4 28.9479 132.452 29.0727 132.496C29.1475 132.522 29.2473 132.557 29.3222 132.583C31.2612 133.205 33.2176 133.776 35.1666 134.289C37.4237 134.882 39.7069 135.4 41.9328 135.841C42.0413 135.851 42.1411 135.886 42.2746 135.905C42.458 135.941 42.6664 135.986 42.8498 136.022L43.7755 136.177C44.0425 136.214 44.3008 136.277 44.5678 136.314C44.9097 136.377 45.2852 136.425 45.652 136.497C46.0026 136.535 46.3444 136.599 46.695 136.637L47.5796 136.75C47.6881 136.76 47.8216 136.779 47.9302 136.789C48.1385 136.834 48.3307 136.845 48.5477 136.865L48.9819 136.904C49.174 136.915 49.3574 136.952 49.5495 136.963C49.8752 136.992 50.2258 137.031 50.5427 137.086C50.6263 137.087 50.7011 137.113 50.7847 137.114C51.0267 137.143 51.2937 137.18 51.5445 137.184C52.1209 137.217 52.7135 137.284 53.2899 137.317L53.5656 137.33C53.6242 137.322 53.6991 137.348 53.7577 137.341C53.8662 137.351 53.9748 137.361 54.0833 137.371L54.6098 137.387C54.9441 137.391 55.2697 137.421 55.6041 137.426C55.7713 137.428 55.9883 137.448 56.1555 137.451C56.3227 137.453 56.4811 137.481 56.6733 137.492C56.8903 137.512 57.1162 137.506 57.342 137.501C57.4755 137.52 57.5927 137.505 57.7262 137.524C57.977 137.527 58.2527 137.539 58.5371 137.527L58.9214 137.549L59.1721 137.553C59.3143 137.546 59.4728 137.574 59.615 137.567C59.7822 137.57 59.9244 137.564 60.0916 137.566C60.1751 137.567 60.2837 137.577 60.376 137.553C60.9112 137.544 61.4963 137.553 62.1487 137.529C62.2074 137.521 62.2573 137.539 62.3159 137.531C62.4244 137.541 62.5167 137.517 62.6253 137.527C62.7924 137.53 62.9434 137.498 63.1106 137.501L64.1722 137.508C67.8112 137.351 71.253 136.958 74.6896 136.338C74.8992 136.3 75.1337 136.269 75.3433 136.231C76.1566 136.067 76.9861 135.937 77.8418 135.732C78.1774 135.653 78.5379 135.583 78.8984 135.513L79.5021 135.388C80.0223 135.261 80.5511 135.11 81.105 134.968L81.1973 134.944C81.4742 134.873 81.7848 134.785 82.0617 134.714C82.1877 134.674 82.3386 134.643 82.4983 134.587L82.6829 134.539C82.7752 134.515 82.8426 134.483 82.9349 134.459C83.4637 134.308 84.0013 134.132 84.5302 133.98L84.6899 133.924C84.9331 133.869 85.1601 133.78 85.3871 133.692C85.4458 133.684 85.5131 133.652 85.5805 133.619L85.8324 133.539C86.0507 133.476 86.244 133.403 86.471 133.314C86.6307 133.258 86.7904 133.202 86.95 133.146C87.3953 132.993 87.8406 132.841 88.2946 132.664L89.0679 132.374C89.4209 132.245 89.7739 132.116 90.1356 131.963C90.2616 131.923 90.4212 131.867 90.5983 131.76L91.0611 131.558C91.3554 131.437 91.6835 131.299 91.9865 131.153C92.1549 131.072 92.3482 131 92.5416 130.927L92.9033 130.774C93.1053 130.676 93.3074 130.579 93.5344 130.49L94.0645 130.255C94.3002 130.142 94.5359 130.028 94.7966 129.923C94.965 129.842 95.0997 129.777 95.268 129.696L95.5125 129.557L95.7482 129.444C96.3631 129.126 97.0116 128.793 97.6352 128.451C97.7026 128.418 97.745 128.377 97.8036 128.37C97.9046 128.321 98.0057 128.272 98.1154 128.199L98.2164 128.15C98.3511 128.085 98.4609 128.011 98.5956 127.946C98.9074 127.775 99.2279 127.579 99.5397 127.408L99.7841 127.269C100.029 127.131 100.273 126.992 100.517 126.854L100.872 126.641C101.057 126.51 101.268 126.388 101.454 126.257L102.391 125.66C102.492 125.611 102.601 125.538 102.677 125.48L102.838 125.34C102.948 125.267 103.074 125.227 103.159 125.144C103.201 125.103 103.269 125.071 103.336 125.038L103.885 124.67C104.324 124.375 104.771 124.056 105.21 123.761L105.244 123.745C105.54 123.54 105.844 123.31 106.148 123.081L107.086 122.4C108.354 121.415 109.597 120.422 110.732 119.418C111.952 118.332 113.121 117.229 114.191 116.09C115.303 114.911 116.383 113.664 117.354 112.407C117.559 112.143 117.763 111.878 117.943 111.605C117.994 111.539 118.036 111.497 118.062 111.423C118.293 111.083 118.549 110.752 118.779 110.413C118.941 110.19 119.07 109.982 119.207 109.75C119.284 109.609 119.377 109.502 119.455 109.361L119.472 109.311C119.583 109.154 119.669 108.988 119.78 108.831C119.798 108.781 119.84 108.739 119.882 108.698C119.951 108.582 120.053 108.45 120.13 108.309C120.825 107.123 121.717 105.531 122.468 103.861C122.546 103.72 122.598 103.571 122.675 103.43C122.787 103.189 122.9 102.948 123.012 102.707L123.48 101.527C123.706 100.962 123.906 100.388 124.107 99.8136C124.185 99.589 124.273 99.3395 124.351 99.1149C124.447 98.8403 124.552 98.5409 124.623 98.2576C124.666 98.1329 124.685 97.9994 124.728 97.8746C124.789 97.6999 124.817 97.5415 124.878 97.3668C125.401 97.6335 125.924 97.9002 126.455 98.1419C127.759 98.7376 129.182 99.2346 130.623 99.5981ZM130.623 99.5981C129.898 99.4288 129.174 99.176 128.475 98.9318C127.228 98.4958 126.015 97.96 124.837 97.3243C124.899 97.0661 124.977 96.8415 125.04 96.5832L125.342 95.3168L125.538 94.517L125.62 94.0417L125.829 92.8826C127.311 93.8487 128.864 94.6151 130.436 95.1645C130.81 95.2953 131.184 95.4261 131.567 95.5319L131.523 95.7403L131.487 95.9237L131.317 96.6486C131.236 97.0404 131.155 97.4321 131.058 97.7902L130.987 98.0735L130.649 99.5233C130.64 99.5482 130.623 99.5981 130.623 99.5981ZM169.6 42.6242C169.65 42.6416 169.764 42.8773 169.841 43.2964C169.88 43.506 169.942 43.8079 170.005 44.1098L170.004 44.1934C170.066 44.4952 170.111 44.847 170.164 45.2574C170.208 45.6928 170.268 46.1618 170.302 46.7057C170.34 46.9989 170.352 47.2833 170.373 47.5428L170.386 47.8272C170.4 48.0281 170.405 48.2539 170.419 48.4547C170.409 48.5633 170.433 48.6556 170.448 48.7728C170.462 48.9737 170.467 49.1995 170.472 49.4253L170.456 50.5119C170.446 50.6204 170.461 50.7377 170.468 50.8799C170.473 51.1057 170.485 51.3902 170.482 51.6409L170.466 52.1674C170.471 52.3932 170.451 52.6103 170.456 52.8361C170.418 54.3069 170.293 56.0273 170.077 58.2481C170.039 58.5986 169.966 58.9654 169.928 59.316L169.863 59.7415C169.835 59.9835 169.806 60.2256 169.753 60.4589L169.735 60.5088L169.598 61.301C169.562 61.4844 169.526 61.6678 169.49 61.8513C169.427 62.1931 169.379 62.5687 169.316 62.9105C169.208 63.4607 169.1 64.0109 168.983 64.5861C168.446 67.0029 167.785 69.376 167.016 71.6557L166.362 73.5273C166.214 73.9515 166.041 74.3671 165.868 74.7826C165.798 74.9822 165.695 75.1981 165.625 75.3978C165.538 75.6473 165.425 75.8882 165.313 76.129C165.287 76.2039 165.261 76.2787 165.21 76.3449L165.166 76.4696C165.045 76.7354 164.916 77.0262 164.82 77.3007C164.759 77.4754 164.682 77.6164 164.621 77.7911C164.552 77.9071 164.508 78.0319 164.44 78.148L164.396 78.2727C164.37 78.3476 164.319 78.4137 164.293 78.4886C164.181 78.7294 164.06 78.9952 163.914 79.2523C162.579 81.9502 161.004 84.5359 159.188 86.9258C158.2 88.2325 157.154 89.4631 156.084 90.6015C154.929 91.8221 153.684 92.983 152.432 94.0016C151.061 95.1189 149.592 96.1177 148.159 96.9331C147.358 97.3814 146.567 97.8047 145.776 98.1444C144.918 98.5166 144.068 98.8639 143.22 99.1275C139.524 100.328 135.625 100.59 131.973 99.9018C131.522 99.8284 131.056 99.7214 130.623 99.5981C130.631 99.5732 130.64 99.5482 130.649 99.5233L131.029 98.1158L131.1 97.8326C131.18 97.4408 131.261 97.0491 131.358 96.691L131.564 95.7827L131.609 95.5743C132.017 95.6889 132.4 95.7947 132.816 95.8843C133.158 95.9478 133.5 96.0112 133.867 96.0834L134 96.102C134.159 96.1294 134.326 96.1318 134.485 96.1592C134.727 96.1877 134.944 96.2076 135.186 96.2362C135.294 96.2461 135.403 96.256 135.52 96.241L135.73 96.2022C135.755 96.2109 135.763 96.1859 135.813 96.2034C135.98 96.2058 136.164 96.2419 136.34 96.2194C136.457 96.2043 136.59 96.2229 136.708 96.2079C136.958 96.2115 137.243 96.1989 137.527 96.1863C139.067 96.1081 140.609 95.8628 142.137 95.4167C144.907 94.6206 147.653 93.172 150.316 91.1621C151.49 90.2845 152.625 89.2809 153.736 88.185C154.762 87.1714 155.765 86.0656 156.71 84.8837C158.48 82.7021 160.061 80.3421 161.401 77.8701C162.045 76.6671 162.639 75.4467 163.183 74.2925C163.286 74.0766 163.373 73.8271 163.477 73.6112C163.633 73.2456 163.788 72.88 163.969 72.5231L164.672 70.7524C165.505 68.6075 166.24 66.3441 166.884 64.0208C167.017 63.4793 167.175 62.9465 167.3 62.43C167.388 62.0969 167.452 61.755 167.531 61.4468C167.567 61.2634 167.612 61.0551 167.673 60.8804L167.851 60.1305L167.877 60.0556C167.931 59.8223 167.976 59.614 168.004 59.3719C168.095 58.8716 168.202 58.405 168.284 57.9296C168.659 55.7363 168.866 54.1006 169.029 52.6733L169.154 51.5131C169.183 51.271 169.203 51.054 169.198 50.8282C169.216 50.6947 169.21 50.5525 169.228 50.419C169.248 50.2019 169.268 49.9848 169.288 49.7677L169.31 49.3835C169.33 49.1664 169.341 48.9742 169.327 48.7734C169.337 48.6649 169.331 48.5226 169.341 48.4141C169.362 48.1134 169.358 47.8041 169.379 47.5034C169.4 47.2027 169.413 46.927 169.416 46.6762C169.432 46.1498 169.431 45.6732 169.47 45.239C169.483 44.9633 169.495 44.6876 169.49 44.4618C169.484 44.3196 169.493 44.2111 169.503 44.1026C169.508 43.7682 169.521 43.4925 169.54 43.2754C169.513 42.8737 169.516 42.6229 169.6 42.6242ZM116.743 62.546C116.768 62.5547 116.785 62.5883 116.785 62.5883C117.009 62.6668 117.266 62.8126 117.573 62.9759C117.83 63.1217 118.12 63.335 118.467 63.6242L118.937 64.0406L119.177 64.2363C119.268 64.2962 119.325 64.3723 119.408 64.4571C120.562 65.5605 121.614 66.8799 122.511 68.3977C123.36 69.8144 124.09 71.4134 124.651 73.0935C125.188 74.6814 125.614 76.4265 125.94 78.2203C125.977 78.5134 126.023 78.7816 126.061 79.0747C126.092 79.2257 126.099 79.3679 126.13 79.5189C126.174 79.9542 126.209 80.4145 126.278 80.8586L126.352 81.5285C126.358 81.6708 126.364 81.813 126.371 81.9552C126.369 82.0388 126.368 82.1223 126.376 82.181L126.44 83.5195C126.456 83.5532 126.439 83.6031 126.455 83.6368C126.463 83.6954 126.461 83.779 126.469 83.8377L126.48 84.2057L126.471 84.8744L126.486 85.5517C126.494 85.6104 126.476 85.6603 126.484 85.7189C126.481 85.8861 126.479 86.0532 126.476 86.2204C126.472 86.5548 126.442 86.8804 126.446 87.1898L126.441 87.5241C126.44 87.6077 126.439 87.6913 126.437 87.7749C126.444 87.9171 126.425 88.0506 126.431 88.1928L126.372 88.8441C126.341 89.2533 126.301 89.6874 126.27 90.0966L126.278 90.1553C126.24 90.4223 126.194 90.7142 126.157 90.9812C126.13 91.1396 126.102 91.2981 126.1 91.4653L125.957 92.1153C125.939 92.1652 125.931 92.1902 125.922 92.2151C125.921 92.2987 125.928 92.3573 125.927 92.4409L125.845 92.9163C125.232 92.5062 124.603 92.0624 124.008 91.6024C122.694 90.5551 121.482 89.3755 120.397 88.0724C119.353 86.8117 118.371 85.3763 117.515 83.8173C116.692 82.3257 115.972 80.7018 115.386 79.0129C114.816 77.3577 114.356 75.6289 114.022 73.86C113.991 73.7091 113.96 73.5582 113.945 73.4409C113.882 73.139 113.844 72.8459 113.782 72.544L113.758 72.4517C113.706 72.0413 113.628 71.6221 113.575 71.2117L113.501 70.5419L113.385 69.353L113.378 69.2108C113.365 69.0099 113.351 68.8091 113.362 68.617C113.357 67.831 113.41 67.0376 113.572 66.254C113.708 65.4618 113.936 64.7293 114.229 64.1316C114.488 63.5501 114.864 63.0372 115.202 62.7913C115.354 62.6764 115.488 62.6115 115.648 62.5553C115.816 62.4741 115.992 62.4515 116.184 62.4627C116.377 62.4738 116.544 62.4762 116.743 62.546Z" fill="#BFF747"/>
</svg>
