<svg width="181" height="181" viewBox="0 0 181 181" fill="none" xmlns="http://www.w3.org/2000/svg">
<path d="M92.257 15.7788L93.6875 0.0996094L104.253 1.06355L104.003 3.79669L96.7531 3.1352L96.4122 6.87124L103.119 7.48314L102.869 10.2163L96.1629 9.60438L95.8213 13.3481L103.102 14.0124L102.853 16.7455L92.257 15.7788Z" fill="#BFF747"/>
<path d="M111.238 6.62162L112.264 11.1701L115.478 7.75708L118.723 8.62607L113.891 13.4443L115.758 20.0563L112.528 19.1912L111.333 14.6455L108.065 17.9961L104.797 17.1212L109.711 12.3248L107.97 5.74666L111.238 6.62162Z" fill="#BFF747"/>
<path d="M121.61 22.9973C120.51 22.4947 119.67 21.8292 119.09 21.001C118.518 20.1702 118.21 19.2407 118.167 18.2125C118.129 17.1864 118.358 16.1303 118.854 15.0441C119.357 13.944 120.01 13.0759 120.813 12.44C121.623 11.8015 122.528 11.4292 123.529 11.323C124.532 11.2121 125.577 11.4048 126.663 11.9011C127.6 12.3292 128.343 12.8742 128.891 13.5361C129.439 14.198 129.778 14.9303 129.907 15.7331C130.036 16.5358 129.932 17.3617 129.595 18.2106L126.784 16.9263C126.95 16.354 126.937 15.827 126.746 15.3452C126.561 14.8608 126.197 14.4941 125.651 14.2449C125.19 14.034 124.729 13.9757 124.269 14.0698C123.816 14.1614 123.385 14.4012 122.977 14.7894C122.568 15.1775 122.21 15.7096 121.901 16.3855C121.588 17.0708 121.415 17.6961 121.382 18.2614C121.354 18.8289 121.454 19.3173 121.684 19.7266C121.914 20.1359 122.26 20.446 122.722 20.6569C123.062 20.8124 123.399 20.8819 123.733 20.8656C124.072 20.8514 124.391 20.752 124.69 20.5672C124.995 20.3799 125.262 20.1102 125.49 19.7582L128.301 21.0425C127.88 21.8416 127.326 22.4619 126.64 22.9034C125.96 23.3424 125.191 23.5769 124.332 23.6071C123.473 23.6372 122.566 23.4339 121.61 22.9973Z" fill="#BFF747"/>
<path d="M132.713 29.3824C131.713 28.6927 130.992 27.8966 130.55 26.9941C130.115 26.0902 129.96 25.131 130.087 24.1165C130.217 23.0978 130.636 22.0759 131.343 21.0507C132.032 20.0508 132.832 19.3071 133.741 18.8196C134.65 18.3321 135.602 18.1203 136.597 18.1844C137.597 18.2513 138.574 18.6136 139.527 19.2712C140.169 19.7135 140.694 20.2285 141.104 20.8165C141.522 21.4031 141.796 22.0436 141.927 22.7379C142.062 23.4353 142.032 24.174 141.837 24.9543C141.644 25.7303 141.262 26.5317 140.692 27.3587L140.181 28.0991L131.973 22.4382L133.126 20.7675L138.796 24.6782C139.064 24.29 139.216 23.888 139.254 23.472C139.292 23.0561 139.219 22.6604 139.036 22.2851C138.86 21.9084 138.576 21.5848 138.184 21.3142C137.774 21.0319 137.346 20.8766 136.899 20.8483C136.458 20.8186 136.041 20.9008 135.645 21.095C135.253 21.285 134.922 21.5706 134.653 21.9516L133.557 23.54C133.226 24.021 133.028 24.4977 132.963 24.97C132.903 25.4453 132.972 25.8914 133.17 26.3082C133.369 26.725 133.693 27.0891 134.145 27.4004C134.444 27.607 134.748 27.754 135.055 27.8413C135.362 27.9286 135.662 27.9489 135.956 27.9024C136.249 27.8558 136.527 27.7422 136.789 27.5615L139.169 29.4457C138.629 29.9575 138.008 30.3018 137.308 30.4784C136.614 30.6537 135.873 30.6534 135.086 30.4775C134.305 30.3002 133.514 29.9352 132.713 29.3824Z" fill="#BFF747"/>
<path d="M151.764 24.2603L141.283 36.0085L138.839 33.8283L149.32 22.0801L151.764 24.2603Z" fill="#BFF747"/>
<path d="M156.411 28.9211L145.1 39.8731L142.822 37.5204L154.133 26.5684L156.411 28.9211Z" fill="#BFF747"/>
<path d="M149.8 45.9435C149.07 44.9727 148.638 43.9893 148.504 42.9931C148.378 41.998 148.536 41.0394 148.977 40.1173C149.423 39.1922 150.143 38.3554 151.139 37.6069C152.11 36.8768 153.103 36.4245 154.12 36.25C155.136 36.0755 156.107 36.1762 157.031 36.5522C157.958 36.9324 158.77 37.5853 159.466 38.511C159.934 39.1336 160.269 39.7887 160.472 40.4762C160.682 41.1648 160.739 41.8591 160.644 42.5594C160.552 43.2637 160.289 43.9549 159.856 44.6329C159.428 45.308 158.812 45.9473 158.009 46.5511L157.29 47.0917L151.298 39.1227L152.92 37.9029L157.06 43.408C157.436 43.1247 157.709 42.7917 157.876 42.4091C158.044 42.0266 158.1 41.6283 158.045 41.2143C157.998 40.8012 157.831 40.4043 157.544 40.0233C157.245 39.626 156.888 39.343 156.473 39.1744C156.065 39.0069 155.642 38.9526 155.206 39.0116C154.773 39.0675 154.369 39.2335 153.993 39.5097L152.451 40.6695C151.984 41.0206 151.645 41.4101 151.435 41.8378C151.227 42.2696 151.152 42.7145 151.207 43.1726C151.263 43.6307 151.456 44.0789 151.786 44.5172C152.004 44.808 152.246 45.0435 152.509 45.2236C152.773 45.4036 153.051 45.5181 153.345 45.5669C153.638 45.6157 153.937 45.5959 154.242 45.5073L155.903 48.0483C155.229 48.3628 154.532 48.4928 153.811 48.4384C153.098 48.385 152.395 48.1501 151.704 47.7338C151.02 47.3186 150.385 46.7218 149.8 45.9435Z" fill="#BFF747"/>
<path d="M161.975 51.9783L155.879 55.0516L154.405 52.1273L164.949 46.8114L166.354 49.5984L164.493 50.5363L164.556 50.6599C165.287 50.5841 165.969 50.7308 166.603 51.1C167.241 51.4669 167.758 52.0416 168.152 52.8242C168.521 53.5564 168.683 54.2756 168.637 54.9817C168.592 55.6878 168.347 56.3418 167.905 56.9438C167.467 57.5434 166.838 58.0498 166.019 58.4628L159.305 61.8475L157.831 58.9232L164.023 55.8015C164.67 55.4808 165.091 55.0622 165.284 54.5459C165.481 54.0272 165.433 53.475 165.137 52.8892C164.939 52.4957 164.679 52.1905 164.357 51.9739C164.038 51.7618 163.673 51.653 163.263 51.6474C162.859 51.6442 162.43 51.7545 161.975 51.9783Z" fill="#BFF747"/>
<path d="M161.407 69.2615C161.061 68.1025 161.01 67.0323 161.252 66.0509C161.5 65.0729 161.997 64.2293 162.743 63.5202C163.49 62.8159 164.436 62.2931 165.58 61.9518C166.739 61.6061 167.823 61.5263 168.83 61.7124C169.844 61.9021 170.72 62.3386 171.459 63.0221C172.203 63.7042 172.745 64.6173 173.087 65.7617C173.381 66.7488 173.46 67.6667 173.322 68.5152C173.185 69.3638 172.857 70.1008 172.337 70.7264C171.818 71.3519 171.128 71.8172 170.267 72.1222L169.383 69.1607C169.923 68.9087 170.312 68.5522 170.548 68.0911C170.792 67.6335 170.828 67.1174 170.656 66.5428C170.511 66.0566 170.252 65.6713 169.878 65.387C169.511 65.1061 169.047 64.9397 168.486 64.8878C167.925 64.8358 167.288 64.9161 166.576 65.1285C165.854 65.3438 165.27 65.6252 164.822 65.9725C164.376 66.3248 164.075 66.7222 163.918 67.1647C163.762 67.6073 163.756 68.0716 163.901 68.5578C164.008 68.9164 164.177 69.2161 164.41 69.457C164.643 69.7028 164.928 69.8773 165.264 69.9804C165.606 70.087 165.984 70.1104 166.4 70.0507L167.283 73.0121C166.404 73.2209 165.573 73.2122 164.788 72.9861C164.011 72.7635 163.328 72.3388 162.74 71.712C162.152 71.0852 161.707 70.2684 161.407 69.2615Z" fill="#BFF747"/>
<path d="M163.907 81.8088C163.769 80.6021 163.894 79.5353 164.282 78.6085C164.677 77.6862 165.298 76.9391 166.145 76.3671C166.998 75.7946 168.043 75.4372 169.28 75.2951C170.487 75.1565 171.572 75.2691 172.538 75.6328C173.503 75.9965 174.289 76.5743 174.896 77.3661C175.503 78.163 175.873 79.1368 176.005 80.2875C176.094 81.0614 176.052 81.7962 175.879 82.4919C175.712 83.1921 175.41 83.82 174.974 84.3757C174.538 84.9365 173.961 85.3999 173.245 85.7659C172.534 86.1314 171.679 86.3714 170.681 86.486L169.788 86.5887L168.65 76.683L170.666 76.4514L171.452 83.2945C171.921 83.2407 172.324 83.0912 172.662 82.846C173 82.6008 173.25 82.2857 173.412 81.9008C173.58 81.5204 173.637 81.0935 173.583 80.62C173.526 80.1261 173.361 79.7014 173.088 79.3458C172.821 78.9948 172.484 78.7343 172.077 78.5643C171.676 78.3937 171.243 78.3325 170.78 78.3806L168.863 78.6008C168.282 78.6675 167.793 78.832 167.395 79.0944C166.997 79.3619 166.707 79.7074 166.523 80.1309C166.34 80.5543 166.279 81.0385 166.342 81.5833C166.384 81.9448 166.472 82.2699 166.609 82.5586C166.745 82.8473 166.927 83.0869 167.156 83.2773C167.384 83.4678 167.652 83.602 167.96 83.6801L168.107 86.7121C167.367 86.6424 166.699 86.4018 166.105 85.9903C165.517 85.5832 165.03 85.0253 164.644 84.3164C164.264 83.6121 164.018 82.7762 163.907 81.8088Z" fill="#BFF747"/>
<path d="M174.308 106.185C174.931 106.221 175.448 106.035 175.859 105.627C176.271 105.22 176.539 104.621 176.663 103.831C176.747 103.295 176.742 102.829 176.648 102.436C176.56 102.043 176.399 101.728 176.167 101.489C175.934 101.255 175.65 101.112 175.316 101.059C175.039 101.006 174.787 101.026 174.559 101.12C174.331 101.219 174.123 101.37 173.936 101.574C173.753 101.779 173.582 102.022 173.424 102.303C173.271 102.585 173.13 102.89 173 103.217L172.447 104.562C172.188 105.216 171.888 105.807 171.546 106.335C171.204 106.862 170.815 107.304 170.38 107.661C169.945 108.018 169.459 108.272 168.922 108.421C168.385 108.575 167.791 108.603 167.142 108.507C166.191 108.352 165.404 107.98 164.781 107.389C164.162 106.804 163.731 106.031 163.488 105.069C163.249 104.113 163.229 103.002 163.428 101.737C163.625 100.481 163.989 99.4176 164.52 98.5465C165.051 97.6804 165.734 97.0458 166.57 96.6429C167.411 96.2457 168.393 96.1224 169.516 96.2729L169.016 99.4549C168.489 99.4085 168.03 99.4894 167.639 99.6978C167.253 99.9121 166.936 100.228 166.689 100.646C166.446 101.069 166.28 101.565 166.191 102.132C166.103 102.689 166.108 103.185 166.206 103.62C166.303 104.061 166.477 104.418 166.73 104.691C166.983 104.964 167.297 105.13 167.671 105.189C168.021 105.244 168.331 105.186 168.601 105.016C168.871 104.851 169.12 104.584 169.35 104.215C169.578 103.852 169.805 103.397 170.031 102.852L170.722 101.225C171.247 99.9637 171.908 99.0066 172.706 98.3538C173.504 97.7009 174.477 97.4673 175.625 97.6529C176.568 97.7957 177.351 98.1756 177.976 98.7924C178.599 99.4144 179.038 100.202 179.293 101.155C179.548 102.108 179.586 103.152 179.408 104.286C179.227 105.44 178.871 106.417 178.341 107.215C177.81 108.019 177.155 108.606 176.376 108.977C175.596 109.347 174.742 109.467 173.813 109.337L174.308 106.185Z" fill="#BFF747"/>
<path d="M159.966 115.044C160.37 113.921 160.958 113.035 161.731 112.386C162.506 111.745 163.403 111.356 164.421 111.221C165.443 111.088 166.524 111.225 167.662 111.635C168.81 112.047 169.733 112.63 170.432 113.382C171.136 114.136 171.58 115.006 171.765 115.993C171.952 116.986 171.844 118.045 171.44 119.168C171.036 120.292 170.447 121.175 169.672 121.817C168.899 122.465 168.002 122.856 166.979 122.989C165.961 123.124 164.878 122.986 163.73 122.573C162.592 122.164 161.671 121.582 160.967 120.828C160.268 120.076 159.825 119.203 159.637 118.21C159.453 117.223 159.563 116.168 159.966 115.044ZM162.349 115.917C162.165 116.428 162.156 116.907 162.322 117.353C162.494 117.802 162.801 118.204 163.245 118.559C163.687 118.92 164.232 119.216 164.878 119.448C165.524 119.681 166.133 119.799 166.703 119.802C167.272 119.811 167.765 119.696 168.182 119.46C168.6 119.223 168.9 118.849 169.084 118.338C169.269 117.822 169.278 117.335 169.111 116.877C168.941 116.424 168.636 116.017 168.193 115.657C167.749 115.301 167.204 115.007 166.558 114.775C165.912 114.543 165.304 114.422 164.735 114.414C164.165 114.41 163.67 114.529 163.251 114.771C162.835 115.019 162.534 115.401 162.349 115.917Z" fill="#BFF747"/>
<path d="M164.55 133.651L162.377 132.498L165.791 126.06L167.964 127.212L164.55 133.651ZM156.751 123.154L167.937 129.086C168.693 129.487 169.242 129.967 169.584 130.525C169.923 131.088 170.081 131.694 170.056 132.342C170.031 132.99 169.845 133.643 169.497 134.299C169.262 134.743 169.013 135.13 168.75 135.461C168.485 135.796 168.278 136.04 168.127 136.192L166.228 134.523C166.324 134.429 166.433 134.307 166.553 134.156C166.671 134.01 166.776 133.851 166.867 133.679C167.093 133.253 167.151 132.904 167.04 132.631C166.934 132.36 166.705 132.131 166.352 131.944L155.22 126.04L156.751 123.154Z" fill="#BFF747"/>
<path d="M159.739 140.882L157.695 139.513L161.653 133.605L163.696 134.974L159.739 140.882ZM165.148 137.89L163.326 140.611L154.18 134.484C153.928 134.316 153.707 134.223 153.515 134.206C153.327 134.191 153.16 134.233 153.014 134.332C152.864 134.436 152.728 134.579 152.605 134.762C152.52 134.89 152.445 135.025 152.381 135.167C152.321 135.312 152.274 135.422 152.241 135.499L149.93 134.571C149.979 134.406 150.058 134.181 150.168 133.897C150.274 133.611 150.439 133.286 150.663 132.924C151.076 132.251 151.549 131.735 152.08 131.375C152.608 131.019 153.174 130.847 153.778 130.856C154.382 130.866 155.004 131.089 155.644 131.524L165.148 137.89Z" fill="#BFF747"/>
<path d="M147.571 137.445L158.312 143.309L156.017 145.698L149.028 141.521L148.954 141.598L153.354 148.47L151.101 150.815L144.071 146.747L144.002 146.819L148.443 153.581L146.153 155.965L139.859 145.472L142.261 142.972L149.022 146.653L149.123 146.548L145.174 139.939L147.571 137.445Z" fill="#BFF747"/>
<path d="M133.164 150.211C133.787 149.787 134.416 149.518 135.05 149.402C135.687 149.291 136.293 149.353 136.868 149.588C137.442 149.83 137.948 150.273 138.386 150.918C138.755 151.46 138.965 151.983 139.017 152.488C139.068 152.992 138.999 153.473 138.808 153.931C138.618 154.389 138.343 154.824 137.984 155.235C137.621 155.649 137.214 156.044 136.763 156.419C136.235 156.864 135.815 157.231 135.502 157.518C135.192 157.809 134.994 158.061 134.91 158.274C134.825 158.486 134.853 158.696 134.994 158.904L135.02 158.942C135.294 159.345 135.633 159.57 136.037 159.617C136.437 159.668 136.868 159.536 137.33 159.222C137.817 158.89 138.132 158.519 138.273 158.106C138.417 157.699 138.426 157.302 138.3 156.916L140.943 155.417C141.22 156.096 141.318 156.779 141.239 157.465C141.163 158.155 140.91 158.817 140.479 159.451C140.047 160.092 139.441 160.677 138.662 161.207C138.119 161.576 137.557 161.866 136.974 162.076C136.388 162.289 135.811 162.393 135.244 162.388C134.672 162.386 134.132 162.252 133.622 161.985C133.115 161.722 132.664 161.301 132.269 160.72L127.79 154.134L130.359 152.388L131.279 153.742L131.356 153.69C131.305 153.278 131.332 152.867 131.436 152.455C131.543 152.047 131.737 151.652 132.016 151.27C132.298 150.892 132.681 150.539 133.164 150.211ZM133.659 152.607C133.261 152.878 132.963 153.196 132.764 153.56C132.568 153.928 132.476 154.307 132.487 154.697C132.497 155.086 132.619 155.453 132.853 155.796L133.557 156.832C133.605 156.719 133.687 156.589 133.803 156.442C133.919 156.301 134.054 156.15 134.211 155.988C134.37 155.83 134.53 155.674 134.692 155.521C134.857 155.372 135.007 155.236 135.141 155.114C135.427 154.851 135.654 154.588 135.822 154.325C135.99 154.062 136.081 153.799 136.094 153.536C136.11 153.277 136.032 153.02 135.859 152.766C135.608 152.397 135.283 152.206 134.884 152.193C134.483 152.187 134.075 152.325 133.659 152.607Z" fill="#BFF747"/>
<path d="M125.538 155.235L130.753 165.829L127.905 167.231L126.995 165.383L126.885 165.437C127.015 166.19 126.935 166.846 126.646 167.406C126.358 167.97 125.917 168.398 125.324 168.69C125.177 168.763 125.014 168.832 124.835 168.897C124.656 168.962 124.494 169.011 124.349 169.042L123.066 166.435C123.224 166.408 123.433 166.351 123.692 166.263C123.952 166.175 124.183 166.082 124.385 165.982C124.817 165.769 125.157 165.485 125.405 165.129C125.65 164.78 125.79 164.391 125.824 163.963C125.854 163.536 125.763 163.107 125.55 162.675L122.599 156.682L125.538 155.235Z" fill="#BFF747"/>
<path d="M113.008 160.248C114.164 159.873 115.234 159.784 116.219 159.982C117.202 160.186 118.057 160.646 118.785 161.364C119.516 162.086 120.073 163.039 120.457 164.224C120.832 165.379 120.937 166.466 120.772 167.484C120.606 168.502 120.196 169.387 119.54 170.139C118.879 170.892 117.998 171.447 116.896 171.805C116.155 172.045 115.427 172.15 114.711 172.118C113.991 172.093 113.316 171.922 112.685 171.604C112.049 171.288 111.48 170.815 110.98 170.185C110.48 169.56 110.076 168.77 109.766 167.815L109.488 166.959L118.972 163.881L119.599 165.812L113.047 167.938C113.192 168.387 113.419 168.752 113.726 169.035C114.033 169.318 114.392 169.501 114.801 169.583C115.207 169.672 115.637 169.643 116.09 169.496C116.563 169.343 116.947 169.097 117.241 168.759C117.532 168.428 117.721 168.046 117.807 167.614C117.895 167.187 117.869 166.75 117.73 166.305L117.134 164.47C116.954 163.914 116.696 163.467 116.36 163.129C116.019 162.792 115.623 162.576 115.171 162.48C114.72 162.384 114.233 162.421 113.712 162.59C113.366 162.702 113.065 162.854 112.809 163.045C112.553 163.236 112.354 163.462 112.212 163.723C112.071 163.985 111.992 164.274 111.977 164.592L109.034 165.336C108.956 164.597 109.06 163.895 109.345 163.231C109.628 162.574 110.078 161.986 110.696 161.467C111.311 160.955 112.082 160.549 113.008 160.248Z" fill="#BFF747"/>
<path d="M91.2823 175.217C91.37 175.834 91.6541 176.304 92.1346 176.627C92.6151 176.95 93.2548 177.095 94.0536 177.061C94.5964 177.038 95.0514 176.942 95.4187 176.772C95.7862 176.608 96.0641 176.389 96.2525 176.114C96.4358 175.839 96.5203 175.533 96.506 175.195C96.5043 174.913 96.435 174.67 96.298 174.465C96.156 174.261 95.9665 174.087 95.7296 173.943C95.4929 173.804 95.2211 173.685 94.9142 173.585C94.6075 173.491 94.281 173.412 93.9347 173.35L92.5071 173.072C91.8144 172.947 91.1759 172.769 90.5916 172.537C90.0072 172.306 89.4972 172.012 89.0615 171.656C88.6257 171.3 88.2819 170.873 88.03 170.376C87.773 169.879 87.628 169.303 87.5951 168.648C87.5594 167.685 87.7698 166.84 88.2263 166.113C88.6778 165.391 89.3511 164.816 90.246 164.388C91.1361 163.966 92.2212 163.727 93.5013 163.673C94.7712 163.619 95.8855 163.767 96.8441 164.116C97.7977 164.465 98.5543 165.01 99.1141 165.751C99.6689 166.497 99.9832 167.435 100.057 168.566L96.8385 168.702C96.7803 168.176 96.6106 167.742 96.3293 167.4C96.0432 167.064 95.671 166.815 95.2128 166.655C94.7497 166.5 94.2314 166.435 93.6579 166.459C93.0947 166.483 92.6091 166.586 92.2013 166.767C91.7884 166.949 91.4729 167.191 91.2549 167.492C91.0368 167.794 90.9358 168.134 90.9519 168.513C90.9669 168.867 91.0844 169.159 91.3046 169.391C91.5196 169.623 91.8304 169.815 92.2369 169.967C92.6384 170.119 93.1288 170.252 93.7081 170.366L95.4392 170.724C96.7791 170.99 97.8476 171.45 98.6448 172.104C99.4419 172.757 99.8626 173.665 99.9068 174.828C99.9523 175.78 99.7341 176.623 99.2522 177.356C98.7652 178.09 98.0796 178.676 97.1953 179.113C96.311 179.551 95.2954 179.794 94.1484 179.843C92.981 179.892 91.9535 179.736 91.0661 179.373C90.1736 179.011 89.469 178.484 88.9524 177.793C88.4357 177.102 88.1499 176.288 88.0948 175.352L91.2823 175.217Z" fill="#BFF747"/>
<path d="M79.6476 162.917C80.8291 163.09 81.8142 163.49 82.6028 164.118C83.3856 164.751 83.9443 165.553 84.2787 166.523C84.6124 167.499 84.6917 168.586 84.5166 169.783C84.34 170.99 83.9524 172.01 83.3538 172.845C82.7544 173.684 81.9895 174.292 81.059 174.669C80.1227 175.05 79.0638 175.154 77.8822 174.981C76.7006 174.808 75.7185 174.405 74.9356 173.773C74.147 173.144 73.5859 172.342 73.2522 171.366C72.9177 170.395 72.8388 169.307 73.0154 168.1C73.1905 166.903 73.5778 165.885 74.1771 165.045C74.7758 164.211 75.5432 163.603 76.4795 163.222C77.41 162.846 78.466 162.744 79.6476 162.917ZM79.265 165.425C78.7275 165.346 78.2564 165.432 77.8519 165.684C77.4466 165.941 77.1137 166.322 76.8532 166.828C76.5876 167.333 76.4052 167.925 76.3057 168.604C76.2063 169.284 76.2114 169.904 76.3211 170.464C76.4258 171.023 76.6355 171.483 76.9503 171.845C77.2651 172.207 77.6912 172.428 78.2287 172.506C78.7714 172.586 79.2504 172.498 79.6658 172.243C80.0762 171.987 80.4142 171.606 80.6797 171.101C80.9402 170.596 81.1202 170.003 81.2196 169.323C81.319 168.644 81.3164 168.025 81.2118 167.465C81.1021 166.905 80.8873 166.444 80.5674 166.081C80.2418 165.723 79.8076 165.504 79.265 165.425Z" fill="#BFF747"/>
<path d="M64.4015 175.836L68.6539 160.677L71.8071 161.562L67.5547 176.721L64.4015 175.836Z" fill="#BFF747"/>
<path d="M57.5053 161.791L54.8625 168.035L51.8466 166.758L56.4491 155.884L59.3447 157.11L58.5087 159.085L58.6219 159.133C59.137 158.599 59.762 158.26 60.4969 158.115C61.2271 157.968 62.0004 158.067 62.817 158.412C63.5438 158.72 64.1134 159.156 64.5258 159.72C64.9382 160.284 65.1713 160.936 65.2251 161.677C65.2742 162.416 65.1213 163.211 64.7664 164.062L61.8359 170.986L58.82 169.71L61.5228 163.324C61.7897 162.68 61.8322 162.1 61.6502 161.583C61.4682 161.066 61.0916 160.687 60.5206 160.446C60.1571 160.292 59.7824 160.231 59.3962 160.262C59.0081 160.298 58.6473 160.44 58.314 160.689C57.9759 160.935 57.7064 161.302 57.5053 161.791Z" fill="#BFF747"/>
<path d="M42.9985 161.494L44.2642 159.384L50.3619 163.043L49.0962 165.152L42.9985 161.494ZM46.2563 166.748L43.4481 165.063L49.1121 155.623C49.2677 155.363 49.3494 155.138 49.3573 154.945C49.3626 154.757 49.3121 154.592 49.2057 154.451C49.095 154.307 48.9451 154.178 48.7561 154.064C48.6243 153.985 48.4859 153.917 48.3408 153.86C48.1932 153.807 48.0802 153.766 48.002 153.737L48.8142 151.383C48.9812 151.423 49.2093 151.491 49.4984 151.587C49.7903 151.678 50.1225 151.827 50.4952 152.033C51.1878 152.412 51.727 152.858 52.1128 153.371C52.4943 153.881 52.6951 154.438 52.7153 155.041C52.7356 155.645 52.5444 156.278 52.1418 156.939L46.2563 166.748Z" fill="#BFF747"/>
<path d="M48.2852 150.702L41.3609 160.267L38.7081 158.346L45.6325 148.782L48.2852 150.702ZM39.1357 160.535C39.5301 160.821 39.7738 161.196 39.8667 161.662C39.9525 162.129 39.8617 162.548 39.5942 162.917C39.3298 163.282 38.9638 163.495 38.4963 163.555C38.0217 163.617 37.5871 163.505 37.1928 163.219C36.7984 162.934 36.5583 162.557 36.4725 162.09C36.3795 161.624 36.4653 161.209 36.7297 160.843C36.9972 160.474 37.3683 160.258 37.8429 160.197C38.3104 160.137 38.7413 160.25 39.1357 160.535Z" fill="#BFF747"/>
<path d="M39.9805 143.648C40.8513 144.465 41.4307 145.357 41.7188 146.323C41.9997 147.289 41.9999 148.266 41.7195 149.254C41.4355 150.246 40.8797 151.183 40.052 152.065C39.2173 152.954 38.3159 153.57 37.3478 153.913C36.3762 154.259 35.401 154.321 34.4222 154.098C33.4362 153.876 32.5078 153.356 31.637 152.539C30.7663 151.721 30.1905 150.83 29.9096 149.863C29.6215 148.897 29.6194 147.918 29.9033 146.926C30.1838 145.939 30.7414 145 31.5761 144.11C32.4037 143.228 33.3034 142.614 34.275 142.268C35.2431 141.925 36.2201 141.865 37.2062 142.088C38.185 142.311 39.1097 142.831 39.9805 143.648ZM38.2333 145.487C37.8371 145.115 37.4012 144.917 36.9254 144.892C36.4461 144.871 35.9551 144.994 35.4523 145.26C34.9458 145.523 34.4575 145.904 33.9876 146.405C33.5176 146.906 33.1677 147.417 32.9377 147.94C32.704 148.458 32.6128 148.956 32.6642 149.433C32.7156 149.91 32.9394 150.334 33.3355 150.706C33.7354 151.081 34.1787 151.283 34.6655 151.311C35.1485 151.336 35.6433 151.217 36.1498 150.954C36.6526 150.688 37.139 150.304 37.6089 149.804C38.0789 149.303 38.4307 148.793 38.6644 148.274C38.8944 147.752 38.9818 147.251 38.9267 146.77C38.8643 146.29 38.6331 145.862 38.2333 145.487Z" fill="#BFF747"/>
<path d="M26.6606 139.483L32.1455 135.419L34.0953 138.05L24.6079 145.08L22.7497 142.573L24.4235 141.332L24.3411 141.221C23.6338 141.42 22.9364 141.391 22.249 141.135C21.5576 140.882 20.951 140.403 20.4292 139.699C19.941 139.041 19.6594 138.359 19.5846 137.656C19.5097 136.952 19.6392 136.266 19.9732 135.598C20.303 134.932 20.8364 134.326 21.5735 133.78L27.6143 129.304L29.5641 131.935L23.9927 136.064C23.4091 136.49 23.0659 136.974 22.9634 137.515C22.8567 138.06 22.9987 138.596 23.3892 139.123C23.6516 139.477 23.9597 139.734 24.3135 139.892C24.6642 140.047 25.0421 140.092 25.4474 140.028C25.8455 139.963 26.2499 139.781 26.6606 139.483Z" fill="#BFF747"/>
<path d="M14.5109 122.279L16.0287 124.871C15.8232 125.032 15.6671 125.235 15.5605 125.478C15.4493 125.724 15.4013 125.998 15.4164 126.301C15.4247 126.601 15.5144 126.92 15.6856 127.259C15.9146 127.711 16.2037 128.045 16.5531 128.258C16.8979 128.475 17.2281 128.503 17.5437 128.343C17.7952 128.216 17.957 128.008 18.029 127.719C18.101 127.43 18.0659 127.014 17.9236 126.471L17.3432 124.37C17.0354 123.239 16.9876 122.304 17.1996 121.565C17.4117 120.826 17.8973 120.265 18.6565 119.881C19.3471 119.531 20.056 119.428 20.7832 119.572C21.5081 119.71 22.1951 120.058 22.844 120.614C23.486 121.168 24.0383 121.903 24.5009 122.817C25.2064 124.212 25.4781 125.47 25.3159 126.592C25.1469 127.711 24.5951 128.596 23.6607 129.247L22.056 126.449C22.4374 126.147 22.6557 125.772 22.7109 125.325C22.7616 124.88 22.6551 124.397 22.3914 123.876C22.1323 123.363 21.8258 123.001 21.4719 122.79C21.111 122.576 20.7717 122.547 20.4538 122.702C20.1909 122.841 20.0303 123.062 19.9721 123.368C19.9093 123.675 19.9479 124.08 20.0877 124.584L20.647 126.593C20.9617 127.726 20.9924 128.672 20.7392 129.432C20.4837 130.187 19.9626 130.764 19.176 131.162C18.4991 131.504 17.8235 131.616 17.1491 131.498C16.4723 131.375 15.8325 131.047 15.2295 130.513C14.6242 129.975 14.0938 129.255 13.6381 128.354C12.965 127.023 12.7166 125.834 12.8928 124.786C13.0667 123.733 13.6061 122.897 14.5109 122.279Z" fill="#BFF747"/>
<path d="M6.51165 104.344C5.91675 104.529 5.49829 104.885 5.25627 105.411C5.01425 105.937 4.97405 106.592 5.13566 107.375C5.24547 107.907 5.41348 108.341 5.63969 108.676C5.86087 109.013 6.12217 109.252 6.42358 109.394C6.72395 109.53 7.03977 109.565 7.37104 109.496C7.64917 109.449 7.87819 109.342 8.05808 109.174C8.23693 109.001 8.37834 108.786 8.4823 108.529C8.58124 108.273 8.65536 107.986 8.70466 107.667C8.74895 107.349 8.77403 107.014 8.77991 106.662L8.82525 105.208C8.83701 104.505 8.91036 103.846 9.04529 103.232C9.18023 102.618 9.38842 102.067 9.66988 101.58C9.95134 101.093 10.3172 100.685 10.7675 100.357C11.2168 100.023 11.7621 99.7878 12.4035 99.6502C13.3482 99.4605 14.2161 99.5325 15.0072 99.8664C15.7922 100.196 16.4676 100.769 17.0335 101.583C17.5933 102.394 18.0027 103.427 18.2617 104.682C18.5186 105.926 18.5517 107.05 18.3608 108.052C18.1689 109.049 17.7524 109.884 17.1112 110.555C16.464 111.222 15.5884 111.683 14.4843 111.937L13.8332 108.783C14.3429 108.641 14.744 108.404 15.0365 108.071C15.3229 107.735 15.5083 107.327 15.5928 106.849C15.6713 106.368 15.6525 105.845 15.5365 105.283C15.4225 104.731 15.2433 104.268 14.9987 103.895C14.7532 103.517 14.464 103.244 14.1313 103.077C13.7986 102.91 13.4465 102.865 13.0751 102.942C12.7288 103.013 12.4589 103.176 12.2654 103.431C12.071 103.68 11.9313 104.018 11.8465 104.444C11.7606 104.864 11.708 105.37 11.6885 105.96L11.6134 107.726C11.5655 109.091 11.2829 110.22 10.7657 111.111C10.2486 112.003 9.41976 112.564 8.27934 112.794C7.34679 112.992 6.47987 112.912 5.67859 112.554C4.87628 112.191 4.1882 111.608 3.61437 110.805C3.04053 110.003 2.63758 109.039 2.40552 107.915C2.16932 106.771 2.15891 105.731 2.3743 104.797C2.58866 103.858 2.99546 103.078 3.59473 102.457C4.19399 101.837 4.95133 101.424 5.86676 101.219L6.51165 104.344Z" fill="#BFF747"/>
<path d="M16.8439 96.5355L5.06492 97.3655L4.83472 94.0987L16.6137 93.2687L16.8439 96.5355ZM3.43089 95.8314C3.46512 96.3171 3.33343 96.7451 3.03585 97.1155C2.73279 97.4811 2.35376 97.6799 1.89875 97.7119C1.44886 97.7436 1.05081 97.5996 0.704588 97.2797C0.352897 96.9552 0.15994 96.55 0.125717 96.0643C0.0914947 95.5787 0.225913 95.153 0.528972 94.7874C0.826557 94.4171 1.2003 94.2161 1.65019 94.1844C2.10519 94.1523 2.50854 94.2986 2.86023 94.6232C3.20645 94.943 3.39667 95.3458 3.43089 95.8314Z" fill="#BFF747"/>
<path d="M9.76323 87.1769L16.5792 87.5579L16.3964 90.8277L4.60664 90.1687L4.78083 87.0524L6.86093 87.1687L6.86865 87.0305C6.19755 86.7312 5.67959 86.2634 5.31478 85.627C4.94486 84.9904 4.78435 84.2346 4.83326 83.3595C4.87902 82.5408 5.09802 81.837 5.49026 81.2481C5.88249 80.6591 6.42066 80.2144 7.10476 79.9139C7.78374 79.613 8.58122 79.4882 9.49718 79.5394L17.004 79.959L16.8212 83.2289L9.89775 82.8419C9.17653 82.7964 8.60335 82.9492 8.17822 83.3001C7.74797 83.6508 7.51454 84.1536 7.47793 84.8086C7.45333 85.2487 7.52626 85.6429 7.69671 85.9912C7.86745 86.3344 8.12919 86.6108 8.48192 86.8204C8.82982 87.0247 9.25693 87.1435 9.76323 87.1769Z" fill="#BFF747"/>
<path d="M18.8652 72.4995C18.5875 73.6767 18.0993 74.6305 17.4005 75.3609C16.6978 76.0851 15.8466 76.5688 14.8466 76.8122C13.8478 77.0505 12.7673 77.0327 11.6051 76.7586C10.4278 76.4809 9.44879 76.0104 8.66794 75.3471C7.88328 74.6776 7.34094 73.8625 7.04094 72.9019C6.73594 71.94 6.7205 70.878 6.99461 69.7157C7.23107 68.7131 7.62019 67.8781 8.16197 67.2107C8.70376 66.5434 9.35564 66.0679 10.1176 65.7842C10.8796 65.5005 11.7098 65.441 12.6083 65.6055L11.8989 68.6134C11.3053 68.5629 10.7909 68.6785 10.3559 68.9603C9.917 69.236 9.62874 69.6656 9.4911 70.2492C9.37464 70.743 9.40756 71.2063 9.58987 71.6389C9.76836 72.0654 10.0879 72.4409 10.5485 72.7655C11.009 73.09 11.601 73.3375 12.3243 73.5081C13.0575 73.681 13.7046 73.7283 14.2654 73.65C14.8275 73.5666 15.2867 73.3721 15.6431 73.0665C15.9995 72.7609 16.236 72.3612 16.3524 71.8674C16.4383 71.5032 16.4405 71.1589 16.3591 70.8343C16.2789 70.5047 16.119 70.2116 15.8793 69.9549C15.6359 69.6922 15.3192 69.4832 14.9293 69.3281L15.6387 66.3202C16.5048 66.5771 17.2215 66.9989 17.7888 67.5855C18.3522 68.166 18.7328 68.8744 18.9304 69.7109C19.1281 70.5474 19.1063 71.4769 18.8652 72.4995Z" fill="#BFF747"/>
<path d="M22.969 60.3691C22.4874 61.4841 21.847 62.3464 21.0478 62.9558C20.2459 63.5586 19.3351 63.8965 18.3154 63.9696C17.2909 64.0408 16.2071 63.8294 15.0638 63.3356C13.9487 62.8539 13.0636 62.2148 12.4083 61.4182C11.7531 60.6215 11.36 59.7287 11.2288 58.7398C11.0998 57.7461 11.2649 56.7177 11.7242 55.6543C12.0331 54.9392 12.4359 54.3232 12.9327 53.8065C13.4268 53.2829 14.0016 52.8892 14.6571 52.6253C15.3147 52.3566 16.0452 52.2423 16.8486 52.2822C17.6473 52.3202 18.5077 52.5383 19.4299 52.9366L20.2556 53.2933L16.3019 62.4467L14.4387 61.642L17.17 55.3185C16.7372 55.1315 16.3131 55.06 15.8977 55.1039C15.4824 55.1478 15.1085 55.2962 14.776 55.5489C14.4408 55.795 14.1788 56.1368 13.9898 56.5743C13.7926 57.0307 13.7237 57.481 13.783 57.9254C13.8397 58.3629 14.0017 58.7568 14.2692 59.1068C14.5321 59.4548 14.8765 59.7236 15.3026 59.9132L17.074 60.6784C17.6104 60.91 18.1165 61.0114 18.5924 60.9825C19.0703 60.9488 19.4944 60.7943 19.8646 60.5187C20.2348 60.2432 20.5287 59.8537 20.7461 59.3503C20.8904 59.0162 20.9755 58.6901 21.0013 58.3719C21.0271 58.0536 20.9885 57.755 20.8857 57.4761C20.7829 57.1973 20.6174 56.9471 20.3892 56.7257L21.7737 54.0244C22.3809 54.4541 22.8393 54.9954 23.149 55.6484C23.4561 56.2947 23.6 57.0212 23.5809 57.828C23.5591 58.6281 23.3552 59.4751 22.969 60.3691Z" fill="#BFF747"/>
<path d="M20.958 33.1581L33.5535 42.6045L31.5563 45.2675L21.4885 37.7168L21.4332 37.7906L21.078 42.0311L18.7164 40.2599L19.0807 35.6612L20.958 33.1581Z" fill="#BFF747"/>
<path d="M27.97 25.3254C28.5499 24.7603 29.2027 24.3139 29.9281 23.9862C30.6573 23.655 31.4404 23.4966 32.2774 23.5111C33.1181 23.522 34.0048 23.76 34.9374 24.2251C35.8702 24.683 36.8356 25.4204 37.8336 26.4372C38.7671 27.3953 39.4922 28.356 40.0089 29.3195C40.5256 30.2758 40.8397 31.2113 40.951 32.1261C41.0624 33.0408 40.9696 33.9113 40.6726 34.7374C40.372 35.5598 39.873 36.3108 39.1755 36.9904C38.423 37.7236 37.6174 38.226 36.7585 38.4976C35.8961 38.7655 35.0437 38.8197 34.2013 38.6602C33.359 38.4934 32.5935 38.1301 31.9049 37.5703L34.256 35.2794C34.7483 35.6011 35.2522 35.7327 35.7676 35.6741C36.2795 35.6119 36.7519 35.3698 37.1851 34.9477C37.9192 34.2324 38.166 33.3694 37.9254 32.3587C37.6812 31.3443 37.0173 30.2774 35.9336 29.158L35.8565 29.2331C36.0096 29.728 36.0592 30.2342 36.0054 30.7518C35.948 31.2657 35.7965 31.7675 35.551 32.2572C35.3091 32.7434 34.9808 33.1885 34.566 33.5927C33.9016 34.2401 33.1568 34.6617 32.3315 34.8576C31.5063 35.0535 30.6767 35.0246 29.8428 34.771C29.0088 34.5174 28.2503 34.04 27.5671 33.3389C26.8267 32.5863 26.3447 31.7429 26.1212 30.8086C25.8977 29.8742 25.9389 28.9324 26.2448 27.9832C26.5508 27.0267 27.1258 26.1408 27.97 25.3254ZM29.8106 27.1813C29.4399 27.5426 29.1954 27.9526 29.0771 28.4113C28.9625 28.8665 28.9656 29.325 29.0864 29.7869C29.211 30.2451 29.4539 30.656 29.8153 31.0195C30.1765 31.3903 30.5827 31.6456 31.034 31.7855C31.4853 31.9182 31.9381 31.935 32.3924 31.8358C32.8468 31.7293 33.2576 31.4972 33.6246 31.1396C33.8999 30.8713 34.105 30.5713 34.2397 30.2396C34.3745 29.908 34.4405 29.5681 34.4378 29.2202C34.4352 28.8649 34.3671 28.5198 34.2338 28.1846C34.1004 27.8494 33.9031 27.5479 33.642 27.2799C33.2914 26.9274 32.8887 26.683 32.4338 26.5466C31.9789 26.4103 31.5188 26.3934 31.0536 26.4961C30.5883 26.5988 30.174 26.8272 29.8106 27.1813Z" fill="#BFF747"/>
<path d="M41.1448 14.7613C41.8198 14.314 42.5442 13.997 43.318 13.8101C44.096 13.6204 44.8949 13.6105 45.7146 13.7806C46.5386 13.9478 47.3655 14.3467 48.1952 14.9773C49.0265 15.6008 49.8377 16.505 50.629 17.6898C51.3678 18.8049 51.9014 19.8839 52.2297 20.9267C52.5594 21.9624 52.6938 22.9401 52.633 23.8596C52.5721 24.7791 52.3189 25.617 51.8732 26.3734C51.4248 27.1255 50.7947 27.7705 49.983 28.3084C49.1072 28.8887 48.2221 29.2323 47.3277 29.3393C46.4304 29.442 45.5828 29.3365 44.7849 29.023C43.9883 28.7023 43.3039 28.2029 42.7315 27.5247L45.4679 25.7115C45.8918 26.1192 46.3624 26.3423 46.8797 26.3807C47.3941 26.4148 47.9034 26.2649 48.4076 25.9308C49.262 25.3647 49.6651 24.5627 49.6169 23.5249C49.5658 22.4828 49.1121 21.311 48.2558 20.0094L48.166 20.0688C48.2243 20.5835 48.1788 21.0902 48.0296 21.5887C47.8775 22.0829 47.6353 22.5478 47.3029 22.9832C46.9747 23.4158 46.5692 23.7921 46.0865 24.112C45.3132 24.6244 44.5029 24.9 43.6556 24.9388C42.8083 24.9777 41.9986 24.7949 41.2265 24.3904C40.4543 23.986 39.7979 23.3758 39.2572 22.5598C38.6698 21.6825 38.3532 20.7641 38.3076 19.8045C38.262 18.8449 38.4778 17.9272 38.955 17.0515C39.4336 16.1687 40.1636 15.4053 41.1448 14.7613ZM42.6077 16.9275C42.1762 17.2134 41.8597 17.5707 41.6581 17.9994C41.4607 18.4253 41.3784 18.8764 41.4112 19.3526C41.4482 19.8261 41.6104 20.275 41.8978 20.6994C42.1837 21.1309 42.5353 21.4574 42.9526 21.6789C43.3713 21.8933 43.8131 21.994 44.278 21.9811C44.7443 21.9611 45.191 21.8096 45.6183 21.5265C45.9387 21.3142 46.196 21.0576 46.3901 20.7568C46.5843 20.456 46.7124 20.1344 46.7745 19.792C46.838 19.4425 46.8355 19.0907 46.7668 18.7365C46.6981 18.3824 46.5605 18.0494 46.3538 17.7375C46.075 17.3259 45.7247 17.0108 45.3032 16.7922C44.8816 16.5735 44.4327 16.4713 43.9565 16.4856C43.4803 16.4999 43.0307 16.6472 42.6077 16.9275Z" fill="#BFF747"/>
<path d="M62.4906 21.6836C61.3987 22.1412 60.353 22.371 59.3536 22.3731C58.357 22.3684 57.4879 22.1575 56.7462 21.7403C56.0046 21.3231 55.4694 20.7222 55.1406 19.9376C54.887 19.3326 54.7914 18.7197 54.8536 18.0991C54.9185 17.4717 55.1194 16.8902 55.4561 16.3545C55.7909 15.8141 56.2339 15.3728 56.7852 15.0307L56.7436 14.9314C55.903 15.1003 55.1169 14.988 54.3851 14.5944C53.6514 14.1962 53.1182 13.6 52.7854 12.8059C52.4704 12.0543 52.41 11.2934 52.6039 10.523C52.7959 9.74796 53.2045 9.03218 53.8296 8.37567C54.4574 7.71247 55.2606 7.17584 56.239 6.76581C57.2175 6.35577 58.1609 6.16047 59.0692 6.1799C59.9823 6.19735 60.7825 6.4094 61.4697 6.81603C62.1549 7.21793 62.6564 7.79131 62.9741 8.53617C63.3041 9.33698 63.3505 10.1372 63.1132 10.9368C62.8759 11.7364 62.4095 12.3737 61.7138 12.8486L61.7554 12.9478C62.3764 12.7987 62.9946 12.7953 63.6099 12.9375C64.2279 13.0731 64.7834 13.3376 65.2762 13.7313C65.7717 14.1182 66.1487 14.6132 66.4069 15.2162C66.731 16.0029 66.7818 16.8068 66.5591 17.6281C66.3365 18.4493 65.875 19.2178 65.1747 19.9336C64.4772 20.6427 63.5825 21.2261 62.4906 21.6836ZM61.5457 19.4289C62.0326 19.2249 62.4213 18.9592 62.712 18.6318C63.0007 18.2996 63.1813 17.935 63.2538 17.5378C63.3291 17.134 63.2806 16.7264 63.1082 16.3152C62.9319 15.8945 62.6701 15.568 62.3227 15.3357C61.9733 15.0987 61.578 14.9643 61.1368 14.9325C60.6936 14.896 60.2356 14.9767 59.7629 15.1748C59.295 15.3709 58.9163 15.6408 58.6268 15.9843C58.3354 16.3232 58.1517 16.7003 58.0756 17.1155C58.0023 17.5241 58.0539 17.9388 58.2301 18.3594C58.4025 18.7707 58.6566 19.0921 58.9926 19.3236C59.3266 19.5504 59.7156 19.6763 60.1595 19.7014C60.6015 19.7218 61.0636 19.631 61.5457 19.4289ZM58.827 12.9414C59.2335 12.771 59.5604 12.5368 59.8078 12.2386C60.0552 11.9405 60.2073 11.6072 60.2641 11.2389C60.3209 10.8706 60.269 10.495 60.1086 10.1121C59.9501 9.73393 59.7217 9.44069 59.4232 9.23236C59.1227 9.01929 58.7829 8.89777 58.4035 8.8678C58.0222 8.8331 57.6236 8.9029 57.2076 9.07722C56.7964 9.24955 56.4671 9.4848 56.2197 9.78295C55.9704 10.0764 55.8163 10.4049 55.7575 10.7685C55.7015 11.1254 55.7527 11.4929 55.9112 11.8711C56.0716 12.2539 56.3031 12.5543 56.6055 12.7721C56.9079 12.9899 57.2522 13.1151 57.6382 13.1478C58.0242 13.1806 58.4205 13.1117 58.827 12.9414Z" fill="#BFF747"/>
<path d="M78.7892 9.90068L78.5618 6.92805L76.3299 8.92945L75.0552 7.27778L77.5281 5.60713L74.6882 4.68987L75.4534 2.74893L78.1538 4.05091L77.5458 1.13225L79.5933 0.8419L79.8131 3.81561L82.045 1.8142L83.3196 3.46588L80.8543 5.13545L83.6866 6.05378L82.9214 7.99473L80.2211 6.69275L80.8367 9.61033L78.7892 9.90068Z" fill="#BFF747"/>
<circle cx="90.1979" cy="90.1003" r="32.5026" fill="#BFF747"/>
<path d="M99.0106 75.2642L91.3254 70.8037C90.6996 70.4404 89.6757 70.4404 89.05 70.8037L81.4219 75.2309L99.0106 75.2642Z" fill="black"/>
<path d="M86.792 108.083L107.391 85.4772V82.1543L78.1953 103.093L86.792 108.083Z" fill="black"/>
<path d="M101.431 76.6673L99.9755 75.8223L76.989 77.8076L74.1377 79.4625C73.5121 79.8257 73 80.7171 73 81.4436V87.5647L101.431 76.6673Z" fill="black"/>
<path d="M87.5938 108.548L89.0556 109.397C89.6813 109.76 90.7052 109.76 91.331 109.397L106.248 100.739C106.874 100.376 107.386 99.4844 107.386 98.758V90.3223L87.5938 108.548Z" fill="black"/>
<path d="M74.1377 100.737L74.5536 100.979L107.385 81.547V81.4405C107.385 80.7141 106.873 79.8226 106.248 79.4594L105.574 79.0684L73 88.3667V98.7563C73 99.4827 73.5121 100.374 74.1377 100.737Z" fill="black"/>
</svg>
