<svg width="177" height="51" viewBox="0 0 177 51" fill="none" xmlns="http://www.w3.org/2000/svg">
<path d="M34.2301 6.73065L24.3603 1.0022C23.5566 0.535724 22.2417 0.535724 21.4381 1.0022L11.6416 6.68798L34.2301 6.73065Z" fill="#BFF747"/>
<path d="M18.5247 48.8755L44.9793 19.8437V15.5762L7.48438 42.4674L18.5247 48.8755Z" fill="#BFF747"/>
<path d="M37.3328 8.53061L35.4629 7.44531L5.94227 9.995L2.2805 12.1204C1.47695 12.5868 0.819336 13.7316 0.819336 14.6645V22.5256L37.3328 8.53061Z" fill="#BFF747"/>
<path d="M19.5605 49.4772L21.4379 50.567C22.2415 51.0335 23.5565 51.0335 24.3601 50.567L43.5177 39.4481C44.3215 38.9816 44.9789 37.8369 44.9789 36.904V26.0703L19.5605 49.4772Z" fill="#BFF747"/>
<path d="M2.28051 39.4478L2.81463 39.7577L44.9791 14.8024V14.6655C44.9791 13.7327 44.3217 12.5878 43.5179 12.1214L42.6525 11.6191L0.819336 23.5607V36.9036C0.819336 37.8366 1.47696 38.9813 2.28051 39.4478Z" fill="#BFF747"/>
<path d="M66.6985 38.1452C65.5185 38.1452 64.4985 37.9552 63.6385 37.5752C62.7785 37.1952 62.1185 36.6552 61.6585 35.9552C61.1985 35.2352 60.9685 34.3852 60.9685 33.4052C60.9685 32.4852 61.1785 31.6752 61.5985 30.9752C62.0185 30.2552 62.6585 29.6552 63.5185 29.1752C64.3985 28.6952 65.4885 28.3552 66.7885 28.1552L71.7985 27.3452V30.6452L67.5985 31.3952C66.9585 31.5152 66.4685 31.7252 66.1285 32.0252C65.7885 32.3052 65.6185 32.7152 65.6185 33.2552C65.6185 33.7552 65.8085 34.1452 66.1885 34.4252C66.5685 34.7052 67.0385 34.8452 67.5985 34.8452C68.3385 34.8452 68.9885 34.6852 69.5485 34.3652C70.1085 34.0452 70.5385 33.6152 70.8385 33.0752C71.1585 32.5152 71.3185 31.9052 71.3185 31.2452V26.9852C71.3185 26.3652 71.0685 25.8452 70.5685 25.4252C70.0885 25.0052 69.4285 24.7952 68.5885 24.7952C67.7885 24.7952 67.0785 25.0152 66.4585 25.4552C65.8585 25.8952 65.4185 26.4752 65.1385 27.1952L61.5385 25.4852C61.8585 24.5652 62.3685 23.7752 63.0685 23.1152C63.7685 22.4552 64.6085 21.9452 65.5885 21.5852C66.5685 21.2252 67.6385 21.0452 68.7985 21.0452C70.1785 21.0452 71.3985 21.2952 72.4585 21.7952C73.5185 22.2952 74.3385 22.9952 74.9185 23.8952C75.5185 24.7752 75.8185 25.8052 75.8185 26.9852V37.7852H71.6185V35.1452L72.6385 34.9652C72.1585 35.6852 71.6285 36.2852 71.0485 36.7652C70.4685 37.2252 69.8185 37.5652 69.0985 37.7852C68.3785 38.0252 67.5785 38.1452 66.6985 38.1452ZM79.1188 37.7852V21.4052H83.3188V25.3352L83.0188 24.7652C83.3788 23.3852 83.9688 22.4552 84.7888 21.9752C85.6288 21.4752 86.6188 21.2252 87.7588 21.2252H88.7188V25.1252H87.3088C86.2088 25.1252 85.3188 25.4652 84.6388 26.1452C83.9588 26.8052 83.6188 27.7452 83.6188 28.9652V37.7852H79.1188ZM99.167 37.9652C97.187 37.9652 95.647 37.4352 94.547 36.3752C93.467 35.2952 92.927 33.7952 92.927 31.8752V25.3052H90.167V21.4052H90.317C91.157 21.4052 91.797 21.1952 92.237 20.7752C92.697 20.3552 92.927 19.7252 92.927 18.8852V17.6852H97.427V21.4052H101.267V25.3052H97.427V31.5752C97.427 32.1352 97.527 32.6052 97.727 32.9852C97.927 33.3452 98.237 33.6152 98.657 33.7952C99.077 33.9752 99.597 34.0652 100.217 34.0652C100.357 34.0652 100.517 34.0552 100.697 34.0352C100.877 34.0152 101.067 33.9952 101.267 33.9752V37.7852C100.967 37.8252 100.627 37.8652 100.247 37.9052C99.867 37.9452 99.507 37.9652 99.167 37.9652ZM103.904 37.7852V21.4052H108.404V37.7852H103.904ZM103.904 19.9352V15.4352H108.404V19.9352H103.904ZM118.117 38.1452C116.317 38.1452 114.747 37.7252 113.407 36.8852C112.087 36.0252 111.187 34.8752 110.707 33.4352L114.007 31.8752C114.427 32.7552 114.997 33.4452 115.717 33.9452C116.437 34.4452 117.237 34.6952 118.117 34.6952C118.757 34.6952 119.247 34.5652 119.587 34.3052C119.927 34.0452 120.097 33.6852 120.097 33.2252C120.097 32.9852 120.037 32.7852 119.917 32.6252C119.797 32.4452 119.617 32.2852 119.377 32.1452C119.137 32.0052 118.837 31.8852 118.477 31.7852L115.687 31.0052C114.347 30.6252 113.317 30.0152 112.597 29.1752C111.877 28.3152 111.517 27.3052 111.517 26.1452C111.517 25.1252 111.777 24.2352 112.297 23.4752C112.817 22.7152 113.547 22.1252 114.487 21.7052C115.427 21.2652 116.507 21.0452 117.727 21.0452C119.327 21.0452 120.727 21.4252 121.927 22.1852C123.147 22.9252 124.007 23.9752 124.507 25.3352L121.177 26.8952C120.937 26.2152 120.497 25.6752 119.857 25.2752C119.237 24.8552 118.527 24.6452 117.727 24.6452C117.147 24.6452 116.687 24.7652 116.347 25.0052C116.027 25.2452 115.867 25.5752 115.867 25.9952C115.867 26.2152 115.927 26.4152 116.047 26.5952C116.167 26.7752 116.357 26.9352 116.617 27.0752C116.897 27.2152 117.237 27.3452 117.637 27.4652L120.247 28.2452C121.607 28.6452 122.647 29.2552 123.367 30.0752C124.087 30.8752 124.447 31.8652 124.447 33.0452C124.447 34.0652 124.177 34.9552 123.637 35.7152C123.117 36.4752 122.387 37.0752 121.447 37.5152C120.507 37.9352 119.397 38.1452 118.117 38.1452ZM135.026 37.9652C133.046 37.9652 131.506 37.4352 130.406 36.3752C129.326 35.2952 128.786 33.7952 128.786 31.8752V25.3052H126.026V21.4052H126.176C127.016 21.4052 127.656 21.1952 128.096 20.7752C128.556 20.3552 128.786 19.7252 128.786 18.8852V17.6852H133.286V21.4052H137.126V25.3052H133.286V31.5752C133.286 32.1352 133.386 32.6052 133.586 32.9852C133.786 33.3452 134.096 33.6152 134.516 33.7952C134.936 33.9752 135.456 34.0652 136.076 34.0652C136.216 34.0652 136.376 34.0552 136.556 34.0352C136.736 34.0152 136.926 33.9952 137.126 33.9752V37.7852C136.826 37.8252 136.486 37.8652 136.106 37.9052C135.726 37.9452 135.366 37.9652 135.026 37.9652ZM139.763 37.7852V21.4052H144.263V37.7852H139.763ZM139.763 19.9352V15.4352H144.263V19.9352H139.763ZM155.596 38.1452C153.956 38.1452 152.476 37.7752 151.156 37.0352C149.856 36.2752 148.816 35.2452 148.036 33.9452C147.276 32.6452 146.896 31.1852 146.896 29.5652C146.896 27.9452 147.276 26.4952 148.036 25.2152C148.796 23.9152 149.836 22.8952 151.156 22.1552C152.476 21.4152 153.956 21.0452 155.596 21.0452C156.816 21.0452 157.946 21.2552 158.986 21.6752C160.026 22.0952 160.916 22.6852 161.656 23.4452C162.396 24.1852 162.926 25.0652 163.246 26.0852L159.346 27.7652C159.066 26.9452 158.586 26.2952 157.906 25.8152C157.246 25.3352 156.476 25.0952 155.596 25.0952C154.816 25.0952 154.116 25.2852 153.496 25.6652C152.896 26.0452 152.416 26.5752 152.056 27.2552C151.716 27.9352 151.546 28.7152 151.546 29.5952C151.546 30.4752 151.716 31.2552 152.056 31.9352C152.416 32.6152 152.896 33.1452 153.496 33.5252C154.116 33.9052 154.816 34.0952 155.596 34.0952C156.496 34.0952 157.276 33.8552 157.936 33.3752C158.596 32.8952 159.066 32.2452 159.346 31.4252L163.246 33.1352C162.946 34.0952 162.426 34.9552 161.686 35.7152C160.946 36.4752 160.056 37.0752 159.016 37.5152C157.976 37.9352 156.836 38.1452 155.596 38.1452Z" fill="white"/>
<path d="M168.116 37.7852V33.2852H172.616V37.7852H168.116Z" fill="#BFF747"/>
</svg>
