<svg width="160" height="161" viewBox="0 0 160 161" fill="none" xmlns="http://www.w3.org/2000/svg">
<circle cx="80" cy="80.9746" r="80" fill="black"/>
<circle cx="79.9902" cy="80.9766" r="33.9902" fill="#BFF747"/>
<circle cx="79.9844" cy="80.9785" r="20" fill="#BFF747"/>
<path d="M85.0829 77.6872L74.1279 88.6422L72.3281 86.8425L83.2819 75.8874H73.6277V73.3418H87.6285V87.3427H85.0829V77.6872Z" fill="black"/>
<path d="M86.0903 27.1477C85.3473 27.0745 84.6733 26.8721 84.0683 26.5405C83.4633 26.209 82.9478 25.7784 82.5217 25.2487C82.0956 24.7191 81.78 24.116 81.5747 23.4393C81.3787 22.7636 81.3187 22.0403 81.3947 21.2694C81.4707 20.4986 81.666 19.8005 81.9809 19.1751C82.3059 18.5413 82.7239 18.0105 83.235 17.5826C83.7562 17.1463 84.3454 16.8293 85.0026 16.6314C85.6607 16.4244 86.3612 16.3574 87.1042 16.4306C87.8472 16.5039 88.4989 16.6947 89.0593 17.0031C89.629 17.3124 90.0975 17.6962 90.465 18.1544C90.8334 18.6033 91.0815 19.0826 91.2095 19.5922L89.4442 20.2341C89.3022 19.6762 89.0156 19.2072 88.5841 18.8271C88.1527 18.447 87.6027 18.224 86.934 18.1581C86.2839 18.094 85.6929 18.1905 85.1612 18.4476C84.6388 18.7055 84.2117 19.0901 83.88 19.6013C83.5576 20.1135 83.3607 20.7317 83.2893 21.4562C83.2179 22.1806 83.2945 22.8305 83.5192 23.4059C83.754 23.9729 84.107 24.4344 84.5784 24.7903C85.0497 25.1462 85.6104 25.3562 86.2605 25.4203C86.7899 25.4724 87.2875 25.4183 87.7535 25.2579C88.2203 25.0883 88.6072 24.8263 88.914 24.4721C89.2218 24.1085 89.4018 23.6621 89.4539 23.1327L89.5322 22.3386L90.3218 23.176L86.4768 22.7971L86.6347 21.1951L91.5106 21.6756L91.4076 22.7204C91.3289 23.5191 91.1246 24.2117 90.7949 24.7981C90.4652 25.3845 90.0475 25.8638 89.542 26.236C89.0466 26.5998 88.5005 26.8601 87.9036 27.017C87.3077 27.1645 86.7032 27.2081 86.0903 27.1477Z" fill="#BFF747"/>
<path d="M91.7725 27.8303L94.6172 17.7969L101.284 19.687L100.825 21.3031L95.9906 19.9323L95.2613 22.5046L99.8268 23.7991L99.3686 25.4152L94.8031 24.1207L94.0623 26.7335L98.8972 28.1043L98.439 29.7204L91.7725 27.8303Z" fill="#BFF747"/>
<path d="M101.712 31.1281L105.451 23.2182L103.009 22.0636L103.727 20.5449L110.308 23.6559L109.59 25.1745L107.185 24.0379L103.446 31.9477L101.712 31.1281Z" fill="#BFF747"/>
<path d="M114.481 39.1928C113.968 38.7737 113.567 38.2902 113.28 37.7422C113 37.2001 112.836 36.633 112.79 36.0408C112.756 35.4472 112.85 34.8673 113.071 34.3011L114.731 34.7701C114.548 35.3922 114.532 35.9874 114.682 36.5559C114.838 37.1171 115.148 37.5866 115.61 37.9644C115.871 38.1768 116.127 38.32 116.38 38.394C116.646 38.4666 116.889 38.4719 117.108 38.4099C117.335 38.3539 117.53 38.2247 117.696 38.0223C117.89 37.7837 117.977 37.5295 117.957 37.2596C117.949 36.9885 117.84 36.6944 117.629 36.3775L116.486 34.6127C116.016 33.904 115.782 33.2247 115.782 32.5746C115.783 31.9246 115.999 31.3357 116.429 30.808C116.807 30.3453 117.253 30.0283 117.766 29.8571C118.286 29.6917 118.829 29.6767 119.393 29.8121C119.97 29.9461 120.523 30.2285 121.051 30.6593C121.535 31.0548 121.909 31.5045 122.172 32.0085C122.441 32.5053 122.596 33.0235 122.637 33.5632C122.692 34.1016 122.626 34.6322 122.44 35.1551L120.783 34.7057C120.954 34.1711 120.97 33.6654 120.829 33.1889C120.693 32.7051 120.416 32.292 119.997 31.9497C119.751 31.749 119.499 31.6154 119.24 31.5487C118.987 31.4747 118.745 31.4694 118.512 31.5327C118.293 31.5946 118.101 31.7268 117.936 31.9292C117.753 32.1533 117.663 32.4111 117.665 32.7027C117.674 32.987 117.789 33.2971 118.008 33.6331L119.113 35.3122C119.585 36.0471 119.83 36.7288 119.847 37.3572C119.871 37.9914 119.662 38.5797 119.219 39.1218C118.842 39.5845 118.389 39.8955 117.861 40.055C117.333 40.2144 116.777 40.2242 116.193 40.0843C115.608 39.9444 115.038 39.6472 114.481 39.1928Z" fill="#BFF747"/>
<path d="M119.859 44.02L126.383 38.1905L124.583 36.1759L125.836 35.0566L130.686 40.4847L129.433 41.6039L127.661 39.6206L121.137 45.4501L119.859 44.02Z" fill="#BFF747"/>
<path d="M123.481 48.0226L134.215 45.4781L135.534 47.559L128.652 56.1809L127.542 54.431L129.037 52.6053L126.879 49.2001L124.582 49.7607L123.481 48.0226ZM128.59 48.7619L130.164 51.2448L133.621 46.9984L133.906 47.4477L128.59 48.7619Z" fill="#BFF747"/>
<path d="M129.043 57.2276L138.695 53.2773L140.164 56.866C140.433 57.5224 140.549 58.1506 140.512 58.7505C140.487 59.3555 140.304 59.8942 139.963 60.3666C139.631 60.8354 139.141 61.2024 138.493 61.4675C137.828 61.7397 137.197 61.8115 136.599 61.6828C136.006 61.5627 135.487 61.2809 135.043 60.8373L132.076 64.6381L131.26 62.643L134.526 58.5382L134.319 59.9541L133.327 57.5314L129.765 58.9895L129.043 57.2276ZM134.882 56.8951L135.64 58.7477C135.771 59.0673 135.945 59.3189 136.161 59.5026C136.386 59.6828 136.637 59.7917 136.915 59.8294C137.192 59.867 137.478 59.8258 137.772 59.7056C138.074 59.5819 138.307 59.411 138.469 59.1931C138.641 58.9716 138.74 58.7196 138.765 58.4369C138.799 58.1507 138.751 57.8478 138.62 57.5282L137.862 55.6756L134.882 56.8951Z" fill="#BFF747"/>
<path d="M132.766 67.6632L141.309 65.7776L140.727 63.1394L142.367 62.7773L143.936 69.8855L142.296 70.2475L141.722 67.6503L133.179 69.5359L132.766 67.6632Z" fill="#BFF747"/>
<path d="M134.156 74.9162L144.57 74.3594L144.94 81.2788L143.263 81.3685L142.995 76.3501L140.325 76.4929L140.578 81.2316L138.901 81.3213L138.647 76.5826L135.935 76.7276L136.204 81.7459L134.526 81.8356L134.156 74.9162Z" fill="#BFF747"/>
<path d="M134.491 83.6734L144.844 84.9297L144.434 88.3066C144.301 89.3998 143.964 90.3224 143.421 91.0744C142.887 91.8368 142.204 92.3932 141.371 92.7434C140.549 93.0948 139.628 93.2087 138.608 93.085C137.599 92.9625 136.727 92.6311 135.993 92.0908C135.269 91.5517 134.734 90.8475 134.388 89.9783C134.051 89.1195 133.948 88.1435 134.081 87.0503L134.491 83.6734ZM135.929 85.7657L135.744 87.2943C135.658 87.9984 135.728 88.6226 135.953 89.167C136.187 89.7218 136.546 90.1743 137.03 90.5244C137.523 90.8757 138.126 91.0946 138.84 91.1812C139.562 91.2689 140.2 91.2006 140.754 90.9764C141.308 90.7521 141.759 90.398 142.11 89.9141C142.459 89.4394 142.676 88.85 142.761 88.1459L142.947 86.6173L135.929 85.7657Z" fill="#BFF747"/>
<path d="M136.006 101.27L137.185 100.532L138.099 101.991L139.198 100.694L140.263 101.581L139.176 102.883L140.843 103.542L140.329 104.843L138.662 104.185L138.566 105.878L137.182 105.798L137.266 104.1L135.602 104.542L135.25 103.184L136.914 102.742L136.006 101.27Z" fill="#BFF747"/>
<path d="M123.281 113.769C123.723 113.168 124.241 112.692 124.835 112.341C125.429 111.99 126.063 111.767 126.736 111.671C127.409 111.575 128.089 111.612 128.775 111.781C129.456 111.958 130.109 112.275 130.733 112.734C131.357 113.193 131.857 113.718 132.234 114.308C132.613 114.911 132.856 115.542 132.962 116.2C133.071 116.871 133.043 117.539 132.877 118.205C132.719 118.877 132.419 119.513 131.977 120.114C131.534 120.716 131.037 121.179 130.486 121.503C129.929 121.835 129.36 122.042 128.778 122.123C128.204 122.211 127.665 122.179 127.162 122.029L127.511 120.184C128.064 120.347 128.613 120.34 129.16 120.163C129.708 119.986 130.18 119.627 130.578 119.086C130.965 118.56 131.184 118.002 131.235 117.414C131.28 116.833 131.167 116.269 130.897 115.723C130.622 115.184 130.191 114.699 129.604 114.268C129.018 113.837 128.42 113.57 127.811 113.47C127.203 113.382 126.626 113.45 126.08 113.673C125.533 113.897 125.066 114.271 124.679 114.798C124.364 115.226 124.156 115.682 124.056 116.164C123.963 116.652 123.991 117.119 124.139 117.563C124.294 118.014 124.586 118.396 125.014 118.712L125.657 119.184L124.534 119.436L126.824 116.323L128.12 117.277L125.217 121.224L124.371 120.602C123.725 120.126 123.234 119.597 122.898 119.014C122.562 118.431 122.363 117.827 122.302 117.202C122.242 116.591 122.297 115.988 122.467 115.395C122.644 114.807 122.916 114.265 123.281 113.769Z" fill="#BFF747"/>
<path d="M119.778 118.324L126.961 125.885L121.937 130.657L120.78 129.44L124.424 125.978L122.582 124.04L119.142 127.308L117.985 126.09L121.425 122.822L119.555 120.853L115.911 124.314L114.754 123.097L119.778 118.324Z" fill="#BFF747"/>
<path d="M111.871 125.202L116.782 132.443L119.018 130.926L119.961 132.316L113.937 136.403L112.994 135.012L115.195 133.519L110.284 126.279L111.871 125.202Z" fill="#BFF747"/>
<path d="M98.4429 132.098C99.0648 131.87 99.6848 131.771 100.303 131.802C100.912 131.837 101.484 131.985 102.017 132.246C102.545 132.519 102.996 132.895 103.371 133.374L102.123 134.563C101.681 134.09 101.176 133.773 100.611 133.613C100.048 133.462 99.4863 133.49 98.9258 133.696C98.6104 133.812 98.3566 133.96 98.1643 134.14C97.9664 134.332 97.8384 134.538 97.7802 134.758C97.7132 134.982 97.7248 135.216 97.815 135.461C97.9212 135.75 98.0958 135.955 98.3386 136.074C98.5758 136.206 98.8846 136.261 99.2648 136.241L101.366 136.154C102.215 136.111 102.919 136.255 103.478 136.586C104.038 136.917 104.435 137.403 104.67 138.042C104.876 138.603 104.922 139.147 104.808 139.676C104.686 140.209 104.423 140.683 104.019 141.1C103.61 141.529 103.086 141.861 102.447 142.096C101.86 142.312 101.282 142.405 100.715 142.375C100.15 142.353 99.6248 142.223 99.1392 141.984C98.6481 141.757 98.2247 141.431 97.8692 141.005L99.0992 139.807C99.4723 140.226 99.8998 140.497 100.382 140.618C100.867 140.748 101.364 140.719 101.872 140.532C102.17 140.423 102.413 140.274 102.602 140.085C102.794 139.905 102.922 139.699 102.986 139.466C103.044 139.246 103.028 139.013 102.938 138.768C102.838 138.497 102.662 138.288 102.41 138.142C102.161 138.005 101.835 137.946 101.434 137.964L99.4267 138.06C98.5538 138.093 97.8425 137.957 97.2929 137.652C96.7345 137.35 96.3345 136.871 96.093 136.214C95.8869 135.653 95.8495 135.105 95.9808 134.57C96.112 134.034 96.3866 133.55 96.8044 133.118C97.2223 132.686 97.7685 132.346 98.4429 132.098Z" fill="#BFF747"/>
<path d="M91.5284 134.273L93.206 142.86L95.8576 142.342L96.1797 143.99L89.0355 145.386L88.7134 143.737L91.3238 143.227L89.6462 134.641L91.5284 134.273Z" fill="#BFF747"/>
<path d="M86.2539 135.331L82.9586 145.86L80.4958 145.931L76.599 135.61L78.6699 135.55L79.4761 137.768L83.506 137.651L84.197 135.391L86.2539 135.331ZM83.0087 139.346L80.0703 139.431L81.9551 144.572L81.4234 144.587L83.0087 139.346Z" fill="#BFF747"/>
<path d="M75.429 135.413L73.9062 145.73L70.0702 145.164C69.3686 145.061 68.7691 144.84 68.2717 144.503C67.7638 144.173 67.3936 143.741 67.1612 143.207C66.9274 142.682 66.8616 142.073 66.9638 141.381C67.0687 140.67 67.3287 140.09 67.7439 139.642C68.1499 139.193 68.6567 138.89 69.2646 138.734L67.5076 134.244L69.6403 134.559L71.5062 139.461L70.3938 138.561L72.9835 138.944L73.5456 135.135L75.429 135.413ZM72.7382 140.606L70.7579 140.313C70.4163 140.263 70.1113 140.284 69.843 140.376C69.5733 140.478 69.3514 140.639 69.1775 140.858C69.0036 141.078 68.8935 141.345 68.8472 141.659C68.7995 141.982 68.8278 142.269 68.9323 142.52C69.0353 142.781 69.2019 142.994 69.4321 143.16C69.661 143.335 69.9462 143.448 70.2878 143.498L72.2681 143.791L72.7382 140.606Z" fill="#BFF747"/>
<path d="M64.5631 133.3L61.8325 141.612L64.3993 142.455L63.875 144.051L56.9594 141.779L57.4837 140.183L60.0105 141.013L62.7411 132.701L64.5631 133.3Z" fill="#BFF747"/>
<path d="M57.5979 130.79L52.7578 140.027L46.62 136.811L47.3996 135.323L51.8511 137.656L53.092 135.287L48.8885 133.085L49.6681 131.597L53.8716 133.8L55.1319 131.394L50.6805 129.062L51.4601 127.574L57.5979 130.79Z" fill="#BFF747"/>
<path d="M49.9853 126.659L43.6172 134.918L40.9234 132.841C40.0513 132.168 39.4305 131.407 39.0611 130.556C38.6786 129.708 38.5493 128.836 38.6732 127.942C38.7914 127.055 39.164 126.205 39.7908 125.392C40.412 124.586 41.1421 124.006 41.9812 123.652C42.8147 123.304 43.6933 123.204 44.6172 123.351C45.528 123.499 46.4194 123.91 47.2915 124.582L49.9853 126.659ZM47.4519 126.827L46.2325 125.887C45.6708 125.454 45.0984 125.195 44.5153 125.111C43.9191 125.028 43.3469 125.105 42.7986 125.342C42.2447 125.587 41.7484 125.994 41.3096 126.563C40.8651 127.139 40.5978 127.723 40.5078 128.313C40.4178 128.904 40.4914 129.473 40.7286 130.021C40.9584 130.564 41.3542 131.052 41.9158 131.485L43.1353 132.425L47.4519 126.827Z" fill="#BFF747"/>
<path d="M34.0603 118.975L34.0958 120.367L32.3745 120.411L32.9317 122.016L31.6266 122.482L31.0583 120.884L29.6438 121.984L28.7845 120.879L30.199 119.779L28.7908 118.835L29.5632 117.685L30.9824 118.62L31.4491 116.963L32.7971 117.351L32.3304 119.008L34.0603 118.975Z" fill="#BFF747"/>
<path d="M29.7589 101.655C30.0516 102.342 30.1979 103.031 30.1977 103.72C30.1976 104.41 30.0676 105.069 29.8078 105.697C29.5479 106.326 29.1706 106.892 28.6757 107.397C28.1772 107.894 27.5717 108.294 26.8591 108.598C26.1466 108.901 25.4404 109.065 24.7406 109.09C24.0286 109.109 23.3622 108.997 22.7415 108.755C22.1084 108.507 21.5473 108.143 21.0581 107.661C20.5603 107.184 20.1651 106.601 19.8724 105.915C19.5797 105.228 19.434 104.565 19.4353 103.925C19.4329 103.277 19.5444 102.681 19.7697 102.139C19.9865 101.6 20.2876 101.152 20.6731 100.795L22.0841 102.035C21.663 102.428 21.3894 102.904 21.2632 103.465C21.1371 104.026 21.2058 104.616 21.4692 105.234C21.7254 105.835 22.0939 106.307 22.5748 106.65C23.052 106.984 23.5945 107.174 24.2022 107.219C24.8062 107.256 25.4431 107.132 26.1127 106.846C26.7823 106.561 27.3155 106.181 27.7123 105.708C28.0968 105.23 28.3319 104.698 28.4177 104.114C28.5034 103.53 28.4182 102.937 28.1621 102.336C27.9535 101.847 27.667 101.436 27.3025 101.105C26.9294 100.777 26.5138 100.563 26.0557 100.464C25.589 100.369 25.111 100.426 24.6216 100.634L23.8876 100.947L24.2427 99.8521L25.7575 103.406L24.2766 104.038L22.3557 99.5303L23.3215 99.1187C24.0598 98.804 24.7653 98.6504 25.4381 98.6579C26.1108 98.6654 26.7318 98.8014 27.3011 99.066C27.8581 99.3257 28.3488 99.6796 28.7731 100.128C29.1888 100.58 29.5174 101.089 29.7589 101.655Z" fill="#BFF747"/>
<path d="M27.6294 96.3263L17.4609 98.6426L15.9219 91.8864L17.5598 91.5133L18.676 96.4132L21.2829 95.8194L20.2289 91.1924L21.8668 90.8193L22.9208 95.4463L25.5687 94.8432L24.4525 89.9432L26.0904 89.5701L27.6294 96.3263Z" fill="#BFF747"/>
<path d="M25.7636 86.0426L17.0303 86.5676L17.1924 89.2644L15.5156 89.3652L15.0788 82.0991L16.7556 81.9983L16.9152 84.6532L25.6485 84.1282L25.7636 86.0426Z" fill="#BFF747"/>
<path d="M26.6815 70.8932C26.5613 71.5448 26.3302 72.1285 25.9884 72.6443C25.6482 73.151 25.2297 73.5673 24.7331 73.8932C24.229 74.2083 23.6755 74.4051 23.0726 74.4837L22.685 72.8037C23.3181 72.6642 23.8475 72.3918 24.2734 71.9864C24.6902 71.5793 24.9527 71.082 25.061 70.4947C25.122 70.1643 25.124 69.8705 25.067 69.6132C25.0026 69.3451 24.8905 69.1299 24.7306 68.9676C24.5725 68.796 24.3649 68.6866 24.1079 68.6392C23.8051 68.5833 23.5404 68.6294 23.3138 68.7774C23.0797 68.9145 22.8746 69.1519 22.6984 69.4895L21.7021 71.3413C21.307 72.094 20.8244 72.6266 20.2544 72.939C19.6843 73.2514 19.0643 73.3458 18.3943 73.2222C17.807 73.1139 17.3147 72.876 16.9174 72.5085C16.5219 72.1319 16.2477 71.6637 16.0947 71.1041C15.9342 70.5336 15.9157 69.9133 16.0393 69.2434C16.1527 68.6285 16.367 68.0844 16.682 67.6111C16.9879 67.1361 17.3674 66.7506 17.8206 66.4546C18.2663 66.1477 18.763 65.9499 19.3108 65.8611L19.7148 67.5299C19.1636 67.637 18.7131 67.8671 18.3633 68.2201C18.0043 68.5714 17.7757 69.0133 17.6775 69.5455C17.6199 69.8576 17.6242 70.1431 17.6903 70.402C17.7473 70.6592 17.8594 70.8745 18.0268 71.0477C18.1866 71.21 18.395 71.3149 18.652 71.3623C18.9365 71.4148 19.2058 71.3695 19.4599 71.2266C19.7049 71.082 19.9217 70.8326 20.1104 70.4783L21.0502 68.7015C21.467 67.9338 21.9467 67.3912 22.4893 67.0737C23.0335 66.7471 23.6498 66.6472 24.3381 66.7742C24.9254 66.8825 25.416 67.1296 25.8099 67.5154C26.2037 67.9012 26.48 68.384 26.6388 68.9637C26.7976 69.5434 26.8118 70.1865 26.6815 70.8932Z" fill="#BFF747"/>
<path d="M28.3329 63.839L20.0894 60.9078L19.1843 63.4534L17.6016 62.8906L20.0403 56.0321L21.623 56.5948L20.732 59.1009L28.9754 62.032L28.3329 63.839Z" fill="#BFF747"/>
<path d="M30.1077 58.7521L22.74 50.541L23.9369 48.3875L34.8002 50.3095L33.7937 52.1204L31.4755 51.6808L29.5169 55.2046L31.1074 56.9534L30.1077 58.7521ZM28.3139 53.9113L29.742 51.3419L24.3594 50.336L24.6178 49.8711L28.3139 53.9113Z" fill="#BFF747"/>
<path d="M35.5292 49.4699L27.4375 42.8906L29.8838 39.882C30.3312 39.3317 30.827 38.929 31.3713 38.6739C31.9141 38.4057 32.4746 38.3081 33.0526 38.3812C33.6235 38.4484 34.1804 38.7028 34.7235 39.1443C35.281 39.5977 35.6464 40.1172 35.8195 40.7031C35.9986 41.2817 35.9997 41.872 35.823 42.474L40.5806 43.2573L39.2206 44.9299L34.0529 44.0297L35.3948 43.5331L33.7434 45.5642L36.7302 47.9928L35.5292 49.4699ZM32.44 44.5044L33.7029 42.9513C33.9207 42.6834 34.0584 42.4104 34.116 42.1325C34.1664 41.8487 34.1416 41.5759 34.0416 41.3143C33.9417 41.0526 33.7686 40.8216 33.5224 40.6215C33.269 40.4154 33.0076 40.2931 32.7383 40.2545C32.4617 40.21 32.1932 40.2443 31.9329 40.3574C31.6653 40.4646 31.4226 40.6522 31.2048 40.9201L29.9419 42.4732L32.44 44.5044Z" fill="#BFF747"/>
<path d="M42.8955 41.2044L37.1314 34.6224L35.0989 36.4024L33.9922 35.1387L39.4683 30.3429L40.575 31.6067L38.5741 33.359L44.3382 39.9409L42.8955 41.2044Z" fill="#BFF747"/>
<path d="M48.6008 36.4823L43.1016 27.6211L48.9892 23.9673L49.875 25.3946L45.605 28.0445L47.0148 30.3163L51.047 27.814L51.9327 29.2413L47.9006 31.7436L49.3326 34.0511L53.6026 31.4012L54.4884 32.8285L48.6008 36.4823Z" fill="#BFF747"/>
<path d="M56.0349 32.016L52.1641 22.332L55.3227 21.0695C56.3453 20.6607 57.3166 20.5137 58.2368 20.6282C59.1622 20.7307 59.9783 21.0628 60.6853 21.6244C61.3887 22.1774 61.931 22.9305 62.312 23.8838C62.6895 24.8283 62.8176 25.752 62.696 26.6549C62.571 27.5491 62.2104 28.3565 61.6141 29.0773C61.023 29.786 60.2161 30.3446 59.1936 30.7534L56.0349 32.016ZM57.1792 29.7495L58.6091 29.178C59.2677 28.9147 59.7816 28.5535 60.1508 28.0944C60.5253 27.6231 60.7498 27.0911 60.8245 26.4985C60.8957 25.8971 60.7979 25.2628 60.5312 24.5956C60.261 23.9197 59.8946 23.3927 59.432 23.0148C58.9694 22.6369 58.4417 22.4107 57.8491 22.336C57.2651 22.2579 56.6438 22.3504 55.9852 22.6137L54.5554 23.1852L57.1792 29.7495Z" fill="#BFF747"/>
<path d="M70.6339 22.274L69.4072 21.6171L70.2201 20.0991L68.5486 19.7894L68.7896 18.4249L70.4591 18.7208L70.2024 16.9475L71.5878 16.7469L71.8445 18.5203L73.3615 17.7632L73.9795 19.0034L72.4645 19.7743L73.6743 20.9994L72.6704 21.9793L71.4606 20.7541L70.6339 22.274Z" fill="#BFF747"/>
</svg>
