<svg width="167" height="26" viewBox="0 0 167 26" fill="none" xmlns="http://www.w3.org/2000/svg">
<path d="M166.385 14.5429L160.631 14.0646L163.094 19.2866L166.385 14.5429ZM0.421875 12.075C0.649626 12.5201 0.649609 12.5201 0.649596 12.5202C0.649595 12.5202 0.649584 12.5202 0.649583 12.5202C0.64958 12.5202 0.649589 12.5202 0.64961 12.5201C0.649652 12.5201 0.64974 12.5201 0.649875 12.52C0.650146 12.5199 0.650604 12.5196 0.651249 12.5193C0.652538 12.5187 0.654575 12.5176 0.657355 12.5162C0.662916 12.5134 0.671451 12.5091 0.682929 12.5033C0.705885 12.4917 0.740615 12.4742 0.786874 12.4512C0.879394 12.4052 1.01803 12.337 1.20082 12.2489C1.56643 12.0727 2.10864 11.8169 2.81187 11.5006L2.40167 10.5886C1.68994 10.9088 1.13971 11.1682 0.766605 11.3481C0.580047 11.438 0.437761 11.508 0.341699 11.5558C0.293668 11.5797 0.257192 11.598 0.232515 11.6104C0.220176 11.6167 0.210788 11.6214 0.204379 11.6247C0.201175 11.6263 0.198715 11.6276 0.197005 11.6284C0.19615 11.6289 0.195482 11.6292 0.195002 11.6295C0.194761 11.6296 0.194568 11.6297 0.194422 11.6298C0.194349 11.6298 0.194287 11.6298 0.194238 11.6298C0.194213 11.6299 0.194185 11.6299 0.194172 11.6299C0.194147 11.6299 0.194124 11.6299 0.421875 12.075ZM7.24123 9.64118C8.57628 9.11634 10.0892 8.5512 11.7567 7.97388L11.4295 7.02891C9.74811 7.61104 8.22229 8.181 6.87536 8.71052L7.24123 9.64118ZM16.3453 6.48791C17.8184 6.04338 19.3713 5.60588 20.9933 5.1882L20.7439 4.21979C19.1079 4.64108 17.5419 5.0823 16.0564 5.53054L16.3453 6.48791ZM25.6889 4.08475C27.2217 3.75929 28.8003 3.45845 30.4175 3.19091L30.2543 2.20432C28.6214 2.47445 27.0279 2.77814 25.4812 3.10655L25.6889 4.08475ZM35.1939 2.51803C36.765 2.33597 38.3634 2.19018 39.9834 2.08769L39.9203 1.08968C38.282 1.19333 36.6663 1.34072 35.0788 1.52468L35.1939 2.51803ZM44.7949 1.91782C46.3847 1.90725 47.9889 1.9429 49.6025 2.03097L49.657 1.03246C48.0221 0.943226 46.3974 0.907144 44.7883 0.917842L44.7949 1.91782ZM54.3897 2.44931C55.9703 2.64095 57.5549 2.88781 59.1388 3.19554L59.3296 2.2139C57.7214 1.90144 56.1133 1.65096 54.5101 1.45658L54.3897 2.44931ZM63.8108 4.28701C65.3413 4.7071 66.8668 5.18971 68.3831 5.74003L68.7243 4.80003C67.182 4.24029 65.631 3.74962 64.0755 3.32267L63.8108 4.28701ZM72.8239 7.56416C74.2588 8.22535 75.6814 8.95374 77.088 9.75395L77.5825 8.88476C76.1507 8.07021 74.7027 7.32883 73.2424 6.65594L72.8239 7.56416ZM81.1461 12.2988C81.8029 12.751 82.4552 13.2206 83.1026 13.7083L83.7043 12.9096C83.0455 12.4133 82.3816 11.9353 81.7131 11.4752L81.1461 12.2988ZM83.1026 13.7083C83.7614 14.2046 84.4253 14.6826 85.0938 15.1428L85.6608 14.3191C85.004 13.867 84.3517 13.3973 83.7043 12.9096L83.1026 13.7083ZM89.2244 17.7332C90.6562 18.5477 92.1042 19.2891 93.5645 19.962L93.983 19.0538C92.5481 18.3926 91.1255 17.6642 89.7189 16.864L89.2244 17.7332ZM98.0826 21.8179C99.6249 22.3777 101.176 22.8683 102.731 23.2953L102.996 22.3309C101.466 21.9108 99.9401 21.4282 98.4238 20.8779L98.0826 21.8179ZM107.477 24.404C109.086 24.7165 110.694 24.967 112.297 25.1614L112.417 24.1686C110.837 23.977 109.252 23.7301 107.668 23.4224L107.477 24.404ZM117.15 25.5855C118.785 25.6747 120.409 25.7108 122.019 25.7001L122.012 24.7001C120.422 24.7107 118.818 24.675 117.204 24.587L117.15 25.5855ZM126.887 25.5283C128.525 25.4246 130.141 25.2772 131.728 25.0933L131.613 24.0999C130.042 24.282 128.443 24.4278 126.823 24.5303L126.887 25.5283ZM136.553 24.4136C138.186 24.1435 139.779 23.8398 141.326 23.5114L141.118 22.5332C139.585 22.8586 138.007 23.1595 136.389 23.427L136.553 24.4136ZM146.063 22.3981C147.699 21.9769 149.265 21.5356 150.751 21.0874L150.462 20.13C148.988 20.5746 147.436 21.0121 145.814 21.4297L146.063 22.3981ZM155.377 19.589C157.059 19.0069 158.585 18.4369 159.932 17.9074L159.566 16.9768C158.231 17.5016 156.718 18.0667 155.05 18.6441L155.377 19.589Z" fill="#BFF747"/>
</svg>
