<svg width="41" height="41" viewBox="0 0 41 41" fill="none" xmlns="http://www.w3.org/2000/svg">
<path d="M37.2412 29.3094C36.1487 28.3931 29.7413 24.3356 28.6763 24.5219C28.1763 24.6106 27.7938 25.0369 26.77 26.2581C26.2966 26.8592 25.7766 27.4222 25.215 27.9419C24.186 27.6933 23.1899 27.3241 22.2475 26.8419C18.5516 25.0425 15.5658 22.0558 13.7675 18.3594C13.2853 17.417 12.9161 16.4209 12.6675 15.3919C13.1872 14.8302 13.7501 14.3103 14.3513 13.8369C15.5713 12.8131 15.9988 12.4331 16.0875 11.9306C16.2738 10.8631 12.2125 4.45813 11.3 3.36563C10.9175 2.91313 10.57 2.60938 10.125 2.60938C8.835 2.60938 3 9.82438 3 10.7594C3 10.8356 3.125 18.3469 12.6113 27.9981C22.2625 37.4844 29.7737 37.6094 29.85 37.6094C30.785 37.6094 38 31.7744 38 30.4844C38 30.0394 37.6962 29.6919 37.2412 29.3094Z" fill="#BFF747"/>
<path d="M29.25 18.8594H31.75C31.747 16.2081 30.6925 13.6663 28.8178 11.7916C26.9431 9.91688 24.4013 8.86235 21.75 8.85938V11.3594C23.7385 11.3614 25.645 12.1522 27.0511 13.5583C28.4572 14.9644 29.248 16.8709 29.25 18.8594Z" fill="#BFF747"/>
<path d="M35.5 18.8594H38C37.995 14.5511 36.2814 10.4208 33.235 7.37437C30.1886 4.32798 26.0582 2.61434 21.75 2.60938V5.10938C25.3954 5.11368 28.8903 6.56371 31.468 9.14141C34.0457 11.7191 35.4957 15.214 35.5 18.8594Z" fill="#BFF747"/>
</svg>
