<svg width="25" height="25" viewBox="0 0 25 25" fill="none" xmlns="http://www.w3.org/2000/svg">
<path d="M22.9633 18.25C22.2805 17.6773 18.2758 15.1414 17.6102 15.2578C17.2977 15.3133 17.0586 15.5797 16.4188 16.343C16.1229 16.7187 15.7979 17.0705 15.4469 17.3953C14.8037 17.24 14.1812 17.0092 13.5922 16.7078C11.2823 15.5832 9.41612 13.7165 8.29219 11.4062C7.99081 10.8172 7.76005 10.1947 7.60469 9.55156C7.92948 9.20054 8.28134 8.87559 8.65703 8.57969C9.41953 7.93984 9.68672 7.70234 9.74219 7.38828C9.85859 6.72109 7.32031 2.71797 6.75 2.03516C6.51094 1.75234 6.29375 1.5625 6.01562 1.5625C5.20937 1.5625 1.5625 6.07188 1.5625 6.65625C1.5625 6.70391 1.64062 11.3984 7.56953 17.4305C13.6016 23.3594 18.2961 23.4375 18.3438 23.4375C18.9281 23.4375 23.4375 19.7906 23.4375 18.9844C23.4375 18.7062 23.2477 18.4891 22.9633 18.25Z" fill="black"/>
<path d="M17.9688 11.7188H19.5312C19.5294 10.0617 18.8703 8.47309 17.6986 7.30139C16.5269 6.12969 14.9383 5.47061 13.2812 5.46875V7.03125C14.5241 7.03249 15.7156 7.52675 16.5944 8.40556C17.4733 9.28437 17.9675 10.4759 17.9688 11.7188Z" fill="black"/>
<path d="M21.875 11.7187H23.4375C23.4344 9.0261 22.3634 6.44462 20.4594 4.54062C18.5554 2.63663 15.9739 1.5656 13.2812 1.5625V3.125C15.5596 3.12769 17.7439 4.03396 19.355 5.64502C20.966 7.25608 21.8723 9.44037 21.875 11.7187Z" fill="black"/>
</svg>
