<svg width="21" height="21" viewBox="0 0 21 21" fill="none" xmlns="http://www.w3.org/2000/svg">
<g clip-path="url(#clip0_1738_1767)">
<path d="M10.2031 20.3125C15.7164 20.3125 20.2031 15.8258 20.2031 10.3125C20.2031 4.79918 15.7165 0.3125 10.2031 0.3125C4.68975 0.3125 0.203125 4.79918 0.203125 10.3125C0.203125 15.8258 4.6898 20.3125 10.2031 20.3125ZM10.2031 1.64581C14.9831 1.64581 18.8698 5.53246 18.8698 10.3125C18.8698 15.0925 14.9832 18.9792 10.2031 18.9792C5.42309 18.9792 1.53644 15.0925 1.53644 10.3125C1.53644 5.53246 5.42314 1.64581 10.2031 1.64581Z" fill="#BFF747"/>
<path d="M13.1146 13.4992C13.2379 13.5991 13.3846 13.6458 13.5312 13.6458C13.7279 13.6458 13.9212 13.5592 14.0512 13.3958C14.2812 13.1092 14.2345 12.6892 13.9479 12.4592L10.8646 9.99249V4.97916C10.8646 4.61248 10.5646 4.3125 10.1979 4.3125C9.83123 4.3125 9.53125 4.61248 9.53125 4.97916V10.3125C9.53125 10.5159 9.6246 10.7058 9.78125 10.8325L13.1146 13.4992Z" fill="#BFF747"/>
</g>
<defs>
<clipPath id="clip0_1738_1767">
<rect width="20" height="20" fill="white" transform="translate(0.203125 0.3125)"/>
</clipPath>
</defs>
</svg>
