<svg width="30" height="31" viewBox="0 0 30 31" fill="none" xmlns="http://www.w3.org/2000/svg">
<g clip-path="url(#clip0_1738_1734)">
<path d="M14.9989 29.4314C22.6914 29.4314 28.9275 23.1953 28.9275 15.5028C28.9275 7.81025 22.6914 1.57422 14.9989 1.57422C7.30635 1.57422 1.07031 7.81025 1.07031 15.5028C1.07031 23.1953 7.30635 29.4314 14.9989 29.4314Z" stroke="#BFF747" stroke-width="1.5" stroke-linecap="round" stroke-linejoin="round"/>
<path d="M14.9934 1.57422C14.9934 1.57422 6.27195 9.26708 14.9934 15.5028C22.4934 20.8599 14.9934 29.4314 14.9934 29.4314" stroke="#BFF747" stroke-width="1.5" stroke-linecap="round" stroke-linejoin="round"/>
<path d="M19.2835 12.2896C20.4669 12.2896 21.4263 11.3302 21.4263 10.1468C21.4263 8.9633 20.4669 8.00391 19.2835 8.00391C18.1 8.00391 17.1406 8.9633 17.1406 10.1468C17.1406 11.3302 18.1 12.2896 19.2835 12.2896Z" stroke="#BFF747" stroke-width="1.5" stroke-linecap="round" stroke-linejoin="round"/>
<path d="M10.7132 23.0025C11.8966 23.0025 12.856 22.0431 12.856 20.8597C12.856 19.6762 11.8966 18.7168 10.7132 18.7168C9.5297 18.7168 8.57031 19.6762 8.57031 20.8597C8.57031 22.0431 9.5297 23.0025 10.7132 23.0025Z" stroke="#BFF747" stroke-width="1.5" stroke-linecap="round" stroke-linejoin="round"/>
</g>
<defs>
<clipPath id="clip0_1738_1734">
<rect width="30" height="30" fill="white" transform="translate(0 0.503906)"/>
</clipPath>
</defs>
</svg>
