<svg width="41" height="41" viewBox="0 0 41 41" fill="none" xmlns="http://www.w3.org/2000/svg">
<path d="M20.615 27.8061C27.7158 27.8061 33.4721 22.0497 33.4721 14.9489C33.4721 7.84814 27.7158 2.0918 20.615 2.0918C13.5142 2.0918 7.75781 7.84814 7.75781 14.9489C7.75781 22.0497 13.5142 27.8061 20.615 27.8061Z" stroke="#BFF747" stroke-width="1.5" stroke-linecap="round" stroke-linejoin="round"/>
<path d="M20.6127 20.6629C23.7686 20.6629 26.327 18.1046 26.327 14.9487C26.327 11.7927 23.7686 9.23438 20.6127 9.23438C17.4568 9.23438 14.8984 11.7927 14.8984 14.9487C14.8984 18.1046 17.4568 20.6629 20.6127 20.6629Z" stroke="#BFF747" stroke-width="1.5" stroke-linecap="round" stroke-linejoin="round"/>
<path d="M18.1261 27.5767L15.6118 38.1481C15.5621 38.349 15.4701 38.537 15.342 38.6996C15.2139 38.8622 15.0526 38.9956 14.869 39.091C14.6751 39.1751 14.466 39.2185 14.2547 39.2185C14.0433 39.2185 13.8342 39.1751 13.6404 39.091L4.15467 34.9481C3.9557 34.854 3.78062 34.7161 3.64258 34.5447C3.50454 34.3733 3.40712 34.1729 3.35763 33.9584C3.30814 33.744 3.30787 33.5211 3.35684 33.3065C3.40581 33.092 3.50275 32.8913 3.64038 32.7195L10.9832 23.5195" stroke="#BFF747" stroke-width="1.5" stroke-linecap="round" stroke-linejoin="round"/>
<path d="M23.8438 27.4357L26.4152 38.1499C26.4663 38.3543 26.562 38.5447 26.6954 38.7077C26.8287 38.8707 26.9965 39.0022 27.1866 39.0928C27.3752 39.178 27.5797 39.2221 27.7866 39.2221C27.9935 39.2221 28.1981 39.178 28.3866 39.0928L37.8152 34.9499C38.0171 34.857 38.1946 34.7182 38.3335 34.5446C38.4724 34.371 38.5688 34.1674 38.6152 33.9499C38.6693 33.7372 38.6717 33.5146 38.6219 33.3009C38.5722 33.0871 38.4719 32.8883 38.3295 32.7214L30.6723 22.9785" stroke="#BFF747" stroke-width="1.5" stroke-linecap="round" stroke-linejoin="round"/>
</svg>
