<svg width="51" height="51" viewBox="0 0 51 51" fill="none" xmlns="http://www.w3.org/2000/svg">
<g clip-path="url(#clip0_1700_392)">
<path d="M16.0826 46.4542C23.9724 46.4542 30.3683 40.0583 30.3683 32.1685C30.3683 24.2787 23.9724 17.8828 16.0826 17.8828C8.19281 17.8828 1.79688 24.2787 1.79688 32.1685C1.79688 40.0583 8.19281 46.4542 16.0826 46.4542Z" stroke="#BFF747" stroke-width="2" stroke-linecap="round" stroke-linejoin="round"/>
<path d="M33.9342 46.4542C41.8239 46.4542 48.2199 40.0583 48.2199 32.1685C48.2199 24.2787 41.8239 17.8828 33.9342 17.8828C26.0444 17.8828 19.6484 24.2787 19.6484 32.1685C19.6484 40.0583 26.0444 46.4542 33.9342 46.4542Z" stroke="#BFF747" stroke-width="2" stroke-linecap="round" stroke-linejoin="round"/>
<path d="M25.0045 32.1671C32.8942 32.1671 39.2902 25.7712 39.2902 17.8814C39.2902 9.99163 32.8942 3.5957 25.0045 3.5957C17.1147 3.5957 10.7188 9.99163 10.7188 17.8814C10.7188 25.7712 17.1147 32.1671 25.0045 32.1671Z" stroke="#BFF747" stroke-width="2" stroke-linecap="round" stroke-linejoin="round"/>
</g>
<defs>
<clipPath id="clip0_1700_392">
<rect width="50" height="50" fill="white" transform="translate(0.0234375 0.0234375)"/>
</clipPath>
</defs>
</svg>
