<svg width="51" height="51" viewBox="0 0 51 51" fill="none" xmlns="http://www.w3.org/2000/svg">
<g clip-path="url(#clip0_1733_1011)">
<path d="M19.269 29.582H4.0904C3.10418 29.582 2.30469 30.3815 2.30469 31.3677V46.5463C2.30469 47.5325 3.10418 48.332 4.0904 48.332H19.269C20.2552 48.332 21.0547 47.5325 21.0547 46.5463V31.3677C21.0547 30.3815 20.2552 29.582 19.269 29.582Z" stroke="#BFF747" stroke-width="2" stroke-linecap="round" stroke-linejoin="round"/>
<path d="M46.9487 29.582H31.7701C30.7839 29.582 29.9844 30.3815 29.9844 31.3677V46.5463C29.9844 47.5325 30.7839 48.332 31.7701 48.332H46.9487C47.9349 48.332 48.7344 47.5325 48.7344 46.5463V31.3677C48.7344 30.3815 47.9349 29.582 46.9487 29.582Z" stroke="#BFF747" stroke-width="2" stroke-linecap="round" stroke-linejoin="round"/>
<path d="M33.1283 1.9043H17.9498C16.9636 1.9043 16.1641 2.70379 16.1641 3.69001V18.8686C16.1641 19.8548 16.9636 20.6543 17.9498 20.6543H33.1283C34.1146 20.6543 34.9141 19.8548 34.9141 18.8686V3.69001C34.9141 2.70379 34.1146 1.9043 33.1283 1.9043Z" stroke="#BFF747" stroke-width="2" stroke-linecap="round" stroke-linejoin="round"/>
</g>
<defs>
<clipPath id="clip0_1733_1011">
<rect width="50" height="50" fill="white" transform="translate(0.515625 0.119141)"/>
</clipPath>
</defs>
</svg>
