<svg width="31" height="31" viewBox="0 0 31 31" fill="none" xmlns="http://www.w3.org/2000/svg">
<g clip-path="url(#clip0_1738_1741)">
<path d="M11.9565 4.92187L12.8779 2.5433C13.0333 2.14058 13.3067 1.79418 13.6623 1.54947C14.0179 1.30476 14.4391 1.17315 14.8708 1.17188H16.6279C17.0596 1.17315 17.4808 1.30476 17.8364 1.54947C18.192 1.79418 18.4654 2.14058 18.6208 2.5433L19.5422 4.92187L22.6708 6.72187L25.1994 6.33616C25.6204 6.27901 26.0489 6.34832 26.4305 6.53528C26.812 6.72224 27.1294 7.01841 27.3422 7.38616L28.1994 8.88616C28.419 9.25977 28.5202 9.69119 28.4896 10.1235C28.459 10.5558 28.298 10.9687 28.0279 11.3076L26.4637 13.3004V16.9004L28.0708 18.8933C28.3409 19.2322 28.5019 19.6451 28.5325 20.0774C28.5631 20.5097 28.4619 20.9411 28.2422 21.3147L27.3851 22.8147C27.1723 23.1825 26.8549 23.4786 26.4733 23.6656C26.0918 23.8526 25.6633 23.9219 25.2422 23.8647L22.7137 23.479L19.5851 25.279L18.6637 27.6576C18.5083 28.0603 18.2349 28.4067 17.8793 28.6514C17.5237 28.8961 17.1025 29.0277 16.6708 29.029H14.8708C14.4391 29.0277 14.0179 28.8961 13.6623 28.6514C13.3067 28.4067 13.0333 28.0603 12.8779 27.6576L11.9565 25.279L8.82795 23.479L6.29938 23.8647C5.87834 23.9219 5.44982 23.8526 5.06827 23.6656C4.68671 23.4786 4.36935 23.1825 4.15652 22.8147L3.29937 21.3147C3.07974 20.9411 2.97854 20.5097 3.00915 20.0774C3.03975 19.6451 3.20072 19.2322 3.4708 18.8933L5.03509 16.9004V13.3004L3.42795 11.3076C3.15786 10.9687 2.99689 10.5558 2.96629 10.1235C2.93568 9.69119 3.03688 9.25977 3.25652 8.88616L4.11366 7.38616C4.3265 7.01841 4.64386 6.72224 5.02541 6.53528C5.40696 6.34832 5.83548 6.27901 6.25652 6.33616L8.78509 6.72187L11.9565 4.92187Z" stroke="#BFF747" stroke-width="2" stroke-linecap="round" stroke-linejoin="round"/>
<path d="M15.7489 21.529C19.2993 21.529 22.1775 18.6508 22.1775 15.1004C22.1775 11.55 19.2993 8.67188 15.7489 8.67188C12.1985 8.67188 9.32031 11.55 9.32031 15.1004C9.32031 18.6508 12.1985 21.529 15.7489 21.529Z" stroke="#BFF747" stroke-width="2" stroke-linecap="round" stroke-linejoin="round"/>
<path d="M15.75 8.67188V15.1004H22.1786" stroke="#BFF747" stroke-width="2" stroke-linecap="round" stroke-linejoin="round"/>
<path d="M15.746 15.0996L11.2031 19.6425" stroke="#BFF747" stroke-width="2" stroke-linecap="round" stroke-linejoin="round"/>
</g>
<defs>
<clipPath id="clip0_1738_1741">
<rect width="30" height="30" fill="white" transform="translate(0.75 0.0996094)"/>
</clipPath>
</defs>
</svg>
