<svg width="51" height="51" viewBox="0 0 51 51" fill="none" xmlns="http://www.w3.org/2000/svg">
<path d="M25.5033 48.495C38.3242 48.495 48.7176 38.1016 48.7176 25.2807C48.7176 12.4598 38.3242 2.06641 25.5033 2.06641C12.6825 2.06641 2.28906 12.4598 2.28906 25.2807C2.28906 38.1016 12.6825 48.495 25.5033 48.495Z" stroke="#BFF747" stroke-width="2" stroke-linecap="round" stroke-linejoin="round"/>
<path d="M25.4994 2.06641C25.4994 2.06641 10.9637 14.8878 25.4994 25.2807C37.9994 34.2093 25.4994 48.495 25.4994 48.495" stroke="#BFF747" stroke-width="2" stroke-linecap="round" stroke-linejoin="round"/>
<path d="M32.6496 19.9241C34.622 19.9241 36.221 18.3251 36.221 16.3527C36.221 14.3802 34.622 12.7812 32.6496 12.7812C30.6771 12.7812 29.0781 14.3802 29.0781 16.3527C29.0781 18.3251 30.6771 19.9241 32.6496 19.9241Z" stroke="#BFF747" stroke-width="2" stroke-linecap="round" stroke-linejoin="round"/>
<path d="M18.3605 37.7815C20.3329 37.7815 21.9319 36.1825 21.9319 34.2101C21.9319 32.2377 20.3329 30.6387 18.3605 30.6387C16.388 30.6387 14.7891 32.2377 14.7891 34.2101C14.7891 36.1825 16.388 37.7815 18.3605 37.7815Z" stroke="#BFF747" stroke-width="2" stroke-linecap="round" stroke-linejoin="round"/>
</svg>
