<svg width="40" height="41" viewBox="0 0 40 41" fill="none" xmlns="http://www.w3.org/2000/svg">
<path d="M20.1395 26.0173C23.6899 26.0173 26.5681 23.1391 26.5681 19.5887C26.5681 16.0383 23.6899 13.1602 20.1395 13.1602C16.5891 13.1602 13.7109 16.0383 13.7109 19.5887C13.7109 23.1391 16.5891 26.0173 20.1395 26.0173Z" stroke="#BFF747" stroke-width="1.5" stroke-linecap="round" stroke-linejoin="round"/>
<path d="M31.5681 38.8732C30.4865 36.7746 28.8478 35.0143 26.8319 33.7853C24.8159 32.5564 22.5005 31.9063 20.1395 31.9062C17.7785 31.9063 15.4631 32.5564 13.4471 33.7853C11.4312 35.0143 9.79257 36.7746 8.71094 38.8732" stroke="#BFF747" stroke-width="1.5" stroke-linecap="round" stroke-linejoin="round"/>
<path d="M34.427 30.4741C36.4546 27.8295 37.7017 24.6704 38.0273 21.354C38.3529 18.0376 37.744 14.6962 36.2696 11.7078C34.7951 8.71944 32.5139 6.20324 29.6838 4.44382C26.8538 2.68439 23.5879 1.75195 20.2556 1.75195C16.9232 1.75195 13.6574 2.68439 10.8273 4.44382C7.99732 6.20324 5.71607 8.71944 4.24161 11.7078C2.76714 14.6962 2.15828 18.0376 2.4839 21.354C2.80952 24.6704 4.05662 27.8295 6.08416 30.4741" stroke="#BFF747" stroke-width="1.5" stroke-linecap="round" stroke-linejoin="round"/>
</svg>
