<svg width="21" height="21" viewBox="0 0 21 21" fill="none" xmlns="http://www.w3.org/2000/svg">
<path d="M12.8862 10.3687L9.34467 13.9102L7.52002 12.0856C7.27588 11.8414 6.88037 11.8414 6.63623 12.0856C6.39209 12.3297 6.39209 12.7252 6.63623 12.9694L8.90277 15.2359C9.02484 15.358 9.18475 15.419 9.34467 15.419C9.50458 15.419 9.66449 15.358 9.78656 15.2359L13.77 11.2524C14.0142 11.0083 14.0142 10.6128 13.77 10.3687C13.5259 10.1245 13.1304 10.1245 12.8862 10.3687Z" fill="#BFF747"/>
<path d="M15.8281 2.78748H14.8906V2.1875C14.8906 1.84235 14.6108 1.5625 14.2656 1.5625C13.9205 1.5625 13.6406 1.84235 13.6406 2.1875V2.78748H6.76562V2.1875C6.76562 1.84235 6.48578 1.5625 6.14062 1.5625C5.79547 1.5625 5.51562 1.84235 5.51562 2.1875V2.78748H4.57812C2.8551 2.78748 1.45312 4.18945 1.45312 5.91248V15.9375C1.45312 17.6605 2.8551 19.0625 4.57812 19.0625H15.8281C17.5511 19.0625 18.9531 17.6605 18.9531 15.9375V5.91248C18.9531 4.18945 17.5511 2.78748 15.8281 2.78748ZM2.70312 5.91248C2.70312 4.87854 3.54419 4.03748 4.57812 4.03748H5.51562V4.63715C5.51562 4.9823 5.79547 5.26215 6.14062 5.26215C6.48578 5.26215 6.76562 4.9823 6.76562 4.63715V4.03748H13.6406V4.63715C13.6406 4.9823 13.9205 5.26215 14.2656 5.26215C14.6108 5.26215 14.8906 4.9823 14.8906 4.63715V4.03748H15.8281C16.8621 4.03748 17.7031 4.87854 17.7031 5.91248V6.54358H2.70312V5.91248ZM15.8281 17.8125H4.57812C3.54419 17.8125 2.70312 16.9714 2.70312 15.9375V7.79358H17.7031V15.9375C17.7031 16.9714 16.8621 17.8125 15.8281 17.8125Z" fill="#BFF747"/>
</svg>
