<svg width="25" height="25" viewBox="0 0 25 25" fill="none" xmlns="http://www.w3.org/2000/svg">
<path d="M18.4546 3.17673C17.374 2.2919 16.1104 1.65793 14.7551 1.32054C13.3998 0.983151 11.9865 0.950756 10.6171 1.22569C8.8564 1.58667 7.23658 2.44616 5.95058 3.70178C4.66458 4.9574 3.76662 6.55622 3.36366 8.30779C2.9607 10.0594 3.06973 11.8899 3.67776 13.5812C4.28579 15.2726 5.36719 16.7535 6.79315 17.8476C8.4212 19.0392 9.80736 20.53 10.8775 22.2403L11.6067 23.4528C11.6993 23.6068 11.8302 23.7342 11.9866 23.8227C12.143 23.9112 12.3197 23.9577 12.4994 23.9577C12.6791 23.9577 12.8558 23.9112 13.0122 23.8227C13.1686 23.7342 13.2995 23.6068 13.3921 23.4528L14.0911 22.2882C15.023 20.65 16.2936 19.2295 17.8181 18.1215C19.0136 17.2991 20.0015 16.21 20.704 14.9404C21.4065 13.6708 21.8044 12.2553 21.8662 10.8056C21.928 9.35584 21.6521 7.91159 21.0602 6.58677C20.4684 5.26194 19.5767 4.09278 18.4556 3.17153L18.4546 3.17673ZM12.4984 14.584C11.6743 14.584 10.8687 14.3397 10.1835 13.8818C9.49827 13.424 8.96422 12.7732 8.64886 12.0119C8.33349 11.2505 8.25098 10.4127 8.41175 9.60448C8.57252 8.79623 8.96936 8.0538 9.55208 7.47108C10.1348 6.88836 10.8772 6.49153 11.6855 6.33075C12.4937 6.16998 13.3315 6.2525 14.0929 6.56786C14.8542 6.88323 15.505 7.41728 15.9628 8.10248C16.4207 8.78769 16.665 9.59327 16.665 10.4174C16.665 11.5224 16.226 12.5822 15.4446 13.3636C14.6632 14.145 13.6034 14.584 12.4984 14.584Z" fill="black"/>
</svg>
