<svg width="16" height="17" viewBox="0 0 16 17" fill="none" xmlns="http://www.w3.org/2000/svg">
<path d="M14.638 10.8002L9.8713 8.9374L14.6794 7.07455C14.9281 6.99176 15.0939 6.70198 15.0525 6.4536C14.9696 5.91545 14.7209 5.41869 14.4307 4.96332C14.182 4.46656 13.8504 4.0526 13.436 3.68003C13.2287 3.51444 12.9386 3.51444 12.7313 3.68003L8.71072 6.90896L9.53971 1.81718C9.62261 1.5274 9.45681 1.27902 9.20811 1.19623C8.71072 0.989245 8.13043 0.906453 7.59158 0.947849C7.05274 0.906453 6.47245 0.989245 5.97506 1.19623C5.72636 1.27902 5.56057 1.5688 5.64347 1.81718L6.47245 6.90896L2.45186 3.68003C2.24461 3.47304 1.95447 3.47304 1.74722 3.68003C1.33273 4.0112 1.00113 4.46656 0.752437 4.96332C0.420841 5.41869 0.213593 5.91545 0.0892453 6.4536C0.0477959 6.74338 0.213594 6.99176 0.46229 7.07455L5.18752 8.9374L0.379391 10.8002C0.130695 10.883 -0.0351017 11.1728 0.00634774 11.4212C0.0892465 11.9594 0.296494 12.4561 0.628089 12.9115C0.876785 13.4082 1.20838 13.8222 1.62287 14.1948C1.83012 14.3604 2.12027 14.3604 2.32751 14.1948L6.3481 10.9658L5.51912 16.0576C5.43622 16.3474 5.60202 16.5958 5.85071 16.72C6.38955 16.8856 6.9284 16.9683 7.46724 16.927C8.00608 16.9683 8.58637 16.8856 9.08377 16.72C9.33246 16.6372 9.49826 16.3474 9.41536 16.0576L8.58637 10.9658L12.607 14.1948C12.8142 14.3604 13.1044 14.3604 13.3531 14.1948C13.7675 13.8636 14.0991 13.4496 14.3478 12.9529C14.6794 12.4975 14.8867 12.0007 15.011 11.4626C15.0525 11.1314 14.9281 10.883 14.638 10.8002Z" fill="#BFF747"/>
</svg>
