<svg width="51" height="51" viewBox="0 0 51 51" fill="none" xmlns="http://www.w3.org/2000/svg">
<g clip-path="url(#clip0_1700_398)">
<path d="M25.0268 20.1208C37.8477 20.1208 48.2411 16.1234 48.2411 11.1922C48.2411 6.26113 37.8477 2.26367 25.0268 2.26367C12.2059 2.26367 1.8125 6.26113 1.8125 11.1922C1.8125 16.1234 12.2059 20.1208 25.0268 20.1208Z" stroke="#BFF747" stroke-width="2" stroke-linecap="round" stroke-linejoin="round"/>
<path d="M1.8125 11.1914V39.7628C1.8125 44.6914 12.2054 48.6914 25.0268 48.6914C37.8482 48.6914 48.2411 44.6914 48.2411 39.7628V11.1914" stroke="#BFF747" stroke-width="2" stroke-linecap="round" stroke-linejoin="round"/>
<path d="M48.2411 25.4785C48.2411 30.4071 37.8482 34.4071 25.0268 34.4071C12.2054 34.4071 1.8125 30.4071 1.8125 25.4785" stroke="#BFF747" stroke-width="2" stroke-linecap="round" stroke-linejoin="round"/>
</g>
<defs>
<clipPath id="clip0_1700_398">
<rect width="50" height="50" fill="white" transform="translate(0.0234375 0.478516)"/>
</clipPath>
</defs>
</svg>
