<svg width="41" height="41" viewBox="0 0 41 41" fill="none" xmlns="http://www.w3.org/2000/svg">
<g clip-path="url(#clip0_1733_1188)">
<path d="M20.423 38.8831C30.6797 38.8831 38.9944 30.5684 38.9944 20.3117C38.9944 10.0549 30.6797 1.74023 20.423 1.74023C10.1663 1.74023 1.85156 10.0549 1.85156 20.3117C1.85156 30.5684 10.1663 38.8831 20.423 38.8831Z" stroke="#BFF747" stroke-width="1.5" stroke-linecap="round" stroke-linejoin="round"/>
<path d="M20.4183 1.74023C20.4183 1.74023 8.78968 11.9974 20.4183 20.3117C30.4183 27.4545 20.4183 38.8831 20.4183 38.8831" stroke="#BFF747" stroke-width="1.5" stroke-linecap="round" stroke-linejoin="round"/>
<path d="M26.1384 16.0268C27.7163 16.0268 28.9955 14.7476 28.9955 13.1696C28.9955 11.5917 27.7163 10.3125 26.1384 10.3125C24.5604 10.3125 23.2812 11.5917 23.2812 13.1696C23.2812 14.7476 24.5604 16.0268 26.1384 16.0268Z" stroke="#BFF747" stroke-width="1.5" stroke-linecap="round" stroke-linejoin="round"/>
<path d="M14.7087 30.3119C16.2867 30.3119 17.5658 29.0328 17.5658 27.4548C17.5658 25.8768 16.2867 24.5977 14.7087 24.5977C13.1307 24.5977 11.8516 25.8768 11.8516 27.4548C11.8516 29.0328 13.1307 30.3119 14.7087 30.3119Z" stroke="#BFF747" stroke-width="1.5" stroke-linecap="round" stroke-linejoin="round"/>
</g>
<defs>
<clipPath id="clip0_1733_1188">
<rect width="40" height="40" fill="white" transform="translate(0.421875 0.3125)"/>
</clipPath>
</defs>
</svg>
