<svg width="50" height="51" viewBox="0 0 50 51" fill="none" xmlns="http://www.w3.org/2000/svg">
<g clip-path="url(#clip0_1700_411)">
<path d="M24.9967 32.3156C29.4347 32.3156 33.0324 28.7179 33.0324 24.2799C33.0324 19.8419 29.4347 16.2441 24.9967 16.2441C20.5586 16.2441 16.9609 19.8419 16.9609 24.2799C16.9609 28.7179 20.5586 32.3156 24.9967 32.3156Z" stroke="#BFF747" stroke-width="2" stroke-linecap="round" stroke-linejoin="round"/>
<path d="M39.2824 48.3865C37.9303 45.7631 35.882 43.5627 33.3621 42.0266C30.8422 40.4904 27.9479 39.6777 24.9967 39.6777C22.0454 39.6777 19.1511 40.4904 16.6312 42.0266C14.1113 43.5627 12.063 45.7631 10.7109 48.3865" stroke="#BFF747" stroke-width="2" stroke-linecap="round" stroke-linejoin="round"/>
<path d="M42.856 37.887C45.3905 34.5814 46.9493 30.6324 47.3564 26.4869C47.7634 22.3414 47.0023 18.1647 45.1592 14.4292C43.3161 10.6937 40.4646 7.54848 36.9271 5.3492C33.3895 3.14993 29.3072 1.98438 25.1418 1.98438C20.9763 1.98438 16.894 3.14993 13.3564 5.3492C9.81892 7.54848 6.96736 10.6937 5.12427 14.4292C3.28119 18.1647 2.52012 22.3414 2.92714 26.4869C3.33417 30.6324 4.89305 34.5814 7.42747 37.887" stroke="#BFF747" stroke-width="2" stroke-linecap="round" stroke-linejoin="round"/>
</g>
<defs>
<clipPath id="clip0_1700_411">
<rect width="50" height="50" fill="white" transform="translate(0 0.171875)"/>
</clipPath>
</defs>
</svg>
