<svg width="41" height="41" viewBox="0 0 41 41" fill="none" xmlns="http://www.w3.org/2000/svg">
<g clip-path="url(#clip0_1840_266)">
<path d="M15.6808 23.707H3.53795C2.74897 23.707 2.10938 24.3466 2.10938 25.1356V37.2785C2.10938 38.0674 2.74897 38.707 3.53795 38.707H15.6808C16.4698 38.707 17.1094 38.0674 17.1094 37.2785V25.1356C17.1094 24.3466 16.4698 23.707 15.6808 23.707Z" stroke="#BFF747" stroke-width="1.5" stroke-linecap="round" stroke-linejoin="round"/>
<path d="M37.8214 23.707H25.6786C24.8896 23.707 24.25 24.3466 24.25 25.1356V37.2785C24.25 38.0674 24.8896 38.707 25.6786 38.707H37.8214C38.6104 38.707 39.25 38.0674 39.25 37.2785V25.1356C39.25 24.3466 38.6104 23.707 37.8214 23.707Z" stroke="#BFF747" stroke-width="1.5" stroke-linecap="round" stroke-linejoin="round"/>
<path d="M26.7667 1.56055H14.6239C13.8349 1.56055 13.1953 2.20014 13.1953 2.98912V15.132C13.1953 15.921 13.8349 16.5605 14.6239 16.5605H26.7667C27.5557 16.5605 28.1953 15.921 28.1953 15.132V2.98912C28.1953 2.20014 27.5557 1.56055 26.7667 1.56055Z" stroke="#BFF747" stroke-width="1.5" stroke-linecap="round" stroke-linejoin="round"/>
</g>
<defs>
<clipPath id="clip0_1840_266">
<rect width="40" height="40" fill="white" transform="translate(0.679688 0.132812)"/>
</clipPath>
</defs>
</svg>
