<svg width="41" height="41" viewBox="0 0 41 41" fill="none" xmlns="http://www.w3.org/2000/svg">
<path d="M13.4598 38.1071C19.7716 38.1071 24.8884 32.9904 24.8884 26.6786C24.8884 20.3667 19.7716 15.25 13.4598 15.25C7.14799 15.25 2.03125 20.3667 2.03125 26.6786C2.03125 32.9904 7.14799 38.1071 13.4598 38.1071Z" stroke="#BFF747" stroke-width="1.5" stroke-linecap="round" stroke-linejoin="round"/>
<path d="M27.7411 38.1071C34.0529 38.1071 39.1696 32.9904 39.1696 26.6786C39.1696 20.3667 34.0529 15.25 27.7411 15.25C21.4292 15.25 16.3125 20.3667 16.3125 26.6786C16.3125 32.9904 21.4292 38.1071 27.7411 38.1071Z" stroke="#BFF747" stroke-width="1.5" stroke-linecap="round" stroke-linejoin="round"/>
<path d="M20.6004 26.6775C26.9123 26.6775 32.029 21.5607 32.029 15.2489C32.029 8.93706 26.9123 3.82031 20.6004 3.82031C14.2886 3.82031 9.17188 8.93706 9.17188 15.2489C9.17188 21.5607 14.2886 26.6775 20.6004 26.6775Z" stroke="#BFF747" stroke-width="1.5" stroke-linecap="round" stroke-linejoin="round"/>
</svg>
