<svg width="30" height="30" viewBox="0 0 30 30" fill="none" xmlns="http://www.w3.org/2000/svg">
<g clip-path="url(#clip0_1738_1727)">
<path d="M14.9989 28.9255C22.6914 28.9255 28.9275 22.6895 28.9275 14.9969C28.9275 7.30439 22.6914 1.06836 14.9989 1.06836C7.30635 1.06836 1.07031 7.30439 1.07031 14.9969C1.07031 22.6895 7.30635 28.9255 14.9989 28.9255Z" stroke="#BFF747" stroke-width="1.5" stroke-linecap="round" stroke-linejoin="round"/>
<path d="M14.9934 1.06836C14.9934 1.06836 6.27195 8.76122 14.9934 14.9969C22.4934 20.3541 14.9934 28.9255 14.9934 28.9255" stroke="#BFF747" stroke-width="1.5" stroke-linecap="round" stroke-linejoin="round"/>
<path d="M19.2835 11.7838C20.4669 11.7838 21.4263 10.8244 21.4263 9.6409C21.4263 8.45744 20.4669 7.49805 19.2835 7.49805C18.1 7.49805 17.1406 8.45744 17.1406 9.6409C17.1406 10.8244 18.1 11.7838 19.2835 11.7838Z" stroke="#BFF747" stroke-width="1.5" stroke-linecap="round" stroke-linejoin="round"/>
<path d="M10.7132 22.4967C11.8966 22.4967 12.856 21.5373 12.856 20.3538C12.856 19.1703 11.8966 18.2109 10.7132 18.2109C9.5297 18.2109 8.57031 19.1703 8.57031 20.3538C8.57031 21.5373 9.5297 22.4967 10.7132 22.4967Z" stroke="#BFF747" stroke-width="1.5" stroke-linecap="round" stroke-linejoin="round"/>
</g>
<defs>
<clipPath id="clip0_1738_1727">
<rect width="30" height="30" fill="white" transform="translate(0 -0.00195312)"/>
</clipPath>
</defs>
</svg>
