<svg width="52" height="53" viewBox="0 0 52 53" fill="none" xmlns="http://www.w3.org/2000/svg">
<g clip-path="url(#clip0_287_357)">
<path d="M50.8801 10.6461C49.902 6.23021 45.6212 2.18497 41.1931 1.32575C38.4956 0.786458 30.9698 0.120208 25.9922 0.175052C21.0146 0.120208 13.4888 0.786458 10.7913 1.32575C6.3632 2.18497 2.08234 6.23021 1.1043 10.6461C0.547734 13.3274 0.0003125 16.9755 -0.0078125 21.9551C0.0003125 26.9347 0.547734 30.5819 1.1043 33.2631C2.08234 37.679 6.3632 41.7243 10.7913 42.5835C12.2477 42.875 15.1118 43.203 18.2227 43.4346C18.5751 43.9881 18.957 44.5772 19.3703 45.2018C21.0207 47.7012 22.2841 49.443 23.2409 50.6567C24.8334 52.6768 27.152 52.6768 28.7445 50.6567C29.7013 49.443 30.9637 47.7012 32.6151 45.2018C33.0284 44.5761 33.4093 43.9881 33.7627 43.4346C36.8736 43.203 39.7377 42.875 41.1951 42.5835C45.6232 41.7243 49.9041 37.679 50.8821 33.2631C51.4387 30.5819 51.9861 26.9347 51.9942 21.9551C51.9861 16.9755 51.4387 13.3284 50.8821 10.6472L50.8801 10.6461ZM28.8634 37.0524C28.7537 37.6709 28.193 38.2315 27.5745 38.3412C27.1998 38.4032 26.6889 38.4621 25.9912 38.4631C25.2945 38.4631 24.7836 38.4042 24.4078 38.3412C23.7893 38.2315 23.2287 37.6709 23.119 37.0524C23.057 36.6776 22.9981 36.1668 22.9971 35.469C22.9971 34.7723 23.056 34.2615 23.119 33.8857C23.2287 33.2672 23.7893 32.7065 24.4078 32.5969C24.7826 32.5349 25.2934 32.476 25.9912 32.475C26.6879 32.475 27.1988 32.5339 27.5745 32.5969C28.193 32.7065 28.7537 33.2672 28.8634 33.8857C28.9253 34.2604 28.9842 34.7713 28.9852 35.469C28.9852 36.1658 28.9263 36.6766 28.8634 37.0524ZM35.0465 20.4175C34.2624 21.5265 33.0873 22.5391 31.3486 23.6025C29.1477 24.9594 28.7953 25.5169 28.7953 26.6087V27.0404C28.7953 28.5882 27.5359 29.8476 25.9881 29.8476C24.4403 29.8476 23.1809 28.5882 23.1809 27.0404V26.04C23.1809 24.7522 23.5029 23.6594 24.1651 22.6996C24.807 21.7693 25.7688 20.9426 27.1957 20.0945C29.8252 18.5477 30.3066 17.6794 30.3066 16.5266C30.3066 15.0783 29.0726 14.1419 27.1642 14.1419C25.072 14.1419 23.7101 15.0926 23.1159 16.9684C22.7239 18.2054 21.5783 19.0362 20.2661 19.0362C20.193 19.0362 20.1198 19.0332 20.0467 19.0281C19.1205 18.9611 18.2907 18.4807 17.7707 17.7098C17.2558 16.9471 17.1207 16.0097 17.4 15.1372C18.0398 13.1426 19.2667 11.483 20.9476 10.3374C22.6498 9.17755 24.7998 8.56513 27.1632 8.56513C29.5266 8.56513 31.896 9.34818 33.5779 10.7701C35.3085 12.2336 36.2622 14.2506 36.2622 16.4515C36.2622 17.9627 35.8651 19.2607 35.0465 20.4175Z" fill="black"/>
</g>
<defs>
<clipPath id="clip0_287_357">
<rect width="52" height="52" fill="white" transform="translate(-0.0078125 0.171875)"/>
</clipPath>
</defs>
</svg>
