<svg width="41" height="41" viewBox="0 0 41 41" fill="none" xmlns="http://www.w3.org/2000/svg">
<g clip-path="url(#clip0_1840_258)">
<path d="M38.9866 35.8424C38.9866 36.6001 38.6856 37.3268 38.1498 37.8627C37.614 38.3985 36.8872 38.6995 36.1295 38.6995H4.70089C3.94313 38.6995 3.21641 38.3985 2.68059 37.8627C2.14477 37.3268 1.84375 36.6001 1.84375 35.8424V10.1281L10.4152 1.55664H36.1295C36.8872 1.55664 37.614 1.85766 38.1498 2.39348C38.6856 2.9293 38.9866 3.65602 38.9866 4.41378V35.8424Z" stroke="#BFF747" stroke-width="1.5" stroke-linecap="round" stroke-linejoin="round"/>
<path d="M30.4141 24.4141H10.4141V38.6998H30.4141V24.4141Z" stroke="#BFF747" stroke-width="1.5" stroke-linecap="round" stroke-linejoin="round"/>
<path d="M30.4163 1.55664H13.2734V12.9852H30.4163V1.55664Z" stroke="#BFF747" stroke-width="1.5" stroke-linecap="round" stroke-linejoin="round"/>
</g>
<defs>
<clipPath id="clip0_1840_258">
<rect width="40" height="40" fill="white" transform="translate(0.414062 0.128906)"/>
</clipPath>
</defs>
</svg>
