<svg width="38" height="40" viewBox="0 0 38 40" fill="none" xmlns="http://www.w3.org/2000/svg">
<path d="M18.5067 25.6677C22.0571 25.6677 24.9353 22.7895 24.9353 19.2391C24.9353 15.6887 22.0571 12.8105 18.5067 12.8105C14.9563 12.8105 12.0781 15.6887 12.0781 19.2391C12.0781 22.7895 14.9563 25.6677 18.5067 25.6677Z" stroke="#BFF747" stroke-width="1.5" stroke-linecap="round" stroke-linejoin="round"/>
<path d="M29.9353 38.5236C28.8536 36.425 27.215 34.6646 25.1991 33.4357C23.1831 32.2068 20.8677 31.5566 18.5067 31.5566C16.1457 31.5566 13.8303 32.2068 11.8143 33.4357C9.79838 34.6646 8.15976 36.425 7.07812 38.5236" stroke="#BFF747" stroke-width="1.5" stroke-linecap="round" stroke-linejoin="round"/>
<path d="M32.7942 30.1245C34.8217 27.4799 36.0688 24.3208 36.3945 21.0044C36.7201 17.688 36.1112 14.3466 34.6368 11.3582C33.1623 8.36983 30.881 5.85363 28.051 4.09421C25.221 2.33478 21.9551 1.40234 18.6228 1.40234C15.2904 1.40234 12.0246 2.33478 9.19453 4.09421C6.36451 5.85363 4.08326 8.36983 2.60879 11.3582C1.13433 14.3466 0.52547 17.688 0.85109 21.0044C1.17671 24.3208 2.42381 27.4799 4.45135 30.1245" stroke="#BFF747" stroke-width="1.5" stroke-linecap="round" stroke-linejoin="round"/>
</svg>
