<svg width="41" height="41" viewBox="0 0 41 41" fill="none" xmlns="http://www.w3.org/2000/svg">
<g clip-path="url(#clip0_1733_760)">
<path d="M19.9275 27.8588C27.0283 27.8588 32.7846 22.1025 32.7846 15.0017C32.7846 7.90087 27.0283 2.14453 19.9275 2.14453C12.8267 2.14453 7.07031 7.90087 7.07031 15.0017C7.07031 22.1025 12.8267 27.8588 19.9275 27.8588Z" stroke="black" stroke-width="1.5" stroke-linecap="round" stroke-linejoin="round"/>
<path d="M19.9252 20.7157C23.0811 20.7157 25.6395 18.1573 25.6395 15.0014C25.6395 11.8455 23.0811 9.28711 19.9252 9.28711C16.7693 9.28711 14.2109 11.8455 14.2109 15.0014C14.2109 18.1573 16.7693 20.7157 19.9252 20.7157Z" stroke="black" stroke-width="1.5" stroke-linecap="round" stroke-linejoin="round"/>
<path d="M17.4386 27.6294L14.9243 38.2008C14.8746 38.4017 14.7826 38.5897 14.6545 38.7523C14.5264 38.9149 14.3651 39.0483 14.1815 39.1437C13.9876 39.2278 13.7785 39.2713 13.5672 39.2713C13.3558 39.2713 13.1467 39.2278 12.9529 39.1437L3.46717 35.0008C3.2682 34.9068 3.09312 34.7689 2.95508 34.5975C2.81704 34.426 2.71962 34.2256 2.67013 34.0111C2.62064 33.7967 2.62037 33.5738 2.66934 33.3593C2.71831 33.1447 2.81525 32.944 2.95288 32.7723L10.2957 23.5723" stroke="black" stroke-width="1.5" stroke-linecap="round" stroke-linejoin="round"/>
<path d="M23.1562 27.4884L25.7277 38.2027C25.7788 38.407 25.8745 38.5975 26.0079 38.7605C26.1412 38.9235 26.309 39.055 26.4991 39.1455C26.6877 39.2307 26.8922 39.2748 27.0991 39.2748C27.306 39.2748 27.5106 39.2307 27.6991 39.1455L37.1277 35.0027C37.3296 34.9097 37.5071 34.7709 37.646 34.5973C37.7849 34.4237 37.8813 34.2201 37.9277 34.0027C37.9818 33.79 37.9842 33.5674 37.9344 33.3536C37.8847 33.1398 37.7844 32.9411 37.642 32.7741L29.9848 23.0312" stroke="black" stroke-width="1.5" stroke-linecap="round" stroke-linejoin="round"/>
</g>
<defs>
<clipPath id="clip0_1733_760">
<rect width="40" height="40" fill="white" transform="translate(0.296875 0.714844)"/>
</clipPath>
</defs>
</svg>
