<svg width="41" height="41" viewBox="0 0 41 41" fill="none" xmlns="http://www.w3.org/2000/svg">
<g clip-path="url(#clip0_1840_282)">
<path d="M20.6808 16.4674C30.9375 16.4674 39.2522 13.2694 39.2522 9.3245C39.2522 5.37961 30.9375 2.18164 20.6808 2.18164C10.4241 2.18164 2.10938 5.37961 2.10938 9.3245C2.10938 13.2694 10.4241 16.4674 20.6808 16.4674Z" stroke="#BFF747" stroke-width="1.5" stroke-linecap="round" stroke-linejoin="round"/>
<path d="M2.10938 9.32812V32.1853C2.10938 36.1281 10.4237 39.3281 20.6808 39.3281C30.9379 39.3281 39.2522 36.1281 39.2522 32.1853V9.32812" stroke="#BFF747" stroke-width="1.5" stroke-linecap="round" stroke-linejoin="round"/>
<path d="M39.2522 20.7539C39.2522 24.6968 30.9379 27.8968 20.6808 27.8968C10.4237 27.8968 2.10938 24.6968 2.10938 20.7539" stroke="#BFF747" stroke-width="1.5" stroke-linecap="round" stroke-linejoin="round"/>
</g>
<defs>
<clipPath id="clip0_1840_282">
<rect width="40" height="40" fill="white" transform="translate(0.679688 0.753906)"/>
</clipPath>
</defs>
</svg>
