<svg width="50" height="51" viewBox="0 0 50 51" fill="none" xmlns="http://www.w3.org/2000/svg">
<path d="M18.6801 8.48047L20.2158 4.51618C20.4748 3.84498 20.9305 3.26765 21.5232 2.8598C22.1158 2.45195 22.8178 2.23259 23.5373 2.23047H26.4658C27.1853 2.23259 27.8873 2.45195 28.48 2.8598C29.0726 3.26765 29.5283 3.84498 29.7873 4.51618L31.323 8.48047L36.5373 11.4805L40.7516 10.8376C41.4533 10.7424 42.1675 10.8579 42.8034 11.1695C43.4393 11.4811 43.9683 11.9747 44.323 12.5876L45.7516 15.0876C46.1176 15.7103 46.2863 16.4293 46.2353 17.1498C46.1843 17.8703 45.916 18.5584 45.4658 19.1233L42.8587 22.4448V28.4448L45.5373 31.7662C45.9874 32.3311 46.2557 33.0192 46.3067 33.7397C46.3577 34.4602 46.1891 35.1792 45.823 35.8019L44.3944 38.3019C44.0397 38.9148 43.5108 39.4084 42.8748 39.72C42.2389 40.0316 41.5247 40.1471 40.823 40.0519L36.6087 39.409L31.3944 42.409L29.8587 46.3733C29.5997 47.0445 29.144 47.6219 28.5514 48.0297C27.9587 48.4376 27.2567 48.6569 26.5373 48.659H23.5373C22.8178 48.6569 22.1158 48.4376 21.5232 48.0297C20.9305 47.6219 20.4748 47.0445 20.2158 46.3733L18.6801 42.409L13.4658 39.409L9.25156 40.0519C8.54984 40.1471 7.83563 40.0316 7.19971 39.72C6.56379 39.4084 6.03486 38.9148 5.68013 38.3019L4.25156 35.8019C3.8855 35.1792 3.71684 34.4602 3.76785 33.7397C3.81886 33.0192 4.08714 32.3311 4.53728 31.7662L7.14442 28.4448V22.4448L4.46585 19.1233C4.01571 18.5584 3.74743 17.8703 3.69642 17.1498C3.64541 16.4293 3.81407 15.7103 4.18013 15.0876L5.60871 12.5876C5.96343 11.9747 6.49236 11.4811 7.12828 11.1695C7.76421 10.8579 8.47841 10.7424 9.18013 10.8376L13.3944 11.4805L18.6801 8.48047Z" stroke="#BFF747" stroke-width="2" stroke-linecap="round" stroke-linejoin="round"/>
<path d="M25.0033 36.159C30.9207 36.159 35.7176 31.3621 35.7176 25.4448C35.7176 19.5274 30.9207 14.7305 25.0033 14.7305C19.086 14.7305 14.2891 19.5274 14.2891 25.4448C14.2891 31.3621 19.086 36.159 25.0033 36.159Z" stroke="#BFF747" stroke-width="2" stroke-linecap="round" stroke-linejoin="round"/>
<path d="M25 14.7305V25.4448H35.7143" stroke="#BFF747" stroke-width="2" stroke-linecap="round" stroke-linejoin="round"/>
<path d="M25.0011 25.4434L17.4297 33.0148" stroke="#BFF747" stroke-width="2" stroke-linecap="round" stroke-linejoin="round"/>
</svg>
