<svg width="51" height="51" viewBox="0 0 51 51" fill="none" xmlns="http://www.w3.org/2000/svg">
<path d="M19.4301 8.29297L20.9658 4.32868C21.2248 3.65748 21.6805 3.08015 22.2732 2.6723C22.8658 2.26445 23.5678 2.04509 24.2873 2.04297H27.2158C27.9353 2.04509 28.6373 2.26445 29.23 2.6723C29.8226 3.08015 30.2783 3.65748 30.5373 4.32868L32.073 8.29297L37.2873 11.293L41.5016 10.6501C42.2033 10.5549 42.9175 10.6704 43.5534 10.982C44.1893 11.2936 44.7183 11.7872 45.073 12.4001L46.5016 14.9001C46.8676 15.5228 47.0363 16.2418 46.9853 16.9623C46.9343 17.6828 46.666 18.3709 46.2158 18.9358L43.6087 22.2573V28.2573L46.2873 31.5787C46.7374 32.1436 47.0057 32.8317 47.0567 33.5522C47.1077 34.2727 46.9391 34.9917 46.573 35.6144L45.1444 38.1144C44.7897 38.7273 44.2608 39.2209 43.6248 39.5325C42.9889 39.8441 42.2747 39.9596 41.573 39.8644L37.3587 39.2215L32.1444 42.2215L30.6087 46.1858C30.3497 46.857 29.894 47.4344 29.3014 47.8422C28.7087 48.2501 28.0067 48.4694 27.2873 48.4715H24.2873C23.5678 48.4694 22.8658 48.2501 22.2732 47.8422C21.6805 47.4344 21.2248 46.857 20.9658 46.1858L19.4301 42.2215L14.2158 39.2215L10.0016 39.8644C9.29984 39.9596 8.58563 39.8441 7.94971 39.5325C7.31379 39.2209 6.78486 38.7273 6.43013 38.1144L5.00156 35.6144C4.6355 34.9917 4.46684 34.2727 4.51785 33.5522C4.56886 32.8317 4.83714 32.1436 5.28728 31.5787L7.89442 28.2573V22.2573L5.21585 18.9358C4.76571 18.3709 4.49743 17.6828 4.44642 16.9623C4.39541 16.2418 4.56407 15.5228 4.93013 14.9001L6.35871 12.4001C6.71343 11.7872 7.24236 11.2936 7.87828 10.982C8.51421 10.6704 9.22841 10.5549 9.93013 10.6501L14.1444 11.293L19.4301 8.29297Z" stroke="#BFF747" stroke-width="2" stroke-linecap="round" stroke-linejoin="round"/>
<path d="M25.7533 35.9715C31.6707 35.9715 36.4676 31.1746 36.4676 25.2573C36.4676 19.3399 31.6707 14.543 25.7533 14.543C19.836 14.543 15.0391 19.3399 15.0391 25.2573C15.0391 31.1746 19.836 35.9715 25.7533 35.9715Z" stroke="#BFF747" stroke-width="2" stroke-linecap="round" stroke-linejoin="round"/>
<path d="M25.75 14.543V25.2573H36.4643" stroke="#BFF747" stroke-width="2" stroke-linecap="round" stroke-linejoin="round"/>
<path d="M25.7511 25.2559L18.1797 32.8273" stroke="#BFF747" stroke-width="2" stroke-linecap="round" stroke-linejoin="round"/>
</svg>
