<svg width="21" height="21" viewBox="0 0 21 21" fill="none" xmlns="http://www.w3.org/2000/svg">
<g clip-path="url(#clip0_1738_1756)">
<path d="M20.1751 11.446C20.175 11.4459 20.175 11.4459 20.175 11.4458L16.3989 1.96437C16.3187 1.76291 16.0904 1.66456 15.8889 1.7447C15.8888 1.74475 15.8886 1.7448 15.8885 1.7449L0.569426 7.84481C0.506952 7.8718 0.452773 7.91489 0.412384 7.96966C0.284983 8.03586 0.204499 8.16689 0.203125 8.31044V18.5182C0.203125 18.735 0.378914 18.9108 0.59573 18.9108H17.0852C17.302 18.9108 17.4778 18.735 17.4778 18.5182V12.9432L19.9559 11.9562C20.1573 11.8758 20.2554 11.6474 20.1751 11.446ZM16.6925 18.1256H0.988336V8.70304H16.6925V18.1256ZM6.75374 7.9198L13.3275 5.30033C13.9142 5.91702 14.7272 6.26752 15.5783 6.27085L16.234 7.9198H6.75374ZM17.4778 12.0999V8.31044C17.4778 8.09362 17.302 7.91783 17.0852 7.91783H17.0789L16.2469 5.82839C16.2377 5.81097 16.227 5.79438 16.2147 5.77892C16.1726 5.58983 15.9975 5.46081 15.8045 5.47661C15.0125 5.5488 14.2377 5.21519 13.746 4.59011C13.6237 4.43911 13.4087 4.40156 13.2423 4.50217C13.2237 4.50438 13.2052 4.50781 13.187 4.51238L5.16134 7.70818C5.06422 7.74627 4.98653 7.82179 4.9458 7.91783H2.5085L15.8147 2.61962L19.3006 11.3728L17.4778 12.0999Z" fill="#BFF747"/>
<path d="M2.05376 15.4751C2.816 15.7004 3.41247 16.2962 3.63871 17.0581C3.68832 17.2244 3.84129 17.3384 4.01482 17.3384C4.03519 17.3371 4.05541 17.3341 4.07528 17.3294C4.0929 17.3344 4.11091 17.3381 4.12907 17.3404H13.5516C13.5678 17.3383 13.5838 17.335 13.5995 17.3306C13.7956 17.3783 13.9933 17.258 14.0411 17.0618C14.0412 17.0611 14.0414 17.0604 14.0416 17.0597C14.2672 16.2969 14.8638 15.7004 15.6265 15.4747C15.8115 15.4182 15.9264 15.2339 15.8958 15.0429C15.9011 15.0238 15.9049 15.0044 15.9072 14.9848V11.8439C15.9049 11.8242 15.901 11.8048 15.8954 11.7858C15.9262 11.5948 15.8112 11.4103 15.6261 11.3539C14.8634 11.1283 14.267 10.5315 14.042 9.7686C13.9851 9.58236 13.799 9.46713 13.607 9.49927C13.5888 9.49422 13.5703 9.49054 13.5516 9.48828H4.12907C4.10929 9.49064 4.08971 9.49456 4.07057 9.50006C3.87962 9.46963 3.69539 9.58452 3.63871 9.76939C3.41291 10.532 2.81639 11.1283 2.05376 11.3539C1.86879 11.4105 1.75386 11.5948 1.78443 11.7858C1.77933 11.8049 1.77565 11.8243 1.77344 11.8439V14.9848C1.77569 15.0032 1.77938 15.0215 1.78443 15.0393C1.75224 15.2316 1.86742 15.4179 2.05376 15.4751ZM2.55865 12.0033C3.347 11.6867 3.97183 11.0618 4.28847 10.2735H13.3918C13.7086 11.0618 14.3336 11.6867 15.122 12.0033V14.8254C14.3339 15.1423 13.7092 15.7671 13.3922 16.5552H4.28847C3.97149 15.7671 3.34675 15.1423 2.55865 14.8254V12.0033Z" fill="#BFF747"/>
<path d="M8.84001 15.7699C10.141 15.7699 11.1956 14.7152 11.1956 13.4142C11.1956 12.1132 10.141 11.0586 8.84001 11.0586C7.53901 11.0586 6.48438 12.1132 6.48438 13.4142C6.48565 14.7147 7.53955 15.7686 8.84001 15.7699ZM8.84001 11.8438C9.70732 11.8438 10.4104 12.5469 10.4104 13.4142C10.4104 14.2815 9.70732 14.9846 8.84001 14.9846C7.97269 14.9846 7.26959 14.2815 7.26959 13.4142C7.26959 12.5469 7.97269 11.8438 8.84001 11.8438Z" fill="#BFF747"/>
<path d="M4.52641 14.004C4.85163 14.004 5.11532 13.7403 5.11532 13.4151C5.11532 13.0899 4.85163 12.8262 4.52641 12.8262C4.20118 12.8262 3.9375 13.0899 3.9375 13.4151C3.9375 13.7404 4.20118 14.004 4.52641 14.004ZM4.52641 13.2188C4.63482 13.2188 4.72271 13.3067 4.72271 13.4151C4.72271 13.5235 4.63482 13.6114 4.52641 13.6114C4.418 13.6114 4.33011 13.5235 4.33011 13.4151C4.33011 13.3067 4.418 13.2188 4.52641 13.2188Z" fill="#BFF747"/>
<path d="M13.1592 14.004C13.4844 14.004 13.7481 13.7403 13.7481 13.4151C13.7481 13.0899 13.4844 12.8262 13.1592 12.8262C12.834 12.8262 12.5703 13.0899 12.5703 13.4151C12.5703 13.7404 12.834 14.004 13.1592 14.004ZM13.1592 13.2188C13.2676 13.2188 13.3555 13.3067 13.3555 13.4151C13.3555 13.5235 13.2676 13.6114 13.1592 13.6114C13.0508 13.6114 12.9629 13.5235 12.9629 13.4151C12.9629 13.3067 13.0508 13.2188 13.1592 13.2188Z" fill="#BFF747"/>
</g>
<defs>
<clipPath id="clip0_1738_1756">
<rect width="20" height="20" fill="white" transform="translate(0.203125 0.3125)"/>
</clipPath>
</defs>
</svg>
