<svg width="41" height="41" viewBox="0 0 41 41" fill="none" xmlns="http://www.w3.org/2000/svg">
<g clip-path="url(#clip0_1738_1279)">
<path d="M12.8817 37.4568C19.1935 37.4568 24.3103 32.34 24.3103 26.0282C24.3103 19.7164 19.1935 14.5996 12.8817 14.5996C6.56987 14.5996 1.45312 19.7164 1.45312 26.0282C1.45312 32.34 6.56987 37.4568 12.8817 37.4568Z" stroke="#BFF747" stroke-width="1.5" stroke-linecap="round" stroke-linejoin="round"/>
<path d="M27.1629 37.4568C33.4748 37.4568 38.5915 32.34 38.5915 26.0282C38.5915 19.7164 33.4748 14.5996 27.1629 14.5996C20.8511 14.5996 15.7344 19.7164 15.7344 26.0282C15.7344 32.34 20.8511 37.4568 27.1629 37.4568Z" stroke="#BFF747" stroke-width="1.5" stroke-linecap="round" stroke-linejoin="round"/>
<path d="M20.0223 26.0271C26.3341 26.0271 31.4509 20.9103 31.4509 14.5985C31.4509 8.28667 26.3341 3.16992 20.0223 3.16992C13.7105 3.16992 8.59375 8.28667 8.59375 14.5985C8.59375 20.9103 13.7105 26.0271 20.0223 26.0271Z" stroke="#BFF747" stroke-width="1.5" stroke-linecap="round" stroke-linejoin="round"/>
</g>
<defs>
<clipPath id="clip0_1738_1279">
<rect width="40" height="40" fill="white" transform="translate(0.03125 0.3125)"/>
</clipPath>
</defs>
</svg>
