<svg width="45" height="51" viewBox="0 0 45 51" fill="none" xmlns="http://www.w3.org/2000/svg">
<path d="M33.411 6.21014L23.5412 0.481696C22.7375 0.015216 21.4226 0.015216 20.619 0.481696L10.8225 6.16748L33.411 6.21014Z" fill="#BFF747"/>
<path d="M17.7052 48.355L44.1597 19.3232V15.0557L6.66479 41.9469L17.7052 48.355Z" fill="#BFF747"/>
<path d="M36.5135 8.01108L34.6436 6.92578L5.12294 9.47547L1.46116 11.6008C0.657616 12.0673 0 13.2121 0 14.145V22.0061L36.5135 8.01108Z" fill="#BFF747"/>
<path d="M18.7412 48.9557L20.6186 50.0455C21.4222 50.512 22.7371 50.512 23.5408 50.0455L42.6984 38.9266C43.5022 38.4601 44.1595 37.3154 44.1595 36.3825V25.5488L18.7412 48.9557Z" fill="#BFF747"/>
<path d="M1.46117 38.9273L1.99529 39.2372L44.1597 14.2819V14.145C44.1597 13.2122 43.5024 12.0673 42.6986 11.6009L41.8332 11.0986L0 23.0402V36.3831C0 37.3161 0.657624 38.4608 1.46117 38.9273Z" fill="#BFF747"/>
</svg>
