<svg width="177" height="51" viewBox="0 0 177 51" fill="none" xmlns="http://www.w3.org/2000/svg">
<path d="M33.411 6.21014L23.5412 0.481696C22.7375 0.015216 21.4226 0.015216 20.619 0.481696L10.8225 6.16748L33.411 6.21014Z" fill="#BFF747"/>
<path d="M17.7052 48.355L44.1597 19.3232V15.0557L6.66479 41.9469L17.7052 48.355Z" fill="#BFF747"/>
<path d="M36.5135 8.01108L34.6436 6.92578L5.12294 9.47547L1.46116 11.6008C0.657616 12.0673 0 13.2121 0 14.145V22.0061L36.5135 8.01108Z" fill="#BFF747"/>
<path d="M18.7412 48.9557L20.6186 50.0455C21.4222 50.512 22.7371 50.512 23.5408 50.0455L42.6984 38.9266C43.5022 38.4601 44.1595 37.3154 44.1595 36.3825V25.5488L18.7412 48.9557Z" fill="#BFF747"/>
<path d="M1.46117 38.9273L1.99529 39.2372L44.1597 14.2819V14.145C44.1597 13.2122 43.5024 12.0673 42.6986 11.6009L41.8332 11.0986L0 23.0402V36.3831C0 37.3161 0.657624 38.4608 1.46117 38.9273Z" fill="#BFF747"/>
<path d="M65.8797 37.6237C64.6997 37.6237 63.6797 37.4337 62.8197 37.0537C61.9597 36.6737 61.2997 36.1337 60.8397 35.4337C60.3797 34.7137 60.1497 33.8637 60.1497 32.8837C60.1497 31.9637 60.3597 31.1537 60.7797 30.4537C61.1997 29.7337 61.8397 29.1337 62.6997 28.6537C63.5797 28.1737 64.6697 27.8337 65.9697 27.6337L70.9797 26.8237V30.1237L66.7797 30.8737C66.1397 30.9937 65.6497 31.2037 65.3097 31.5037C64.9697 31.7837 64.7997 32.1937 64.7997 32.7337C64.7997 33.2337 64.9897 33.6237 65.3697 33.9037C65.7497 34.1837 66.2197 34.3237 66.7797 34.3237C67.5197 34.3237 68.1697 34.1637 68.7297 33.8437C69.2897 33.5237 69.7197 33.0937 70.0197 32.5537C70.3397 31.9937 70.4997 31.3837 70.4997 30.7237V26.4637C70.4997 25.8437 70.2497 25.3237 69.7497 24.9037C69.2697 24.4837 68.6097 24.2737 67.7697 24.2737C66.9697 24.2737 66.2597 24.4937 65.6397 24.9337C65.0397 25.3737 64.5997 25.9537 64.3197 26.6737L60.7197 24.9637C61.0397 24.0437 61.5497 23.2537 62.2497 22.5937C62.9497 21.9337 63.7897 21.4237 64.7697 21.0637C65.7497 20.7037 66.8197 20.5237 67.9797 20.5237C69.3597 20.5237 70.5797 20.7737 71.6397 21.2737C72.6997 21.7737 73.5197 22.4737 74.0997 23.3737C74.6997 24.2537 74.9997 25.2837 74.9997 26.4637V37.2637H70.7997V34.6237L71.8197 34.4437C71.3397 35.1637 70.8097 35.7637 70.2297 36.2437C69.6497 36.7037 68.9997 37.0437 68.2797 37.2637C67.5597 37.5037 66.7597 37.6237 65.8797 37.6237ZM78.2999 37.2637V20.8837H82.4999V24.8137L82.1999 24.2437C82.5599 22.8637 83.1499 21.9337 83.9699 21.4537C84.8099 20.9537 85.7999 20.7037 86.9399 20.7037H87.8999V24.6037H86.4899C85.3899 24.6037 84.4999 24.9437 83.8199 25.6237C83.1399 26.2837 82.7999 27.2237 82.7999 28.4437V37.2637H78.2999ZM98.3481 37.4437C96.3681 37.4437 94.8281 36.9137 93.7281 35.8537C92.6481 34.7737 92.1081 33.2737 92.1081 31.3537V24.7837H89.3481V20.8837H89.4981C90.3381 20.8837 90.9781 20.6737 91.4181 20.2537C91.8781 19.8337 92.1081 19.2037 92.1081 18.3637V17.1637H96.6081V20.8837H100.448V24.7837H96.6081V31.0537C96.6081 31.6137 96.7081 32.0837 96.9081 32.4637C97.1081 32.8237 97.4181 33.0937 97.8381 33.2737C98.2581 33.4537 98.7781 33.5437 99.3981 33.5437C99.5381 33.5437 99.6981 33.5337 99.8781 33.5137C100.058 33.4937 100.248 33.4737 100.448 33.4537V37.2637C100.148 37.3037 99.8081 37.3437 99.4281 37.3837C99.0481 37.4237 98.6881 37.4437 98.3481 37.4437ZM103.085 37.2637V20.8837H107.585V37.2637H103.085ZM103.085 19.4137V14.9137H107.585V19.4137H103.085ZM117.298 37.6237C115.498 37.6237 113.928 37.2037 112.588 36.3637C111.268 35.5037 110.368 34.3537 109.888 32.9137L113.188 31.3537C113.608 32.2337 114.178 32.9237 114.898 33.4237C115.618 33.9237 116.418 34.1737 117.298 34.1737C117.938 34.1737 118.428 34.0437 118.768 33.7837C119.108 33.5237 119.278 33.1637 119.278 32.7037C119.278 32.4637 119.218 32.2637 119.098 32.1037C118.978 31.9237 118.798 31.7637 118.558 31.6237C118.318 31.4837 118.018 31.3637 117.658 31.2637L114.868 30.4837C113.528 30.1037 112.498 29.4937 111.778 28.6537C111.058 27.7937 110.698 26.7837 110.698 25.6237C110.698 24.6037 110.958 23.7137 111.478 22.9537C111.998 22.1937 112.728 21.6037 113.668 21.1837C114.608 20.7437 115.688 20.5237 116.908 20.5237C118.508 20.5237 119.908 20.9037 121.108 21.6637C122.328 22.4037 123.188 23.4537 123.688 24.8137L120.358 26.3737C120.118 25.6937 119.678 25.1537 119.038 24.7537C118.418 24.3337 117.708 24.1237 116.908 24.1237C116.328 24.1237 115.868 24.2437 115.528 24.4837C115.208 24.7237 115.048 25.0537 115.048 25.4737C115.048 25.6937 115.108 25.8937 115.228 26.0737C115.348 26.2537 115.538 26.4137 115.798 26.5537C116.078 26.6937 116.418 26.8237 116.818 26.9437L119.428 27.7237C120.788 28.1237 121.828 28.7337 122.548 29.5537C123.268 30.3537 123.628 31.3437 123.628 32.5237C123.628 33.5437 123.358 34.4337 122.818 35.1937C122.298 35.9537 121.568 36.5537 120.628 36.9937C119.688 37.4137 118.578 37.6237 117.298 37.6237ZM134.207 37.4437C132.227 37.4437 130.687 36.9137 129.587 35.8537C128.507 34.7737 127.967 33.2737 127.967 31.3537V24.7837H125.207V20.8837H125.357C126.197 20.8837 126.837 20.6737 127.277 20.2537C127.737 19.8337 127.967 19.2037 127.967 18.3637V17.1637H132.467V20.8837H136.307V24.7837H132.467V31.0537C132.467 31.6137 132.567 32.0837 132.767 32.4637C132.967 32.8237 133.277 33.0937 133.697 33.2737C134.117 33.4537 134.637 33.5437 135.257 33.5437C135.397 33.5437 135.557 33.5337 135.737 33.5137C135.917 33.4937 136.107 33.4737 136.307 33.4537V37.2637C136.007 37.3037 135.667 37.3437 135.287 37.3837C134.907 37.4237 134.547 37.4437 134.207 37.4437ZM138.944 37.2637V20.8837H143.444V37.2637H138.944ZM138.944 19.4137V14.9137H143.444V19.4137H138.944ZM154.777 37.6237C153.137 37.6237 151.657 37.2537 150.337 36.5137C149.037 35.7537 147.997 34.7237 147.217 33.4237C146.457 32.1237 146.077 30.6637 146.077 29.0437C146.077 27.4237 146.457 25.9737 147.217 24.6937C147.977 23.3937 149.017 22.3737 150.337 21.6337C151.657 20.8937 153.137 20.5237 154.777 20.5237C155.997 20.5237 157.127 20.7337 158.167 21.1537C159.207 21.5737 160.097 22.1637 160.837 22.9237C161.577 23.6637 162.107 24.5437 162.427 25.5637L158.527 27.2437C158.247 26.4237 157.767 25.7737 157.087 25.2937C156.427 24.8137 155.657 24.5737 154.777 24.5737C153.997 24.5737 153.297 24.7637 152.677 25.1437C152.077 25.5237 151.597 26.0537 151.237 26.7337C150.897 27.4137 150.727 28.1937 150.727 29.0737C150.727 29.9537 150.897 30.7337 151.237 31.4137C151.597 32.0937 152.077 32.6237 152.677 33.0037C153.297 33.3837 153.997 33.5737 154.777 33.5737C155.677 33.5737 156.457 33.3337 157.117 32.8537C157.777 32.3737 158.247 31.7237 158.527 30.9037L162.427 32.6137C162.127 33.5737 161.607 34.4337 160.867 35.1937C160.127 35.9537 159.237 36.5537 158.197 36.9937C157.157 37.4137 156.017 37.6237 154.777 37.6237Z" fill="white"/>
<path d="M167.297 37.2637V32.7637H171.797V37.2637H167.297Z" fill="#BFF747"/>
</svg>
