<svg width="81" height="145" viewBox="0 0 81 145" fill="none" xmlns="http://www.w3.org/2000/svg">
<path d="M40.3649 88.3212L40.8162 89.2136L40.8346 89.2043L40.8526 89.1943L40.3649 88.3212ZM1.85427 74.7683L2.84172 74.6104L2.84027 74.6013L2.83865 74.5923L1.85427 74.7683ZM45.9843 75.5925L46.9841 75.5715L46.9818 75.4622L46.956 75.356L45.9843 75.5925ZM47.7209 144.671L53.1302 134.469L41.5907 134.885L47.7209 144.671ZM48.3834 134.295C48.3211 132.134 48.2571 129.811 48.1924 127.379L46.1931 127.432C46.2579 129.865 46.3219 132.19 46.3843 134.352L48.3834 134.295ZM48.0137 120.476C47.9563 118.205 47.8991 115.888 47.8427 113.565L45.8433 113.613C45.8997 115.937 45.957 118.254 46.0143 120.527L48.0137 120.476ZM47.6776 106.654C47.6223 104.305 47.5685 101.987 47.517 99.7402L45.5175 99.7861C45.5691 102.033 45.6228 104.351 45.6781 106.701L47.6776 106.654ZM47.3604 92.832C47.3045 90.3366 47.253 88.0096 47.2072 85.9229L45.2077 85.9667C45.2535 88.0537 45.305 90.381 45.3609 92.8768L47.3604 92.832ZM47.0573 79.0155C47.0339 77.9224 47.0156 77.0614 47.0031 76.4736C46.9969 76.1798 46.9922 75.9542 46.989 75.8022C46.9874 75.7261 46.9861 75.6685 46.9853 75.6298C46.9849 75.6105 46.9846 75.5959 46.9844 75.5862C46.9843 75.5813 46.9842 75.5776 46.9842 75.5752C46.9842 75.574 46.9841 75.5731 46.9841 75.5725C46.9841 75.5721 46.9841 75.5719 46.9841 75.5718C46.9841 75.5717 46.9841 75.5716 46.9841 75.5716C46.9841 75.5716 46.9841 75.5716 46.9841 75.5716C46.9841 75.5715 46.9841 75.5715 45.9843 75.5925C44.9845 75.6134 44.9845 75.6135 44.9845 75.6135C44.9845 75.6135 44.9845 75.6135 44.9845 75.6135C44.9845 75.6135 44.9845 75.6136 44.9846 75.6137C44.9846 75.6138 44.9846 75.6141 44.9846 75.6144C44.9846 75.615 44.9846 75.6159 44.9846 75.6171C44.9847 75.6196 44.9848 75.6233 44.9849 75.6281C44.9851 75.6379 44.9854 75.6525 44.9858 75.6718C44.9866 75.7105 44.9878 75.7682 44.9894 75.8443C44.9926 75.9964 44.9974 76.222 45.0036 76.516C45.016 77.1039 45.0344 77.9651 45.0578 79.0584L47.0573 79.0155ZM46.956 75.356C46.62 73.9754 46.217 72.6771 45.7532 71.4586L43.884 72.17C44.3168 73.3071 44.6954 74.5254 45.0127 75.829L46.956 75.356ZM41.7312 64.3704C39.9006 62.122 37.7681 60.3824 35.456 59.0965L34.4839 60.8444C36.5794 62.0099 38.5139 63.5865 40.1803 65.6332L41.7312 64.3704ZM27.7037 56.4778C24.9918 56.0592 22.2293 56.0847 19.5611 56.4775L19.8523 58.4561C22.3386 58.0902 24.8994 58.0686 27.3985 58.4544L27.7037 56.4778ZM11.7615 58.7802C9.16374 59.9747 6.83805 61.5417 4.99494 63.3947L6.41294 64.8052C8.06476 63.1445 10.1845 61.7067 12.5971 60.5972L11.7615 58.7802ZM0.905419 70.6581C0.632369 72.0414 0.607675 73.4784 0.869892 74.9444L2.83865 74.5923C2.62096 73.3752 2.64183 72.189 2.86756 71.0454L0.905419 70.6581ZM0.866821 74.9263C1.04852 76.0623 1.25574 77.143 1.48718 78.1706L3.4383 77.7311C3.21666 76.747 3.01722 75.7077 2.84172 74.6104L0.866821 74.9263ZM3.46693 84.4779C4.44793 86.7903 5.61187 88.7004 6.92885 90.2548L8.45481 88.962C7.28548 87.5818 6.22166 85.8502 5.30809 83.6968L3.46693 84.4779ZM12.3385 94.4172C14.4488 95.3873 16.6959 95.8306 18.9761 95.9027L19.0393 93.9037C16.9765 93.8385 15.0002 93.4396 13.1739 92.6L12.3385 94.4172ZM25.6234 95.2068C27.78 94.7276 29.9058 94.0419 31.9252 93.2693L31.2105 91.4013C29.2566 92.1489 27.2269 92.8017 25.1895 93.2545L25.6234 95.2068ZM37.9161 90.6522C38.9507 90.1532 39.9235 89.6651 40.8162 89.2136L39.9136 87.4289C39.0244 87.8786 38.0648 88.36 37.0473 88.8507L37.9161 90.6522ZM40.8526 89.1943C41.9681 88.5711 43.055 87.9389 44.114 87.2982L43.0787 85.587C42.0398 86.2156 40.9728 86.8361 39.8772 87.4482L40.8526 89.1943ZM50.3882 83.1773C52.4922 81.6762 54.4634 80.1382 56.3087 78.5689L55.013 77.0454C53.212 78.577 51.2856 80.0802 49.2266 81.5492L50.3882 83.1773ZM61.8153 73.4229C63.6216 71.5629 65.2728 69.6704 66.7791 67.7537L65.2065 66.5179C63.744 68.3791 62.1388 70.2191 60.3806 72.0295L61.8153 73.4229ZM71.1002 61.5739C72.4585 59.3743 73.6469 57.1564 74.6799 54.9323L72.866 54.0899C71.8659 56.243 70.7149 58.3913 69.3985 60.5231L71.1002 61.5739ZM77.4396 47.9109C78.2358 45.4595 78.8615 43.0171 79.3365 40.6L77.3741 40.2143C76.914 42.5555 76.3081 44.9202 75.5374 47.293L77.4396 47.9109ZM80.3551 33.1221C80.5544 30.5506 80.5978 28.0299 80.5115 25.5812L78.5127 25.6516C78.5965 28.0285 78.5543 30.4741 78.3611 32.9675L80.3551 33.1221ZM79.8332 18.0764C79.4546 15.4793 78.9426 13.0042 78.3359 10.6824L76.4009 11.1881C76.9894 13.4401 77.4864 15.8428 77.8542 18.3649L79.8332 18.0764ZM75.9945 3.5002C75.5051 2.2685 74.9943 1.11125 74.4717 0.0366529L72.6731 0.911351C73.173 1.93933 73.6639 3.05105 74.1359 4.23874L75.9945 3.5002Z" fill="#BFF747"/>
</svg>
